<svg id="Слой_1" data-name="Слой 1" xmlns="http://www.w3.org/2000/svg" viewBox="0 0 120 120"><defs><style>.cls-1{fill:#23fcfd;}</style></defs><path class="cls-1" d="M108.92,53.92,18.11,1.48A7,7,0,0,0,7.57,7.54v104.9a6.9,6.9,0,0,0,3.51,6,6.92,6.92,0,0,0,3.51,1,7.09,7.09,0,0,0,3.52-1l90.81-52.43a7,7,0,0,0,0-12.14Zm-1.82,9L16.28,115.36a3.4,3.4,0,0,1-3.38,0,3.31,3.31,0,0,1-1.65-2.92V7.54A3.31,3.31,0,0,1,12.9,4.62a3.43,3.43,0,0,1,1.69-.43,3.51,3.51,0,0,1,1.69.43L107.1,57.09a3.33,3.33,0,0,1,0,5.8Z"/><path class="cls-1" d="M90.34,55.23l-64.11-37a5.49,5.49,0,0,0-5.46,0A5.35,5.35,0,0,0,18,23V97a5.44,5.44,0,0,0,8.21,4.74l64.11-37a5.49,5.49,0,0,0,0-9.52Zm-1.82,6.35-64.11,37a1.68,1.68,0,0,1-1.82,0A1.78,1.78,0,0,1,21.66,97V23a1.78,1.78,0,0,1,.93-1.56,1.61,1.61,0,0,1,.93-.26,1.46,1.46,0,0,1,.89.26l64.11,37a1.87,1.87,0,0,1,0,3.18Z"/><path class="cls-1" d="M72,56.54,34.31,34.79a4,4,0,0,0-6,3.43V81.76a3.86,3.86,0,0,0,2,3.43,4.17,4.17,0,0,0,2,.55,4.23,4.23,0,0,0,2-.55L72,63.44A4,4,0,0,0,74,60,4,4,0,0,0,72,56.54Zm-1.82,3.72L32.45,82,32,81.76V38.22l.47-.26L70.16,59.71Z"/></svg>