<svg width="9" height="10" viewBox="0 0 9 10" fill="none" xmlns="http://www.w3.org/2000/svg">
<path fill-rule="evenodd" clip-rule="evenodd" d="M1.36068 3.95835C1.36068 2.53907 2.61481 1.25002 4.27734 1.25002C5.93989 1.25002 7.19401 2.53907 7.19401 3.95835C7.19401 4.85206 6.64722 5.85027 5.92759 6.77548C5.35889 7.50669 4.72622 8.13873 4.27734 8.58102C3.82847 8.13873 3.19579 7.50669 2.62707 6.77548C1.90746 5.85027 1.36068 4.85206 1.36068 3.95835ZM4.27734 0.416687C2.18987 0.416687 0.527344 2.04431 0.527344 3.95835C0.527344 5.14798 1.23056 6.33727 1.96928 7.28706C2.60854 8.10898 3.32709 8.8156 3.77622 9.25723C3.85364 9.3334 3.92309 9.40169 3.98272 9.46131C4.06084 9.53944 4.16684 9.58335 4.27734 9.58335C4.38784 9.58335 4.49384 9.53944 4.57197 9.46131C4.63159 9.40169 4.70105 9.33339 4.77847 9.25727C5.22755 8.8156 5.94614 8.10898 6.58543 7.28706C7.32414 6.33727 8.02734 5.14798 8.02734 3.95835C8.02734 2.04431 6.3648 0.416687 4.27734 0.416687ZM4.27734 5.20835C4.85264 5.20835 5.31901 4.74198 5.31901 4.16669C5.31901 3.59139 4.85264 3.12502 4.27734 3.12502C3.70205 3.12502 3.23568 3.59139 3.23568 4.16669C3.23568 4.74198 3.70205 5.20835 4.27734 5.20835Z" fill="#AFAFAF"/>
</svg>
