<svg width="13" height="12" viewBox="0 0 13 12" fill="none" xmlns="http://www.w3.org/2000/svg">
<path d="M7.44274 7.9701L8.10774 7.30505C8.21009 7.2015 8.33194 7.1192 8.46624 7.0631C8.60059 7.007 8.74469 6.97815 8.89024 6.97815C9.03584 6.97815 9.17994 7.007 9.31429 7.0631C9.44859 7.1192 9.57044 7.2015 9.67274 7.30505L10.4527 8.0851C10.5563 8.1874 10.6385 8.30915 10.6946 8.4435C10.7507 8.5778 10.7796 8.722 10.7796 8.86755C10.7796 9.01315 10.7507 9.1573 10.6946 9.29165C10.6385 9.42595 10.5563 9.5477 10.4527 9.65L10.0977 10.01C9.85314 10.257 9.53679 10.4205 9.19379 10.477C8.85079 10.5336 8.49869 10.4804 8.18774 10.325C5.51189 8.9476 3.33238 6.7698 1.95276 4.09509C1.79722 3.7838 1.74441 3.43121 1.80191 3.08801C1.85941 2.74481 2.02426 2.42865 2.27277 2.18506L2.62775 1.82507C2.83571 1.61836 3.11703 1.50232 3.41025 1.50232C3.70347 1.50232 3.98478 1.61836 4.19275 1.82507L4.97775 2.6101C5.18446 2.81807 5.30049 3.09935 5.30049 3.39258C5.30049 3.6858 5.18446 3.96708 4.97775 4.17505L4.31274 4.84009C4.75245 5.43485 5.23543 5.9963 5.75774 6.52C6.27704 7.0402 6.83534 7.52 7.42774 7.9551L7.44274 7.9701Z" stroke="#AFAFAF" stroke-width="0.646154" stroke-linecap="round" stroke-linejoin="round"/>
<path d="M9.38281 4.42004C9.30626 4.04838 9.12391 3.70681 8.85781 3.43628C8.59176 3.16574 8.25316 2.97774 7.88281 2.89502" stroke="#AFAFAF" stroke-width="0.646154" stroke-linecap="round" stroke-linejoin="round"/>
<path d="M11.2773 3.755C11.0915 3.09962 10.7413 2.50264 10.2601 2.02051C9.77884 1.53837 9.18239 1.18704 8.52734 1" stroke="#AFAFAF" stroke-width="0.646154" stroke-linecap="round" stroke-linejoin="round"/>
</svg>
