<svg width="177" height="177" viewBox="0 0 177 177" fill="none" xmlns="http://www.w3.org/2000/svg">
<g filter="url(#filter0_f_175_1760)">
<circle cx="28.5" cy="28.5" r="28.5" transform="matrix(-1 0 0 1 117 60)" fill="#007BD3"/>
</g>
<g filter="url(#filter1_f_175_1760)">
<path d="M114.354 88.3536C114.549 88.1583 114.549 87.8417 114.354 87.6465L111.172 84.4645C110.976 84.2692 110.66 84.2692 110.464 84.4645C110.269 84.6597 110.269 84.9763 110.464 85.1716L113.293 88L110.464 90.8284C110.269 91.0237 110.269 91.3403 110.464 91.5355C110.66 91.7308 110.976 91.7308 111.172 91.5355L114.354 88.3536ZM62 88.5L114 88.5L114 87.5L62 87.5L62 88.5Z" fill="#00EDFF"/>
</g>
<g filter="url(#filter2_f_175_1760)">
<path d="M114.354 88.3536C114.549 88.1583 114.549 87.8417 114.354 87.6465L111.172 84.4645C110.976 84.2692 110.66 84.2692 110.464 84.4645C110.269 84.6597 110.269 84.9763 110.464 85.1716L113.293 88L110.464 90.8284C110.269 91.0237 110.269 91.3403 110.464 91.5355C110.66 91.7308 110.976 91.7308 111.172 91.5355L114.354 88.3536ZM62 88.5L114 88.5L114 87.5L62 87.5L62 88.5Z" fill="#00EDFF"/>
</g>
<g filter="url(#filter3_f_175_1760)">
<path d="M114.354 88.3536C114.549 88.1583 114.549 87.8417 114.354 87.6465L111.172 84.4645C110.976 84.2692 110.66 84.2692 110.464 84.4645C110.269 84.6597 110.269 84.9763 110.464 85.1716L113.293 88L110.464 90.8284C110.269 91.0237 110.269 91.3403 110.464 91.5355C110.66 91.7308 110.976 91.7308 111.172 91.5355L114.354 88.3536ZM62 88.5L114 88.5L114 87.5L62 87.5L62 88.5Z" fill="#00EDFF"/>
</g>
<g filter="url(#filter4_f_175_1760)">
<path d="M114.354 88.3536C114.549 88.1583 114.549 87.8417 114.354 87.6465L111.172 84.4645C110.976 84.2692 110.66 84.2692 110.464 84.4645C110.269 84.6597 110.269 84.9763 110.464 85.1716L113.293 88L110.464 90.8284C110.269 91.0237 110.269 91.3403 110.464 91.5355C110.66 91.7308 110.976 91.7308 111.172 91.5355L114.354 88.3536ZM62 88.5L114 88.5L114 87.5L62 87.5L62 88.5Z" fill="#00EDFF"/>
</g>
<path d="M114.354 88.3536C114.549 88.1583 114.549 87.8417 114.354 87.6465L111.172 84.4645C110.976 84.2692 110.66 84.2692 110.464 84.4645C110.269 84.6597 110.269 84.9763 110.464 85.1716L113.293 88L110.464 90.8284C110.269 91.0237 110.269 91.3403 110.464 91.5355C110.66 91.7308 110.976 91.7308 111.172 91.5355L114.354 88.3536ZM62 88.5L114 88.5L114 87.5L62 87.5L62 88.5Z" fill="#91F7FF"/>
<defs>
<filter id="filter0_f_175_1760" x="0.0728683" y="0.0728683" width="176.854" height="176.854" filterUnits="userSpaceOnUse" color-interpolation-filters="sRGB">
<feFlood flood-opacity="0" result="BackgroundImageFix"/>
<feBlend mode="normal" in="SourceGraphic" in2="BackgroundImageFix" result="shape"/>
<feGaussianBlur stdDeviation="29.9636" result="effect1_foregroundBlur_175_1760"/>
</filter>
<filter id="filter1_f_175_1760" x="48.6829" y="71.0007" width="79.1343" height="33.9985" filterUnits="userSpaceOnUse" color-interpolation-filters="sRGB">
<feFlood flood-opacity="0" result="BackgroundImageFix"/>
<feBlend mode="normal" in="SourceGraphic" in2="BackgroundImageFix" result="shape"/>
<feGaussianBlur stdDeviation="6.65857" result="effect1_foregroundBlur_175_1760"/>
</filter>
<filter id="filter2_f_175_1760" x="54.0097" y="76.3276" width="68.4806" height="23.3448" filterUnits="userSpaceOnUse" color-interpolation-filters="sRGB">
<feFlood flood-opacity="0" result="BackgroundImageFix"/>
<feBlend mode="normal" in="SourceGraphic" in2="BackgroundImageFix" result="shape"/>
<feGaussianBlur stdDeviation="3.99514" result="effect1_foregroundBlur_175_1760"/>
</filter>
<filter id="filter3_f_175_1760" x="56.6731" y="78.991" width="63.1537" height="18.018" filterUnits="userSpaceOnUse" color-interpolation-filters="sRGB">
<feFlood flood-opacity="0" result="BackgroundImageFix"/>
<feBlend mode="normal" in="SourceGraphic" in2="BackgroundImageFix" result="shape"/>
<feGaussianBlur stdDeviation="2.66343" result="effect1_foregroundBlur_175_1760"/>
</filter>
<filter id="filter4_f_175_1760" x="59.3366" y="81.6544" width="57.8269" height="12.6911" filterUnits="userSpaceOnUse" color-interpolation-filters="sRGB">
<feFlood flood-opacity="0" result="BackgroundImageFix"/>
<feBlend mode="normal" in="SourceGraphic" in2="BackgroundImageFix" result="shape"/>
<feGaussianBlur stdDeviation="1.33171" result="effect1_foregroundBlur_175_1760"/>
</filter>
</defs>
</svg>
