<svg width="20" height="31" viewBox="0 0 20 31" fill="none" xmlns="http://www.w3.org/2000/svg">
<path d="M9.07545 11.2204C9.58606 11.731 10.4139 11.731 10.9245 11.2204L19.2455 2.8995C19.7561 2.38889 19.7561 1.56102 19.2455 1.05041C18.7349 0.539798 17.907 0.539797 17.3964 1.05041L10 8.44678L2.60363 1.0504C2.09302 0.539789 1.26515 0.539788 0.754539 1.0504C0.243927 1.56101 0.243926 2.38888 0.754538 2.89949L9.07545 11.2204ZM8.69249 9L8.69249 10.2959L11.3075 10.2959L11.3075 9L8.69249 9Z" fill="url(#paint0_linear_61_77)"/>
<path d="M9.07545 20.5163C9.58606 21.0269 10.4139 21.0269 10.9245 20.5163L19.2455 12.1954C19.7561 11.6848 19.7561 10.8569 19.2455 10.3463C18.7349 9.8357 17.907 9.8357 17.3964 10.3463L10 17.7427L2.60363 10.3463C2.09302 9.83569 1.26515 9.83569 0.754539 10.3463C0.243927 10.8569 0.243926 11.6848 0.754538 12.1954L9.07545 20.5163ZM8.69249 18.2959L8.69249 19.5918L11.3075 19.5918L11.3075 18.2959L8.69249 18.2959Z" fill="#353535"/>
<path d="M9.07545 20.5163C9.58606 21.0269 10.4139 21.0269 10.9245 20.5163L19.2455 12.1954C19.7561 11.6848 19.7561 10.8569 19.2455 10.3463C18.7349 9.8357 17.907 9.8357 17.3964 10.3463L10 17.7427L2.60363 10.3463C2.09302 9.83569 1.26515 9.83569 0.754539 10.3463C0.243927 10.8569 0.243926 11.6848 0.754538 12.1954L9.07545 20.5163ZM8.69249 18.2959L8.69249 19.5918L11.3075 19.5918L11.3075 18.2959L8.69249 18.2959Z" fill="url(#paint1_linear_61_77)"/>
<path d="M9.07545 29.8122C9.58606 30.3228 10.4139 30.3228 10.9245 29.8122L19.2455 21.4912C19.7561 20.9806 19.7561 20.1528 19.2455 19.6421C18.7349 19.1315 17.907 19.1315 17.3964 19.6421L10 27.0385L2.60363 19.6421C2.09302 19.1315 1.26515 19.1315 0.754539 19.6421C0.243927 20.1527 0.243926 20.9806 0.754538 21.4912L9.07545 29.8122ZM8.69249 27.5917L8.69249 28.8876L11.3075 28.8876L11.3075 27.5917L8.69249 27.5917Z" fill="#353535"/>
<path d="M9.07545 29.8122C9.58606 30.3228 10.4139 30.3228 10.9245 29.8122L19.2455 21.4912C19.7561 20.9806 19.7561 20.1528 19.2455 19.6421C18.7349 19.1315 17.907 19.1315 17.3964 19.6421L10 27.0385L2.60363 19.6421C2.09302 19.1315 1.26515 19.1315 0.754539 19.6421C0.243927 20.1527 0.243926 20.9806 0.754538 21.4912L9.07545 29.8122ZM8.69249 27.5917L8.69249 28.8876L11.3075 28.8876L11.3075 27.5917L8.69249 27.5917Z" fill="url(#paint2_linear_61_77)"/>
<defs>
<linearGradient id="paint0_linear_61_77" x1="-1.5" y1="-5" x2="16" y2="10" gradientUnits="userSpaceOnUse">
<stop stop-color="#A0F8FF"/>
<stop offset="1" stop-color="#95BFFA"/>
</linearGradient>
<linearGradient id="paint1_linear_61_77" x1="-1.5" y1="4.2959" x2="20" y2="20" gradientUnits="userSpaceOnUse">
<stop stop-color="#7FF6FF"/>
<stop offset="0.76875" stop-color="#75AAF4"/>
</linearGradient>
<linearGradient id="paint2_linear_61_77" x1="-1.5" y1="13.5917" x2="16" y2="28.5917" gradientUnits="userSpaceOnUse">
<stop stop-color="#AAF9FF"/>
<stop offset="0.633333" stop-color="#4891F8"/>
<stop offset="0.633333" stop-color="#4891F8"/>
</linearGradient>
</defs>
</svg>
