<svg width="18" height="28" viewBox="0 0 18 28" fill="none" xmlns="http://www.w3.org/2000/svg">
<path d="M8.14378 1.14385C8.61666 0.670977 9.38334 0.670977 9.85621 1.14385L17.5622 8.84978C18.035 9.32266 18.035 10.0893 17.5622 10.5622C17.0893 11.0351 16.3226 11.0351 15.8497 10.5622L9 3.7125L2.15028 10.5622C1.67741 11.0351 0.910729 11.0351 0.437854 10.5622C-0.0350206 10.0893 -0.035021 9.32267 0.437853 8.84979L8.14378 1.14385ZM7.78913 3.21094L7.78913 2.00007L10.2109 2.00007L10.2109 3.21094L7.78913 3.21094Z" fill="#353535"/>
<path d="M8.14378 9.01006C8.61666 8.53719 9.38334 8.53719 9.85621 9.01006L17.5622 16.716C18.035 17.1889 18.035 17.9555 17.5622 18.4284C17.0893 18.9013 16.3226 18.9013 15.8497 18.4284L9 11.5787L2.15028 18.4284C1.67741 18.9013 0.910729 18.9013 0.437854 18.4284C-0.0350206 17.9556 -0.035021 17.1889 0.437853 16.716L8.14378 9.01006ZM7.78913 11.0771L7.78913 9.86628L10.2109 9.86628L10.2109 11.0771L7.78913 11.0771Z" fill="#353535"/>
<path d="M8.14378 18.0101C8.61666 17.5372 9.38334 17.5372 9.85621 18.0101L17.5622 25.716C18.035 26.1889 18.035 26.9555 17.5622 27.4284C17.0893 27.9013 16.3226 27.9013 15.8497 27.4284L9 20.5787L2.15028 27.4284C1.67741 27.9013 0.910729 27.9013 0.437854 27.4284C-0.0350206 26.9556 -0.035021 26.1889 0.437853 25.716L8.14378 18.0101ZM7.78913 20.0771L7.78913 18.8663L10.2109 18.8663L10.2109 20.0771L7.78913 20.0771Z" fill="#353535"/>
</svg>
