<svg width="46" height="46" viewBox="0 0 46 46" fill="none" xmlns="http://www.w3.org/2000/svg">
<g filter="url(#filter0_f_1111_866)">
<circle cx="22.7308" cy="22.9083" r="7.26989" fill="#007BD3"/>
</g>
<g filter="url(#filter1_f_1111_866)">
<path d="M28.5494 23.9449C28.6814 23.8129 28.6814 23.5988 28.5494 23.4667L26.3975 21.3148C26.2655 21.1828 26.0514 21.1828 25.9193 21.3148C25.7873 21.4469 25.7873 21.661 25.9193 21.793L27.8321 23.7058L25.9193 25.6186C25.7873 25.7506 25.7873 25.9647 25.9193 26.0968C26.0514 26.2288 26.2655 26.2288 26.3975 26.0968L28.5494 23.9449ZM15.123 24.0439L28.3103 24.0439L28.3103 23.3677L15.123 23.3677L15.123 24.0439Z" fill="#00EDFF"/>
</g>
<g filter="url(#filter2_f_1111_866)">
<path d="M28.5494 23.9449C28.6814 23.8129 28.6814 23.5988 28.5494 23.4667L26.3975 21.3148C26.2655 21.1828 26.0514 21.1828 25.9193 21.3148C25.7873 21.4469 25.7873 21.661 25.9193 21.793L27.8321 23.7058L25.9193 25.6186C25.7873 25.7506 25.7873 25.9647 25.9193 26.0968C26.0514 26.2288 26.2655 26.2288 26.3975 26.0968L28.5494 23.9449ZM15.123 24.0439L28.3103 24.0439L28.3103 23.3677L15.123 23.3677L15.123 24.0439Z" fill="#00EDFF"/>
</g>
<g filter="url(#filter3_f_1111_866)">
<path d="M28.5494 23.9449C28.6814 23.8129 28.6814 23.5988 28.5494 23.4667L26.3975 21.3148C26.2655 21.1828 26.0514 21.1828 25.9193 21.3148C25.7873 21.4469 25.7873 21.661 25.9193 21.793L27.8321 23.7058L25.9193 25.6186C25.7873 25.7506 25.7873 25.9647 25.9193 26.0968C26.0514 26.2288 26.2655 26.2288 26.3975 26.0968L28.5494 23.9449ZM15.123 24.0439L28.3103 24.0439L28.3103 23.3677L15.123 23.3677L15.123 24.0439Z" fill="#00EDFF"/>
</g>
<g filter="url(#filter4_f_1111_866)">
<path d="M28.5494 23.9449C28.6814 23.8129 28.6814 23.5988 28.5494 23.4667L26.3975 21.3148C26.2655 21.1828 26.0514 21.1828 25.9193 21.3148C25.7873 21.4469 25.7873 21.661 25.9193 21.793L27.8321 23.7058L25.9193 25.6186C25.7873 25.7506 25.7873 25.9647 25.9193 26.0968C26.0514 26.2288 26.2655 26.2288 26.3975 26.0968L28.5494 23.9449ZM15.123 24.0439L28.3103 24.0439L28.3103 23.3677L15.123 23.3677L15.123 24.0439Z" fill="#00EDFF"/>
</g>
<path d="M28.5494 23.9449C28.6814 23.8129 28.6814 23.5988 28.5494 23.4667L26.3975 21.3148C26.2655 21.1828 26.0514 21.1828 25.9193 21.3148C25.7873 21.4469 25.7873 21.661 25.9193 21.793L27.8321 23.7058L25.9193 25.6186C25.7873 25.7506 25.7873 25.9647 25.9193 26.0968C26.0514 26.2288 26.2655 26.2288 26.3975 26.0968L28.5494 23.9449ZM15.123 24.0439L28.3103 24.0439L28.3103 23.3677L15.123 23.3677L15.123 24.0439Z" fill="#91F7FF"/>
<defs>
<filter id="filter0_f_1111_866" x="0.244886" y="0.422377" width="44.9712" height="44.9719" filterUnits="userSpaceOnUse" color-interpolation-filters="sRGB">
<feFlood flood-opacity="0" result="BackgroundImageFix"/>
<feBlend mode="normal" in="SourceGraphic" in2="BackgroundImageFix" result="shape"/>
<feGaussianBlur stdDeviation="7.60803" result="effect1_foregroundBlur_1111_866"/>
</filter>
<filter id="filter1_f_1111_866" x="11.7417" y="17.8345" width="20.2881" height="11.7427" filterUnits="userSpaceOnUse" color-interpolation-filters="sRGB">
<feFlood flood-opacity="0" result="BackgroundImageFix"/>
<feBlend mode="normal" in="SourceGraphic" in2="BackgroundImageFix" result="shape"/>
<feGaussianBlur stdDeviation="1.69067" result="effect1_foregroundBlur_1111_866"/>
</filter>
<filter id="filter2_f_1111_866" x="13.0942" y="19.187" width="17.583" height="9.03759" filterUnits="userSpaceOnUse" color-interpolation-filters="sRGB">
<feFlood flood-opacity="0" result="BackgroundImageFix"/>
<feBlend mode="normal" in="SourceGraphic" in2="BackgroundImageFix" result="shape"/>
<feGaussianBlur stdDeviation="1.0144" result="effect1_foregroundBlur_1111_866"/>
</filter>
<filter id="filter3_f_1111_866" x="13.7705" y="19.8633" width="16.2305" height="7.68506" filterUnits="userSpaceOnUse" color-interpolation-filters="sRGB">
<feFlood flood-opacity="0" result="BackgroundImageFix"/>
<feBlend mode="normal" in="SourceGraphic" in2="BackgroundImageFix" result="shape"/>
<feGaussianBlur stdDeviation="0.676269" result="effect1_foregroundBlur_1111_866"/>
</filter>
<filter id="filter4_f_1111_866" x="14.4468" y="20.5396" width="14.8779" height="6.33252" filterUnits="userSpaceOnUse" color-interpolation-filters="sRGB">
<feFlood flood-opacity="0" result="BackgroundImageFix"/>
<feBlend mode="normal" in="SourceGraphic" in2="BackgroundImageFix" result="shape"/>
<feGaussianBlur stdDeviation="0.338134" result="effect1_foregroundBlur_1111_866"/>
</filter>
</defs>
</svg>
