<svg width="46" height="46" viewBox="0 0 46 46" fill="none" xmlns="http://www.w3.org/2000/svg">
<g filter="url(#filter0_f_1111_873)">
<circle cx="7.26989" cy="7.26989" r="7.26989" transform="matrix(-1 0 0 1 29.998 15.6055)" fill="#007BD3"/>
</g>
<g filter="url(#filter1_f_1111_873)">
<path d="M16.9115 22.9449C16.7795 22.8129 16.7795 22.5988 16.9115 22.4667L19.0634 20.3148C19.1955 20.1828 19.4096 20.1828 19.5416 20.3148C19.6737 20.4469 19.6737 20.661 19.5416 20.793L17.6288 22.7058L19.5416 24.6186C19.6737 24.7506 19.6737 24.9647 19.5416 25.0968C19.4096 25.2288 19.1955 25.2288 19.0634 25.0968L16.9115 22.9449ZM30.3379 23.0439L17.1506 23.0439L17.1506 22.3677L30.3379 22.3677L30.3379 23.0439Z" fill="#00EDFF"/>
</g>
<g filter="url(#filter2_f_1111_873)">
<path d="M16.9115 22.9449C16.7795 22.8129 16.7795 22.5988 16.9115 22.4667L19.0634 20.3148C19.1955 20.1828 19.4096 20.1828 19.5416 20.3148C19.6737 20.4469 19.6737 20.661 19.5416 20.793L17.6288 22.7058L19.5416 24.6186C19.6737 24.7506 19.6737 24.9647 19.5416 25.0968C19.4096 25.2288 19.1955 25.2288 19.0634 25.0968L16.9115 22.9449ZM30.3379 23.0439L17.1506 23.0439L17.1506 22.3677L30.3379 22.3677L30.3379 23.0439Z" fill="#00EDFF"/>
</g>
<g filter="url(#filter3_f_1111_873)">
<path d="M16.9115 22.9449C16.7795 22.8129 16.7795 22.5988 16.9115 22.4667L19.0634 20.3148C19.1955 20.1828 19.4096 20.1828 19.5416 20.3148C19.6737 20.4469 19.6737 20.661 19.5416 20.793L17.6288 22.7058L19.5416 24.6186C19.6737 24.7506 19.6737 24.9647 19.5416 25.0968C19.4096 25.2288 19.1955 25.2288 19.0634 25.0968L16.9115 22.9449ZM30.3379 23.0439L17.1506 23.0439L17.1506 22.3677L30.3379 22.3677L30.3379 23.0439Z" fill="#00EDFF"/>
</g>
<g filter="url(#filter4_f_1111_873)">
<path d="M16.9115 22.9449C16.7795 22.8129 16.7795 22.5988 16.9115 22.4667L19.0634 20.3148C19.1955 20.1828 19.4096 20.1828 19.5416 20.3148C19.6737 20.4469 19.6737 20.661 19.5416 20.793L17.6288 22.7058L19.5416 24.6186C19.6737 24.7506 19.6737 24.9647 19.5416 25.0968C19.4096 25.2288 19.1955 25.2288 19.0634 25.0968L16.9115 22.9449ZM30.3379 23.0439L17.1506 23.0439L17.1506 22.3677L30.3379 22.3677L30.3379 23.0439Z" fill="#00EDFF"/>
</g>
<path d="M16.9115 22.9449C16.7795 22.8129 16.7795 22.5988 16.9115 22.4667L19.0634 20.3148C19.1955 20.1828 19.4096 20.1828 19.5416 20.3148C19.6737 20.4469 19.6737 20.661 19.5416 20.793L17.6288 22.7058L19.5416 24.6186C19.6737 24.7506 19.6737 24.9647 19.5416 25.0968C19.4096 25.2288 19.1955 25.2288 19.0634 25.0968L16.9115 22.9449ZM30.3379 23.0439L17.1506 23.0439L17.1506 22.3677L30.3379 22.3677L30.3379 23.0439Z" fill="#91F7FF"/>
<defs>
<filter id="filter0_f_1111_873" x="0.242933" y="0.389418" width="44.9712" height="44.9719" filterUnits="userSpaceOnUse" color-interpolation-filters="sRGB">
<feFlood flood-opacity="0" result="BackgroundImageFix"/>
<feBlend mode="normal" in="SourceGraphic" in2="BackgroundImageFix" result="shape"/>
<feGaussianBlur stdDeviation="7.60803" result="effect1_foregroundBlur_1111_873"/>
</filter>
<filter id="filter1_f_1111_873" x="13.4312" y="16.8345" width="20.2881" height="11.7427" filterUnits="userSpaceOnUse" color-interpolation-filters="sRGB">
<feFlood flood-opacity="0" result="BackgroundImageFix"/>
<feBlend mode="normal" in="SourceGraphic" in2="BackgroundImageFix" result="shape"/>
<feGaussianBlur stdDeviation="1.69067" result="effect1_foregroundBlur_1111_873"/>
</filter>
<filter id="filter2_f_1111_873" x="14.7837" y="18.187" width="17.583" height="9.03759" filterUnits="userSpaceOnUse" color-interpolation-filters="sRGB">
<feFlood flood-opacity="0" result="BackgroundImageFix"/>
<feBlend mode="normal" in="SourceGraphic" in2="BackgroundImageFix" result="shape"/>
<feGaussianBlur stdDeviation="1.0144" result="effect1_foregroundBlur_1111_873"/>
</filter>
<filter id="filter3_f_1111_873" x="15.46" y="18.8633" width="16.2305" height="7.68506" filterUnits="userSpaceOnUse" color-interpolation-filters="sRGB">
<feFlood flood-opacity="0" result="BackgroundImageFix"/>
<feBlend mode="normal" in="SourceGraphic" in2="BackgroundImageFix" result="shape"/>
<feGaussianBlur stdDeviation="0.676269" result="effect1_foregroundBlur_1111_873"/>
</filter>
<filter id="filter4_f_1111_873" x="16.1362" y="19.5396" width="14.8779" height="6.33252" filterUnits="userSpaceOnUse" color-interpolation-filters="sRGB">
<feFlood flood-opacity="0" result="BackgroundImageFix"/>
<feBlend mode="normal" in="SourceGraphic" in2="BackgroundImageFix" result="shape"/>
<feGaussianBlur stdDeviation="0.338134" result="effect1_foregroundBlur_1111_873"/>
</filter>
</defs>
</svg>
