<svg width="91" height="91" viewBox="0 0 91 91" fill="none" xmlns="http://www.w3.org/2000/svg">
<g filter="url(#filter0_f_0_5836)">
<circle cx="45.5" cy="45.5" r="14.5" fill="#007BD3"/>
</g>
<g filter="url(#filter1_f_0_5836)">
<path d="M32.2971 45.401C32.1654 45.2694 32.1654 45.0558 32.2971 44.9242L34.4431 42.7782C34.5748 42.6465 34.7883 42.6465 34.92 42.7782C35.0517 42.9099 35.0517 43.1234 34.92 43.2551L33.0125 45.1626L34.92 47.0701C35.0517 47.2018 35.0517 47.4153 34.92 47.547C34.7883 47.6787 34.5748 47.6787 34.4431 47.547L32.2971 45.401ZM58.8379 45.4998L32.5356 45.4998L32.5356 44.8254L58.8379 44.8254L58.8379 45.4998Z" fill="#00EDFF"/>
</g>
<g filter="url(#filter2_f_0_5836)">
<path d="M32.2971 45.401C32.1654 45.2694 32.1654 45.0558 32.2971 44.9242L34.4431 42.7782C34.5748 42.6465 34.7883 42.6465 34.92 42.7782C35.0517 42.9099 35.0517 43.1234 34.92 43.2551L33.0125 45.1626L34.92 47.0701C35.0517 47.2018 35.0517 47.4153 34.92 47.547C34.7883 47.6787 34.5748 47.6787 34.4431 47.547L32.2971 45.401ZM58.8379 45.4998L32.5356 45.4998L32.5356 44.8254L58.8379 44.8254L58.8379 45.4998Z" fill="#00EDFF"/>
</g>
<g filter="url(#filter3_f_0_5836)">
<path d="M32.2971 45.401C32.1654 45.2694 32.1654 45.0558 32.2971 44.9242L34.4431 42.7782C34.5748 42.6465 34.7883 42.6465 34.92 42.7782C35.0517 42.9099 35.0517 43.1234 34.92 43.2551L33.0125 45.1626L34.92 47.0701C35.0517 47.2018 35.0517 47.4153 34.92 47.547C34.7883 47.6787 34.5748 47.6787 34.4431 47.547L32.2971 45.401ZM58.8379 45.4998L32.5356 45.4998L32.5356 44.8254L58.8379 44.8254L58.8379 45.4998Z" fill="#00EDFF"/>
</g>
<g filter="url(#filter4_f_0_5836)">
<path d="M32.2971 45.401C32.1654 45.2694 32.1654 45.0558 32.2971 44.9242L34.4431 42.7782C34.5748 42.6465 34.7883 42.6465 34.92 42.7782C35.0517 42.9099 35.0517 43.1234 34.92 43.2551L33.0125 45.1626L34.92 47.0701C35.0517 47.2018 35.0517 47.4153 34.92 47.547C34.7883 47.6787 34.5748 47.6787 34.4431 47.547L32.2971 45.401ZM58.8379 45.4998L32.5356 45.4998L32.5356 44.8254L58.8379 44.8254L58.8379 45.4998Z" fill="#00EDFF"/>
</g>
<path d="M32.2971 45.401C32.1654 45.2694 32.1654 45.0558 32.2971 44.9242L34.4431 42.7782C34.5748 42.6465 34.7883 42.6465 34.92 42.7782C35.0517 42.9099 35.0517 43.1234 34.92 43.2551L33.0125 45.1626L34.92 47.0701C35.0517 47.2018 35.0517 47.4153 34.92 47.547C34.7883 47.6787 34.5748 47.6787 34.4431 47.547L32.2971 45.401ZM58.8379 45.4998L32.5356 45.4998L32.5356 44.8254L58.8379 44.8254L58.8379 45.4998Z" fill="#91F7FF"/>
<defs>
<filter id="filter0_f_0_5836" x="0.651165" y="0.651165" width="89.6977" height="89.6977" filterUnits="userSpaceOnUse" color-interpolation-filters="sRGB">
<feFlood flood-opacity="0" result="BackgroundImageFix"/>
<feBlend mode="normal" in="SourceGraphic" in2="BackgroundImageFix" result="shape"/>
<feGaussianBlur stdDeviation="15.1744" result="effect1_foregroundBlur_0_5836"/>
</filter>
<filter id="filter1_f_0_5836" x="25.455" y="35.9352" width="40.127" height="18.4548" filterUnits="userSpaceOnUse" color-interpolation-filters="sRGB">
<feFlood flood-opacity="0" result="BackgroundImageFix"/>
<feBlend mode="normal" in="SourceGraphic" in2="BackgroundImageFix" result="shape"/>
<feGaussianBlur stdDeviation="3.37209" result="effect1_foregroundBlur_0_5836"/>
</filter>
<filter id="filter2_f_0_5836" x="28.1527" y="38.6329" width="34.7317" height="13.0594" filterUnits="userSpaceOnUse" color-interpolation-filters="sRGB">
<feFlood flood-opacity="0" result="BackgroundImageFix"/>
<feBlend mode="normal" in="SourceGraphic" in2="BackgroundImageFix" result="shape"/>
<feGaussianBlur stdDeviation="2.02326" result="effect1_foregroundBlur_0_5836"/>
</filter>
<filter id="filter3_f_0_5836" x="29.5015" y="39.9817" width="32.034" height="10.3617" filterUnits="userSpaceOnUse" color-interpolation-filters="sRGB">
<feFlood flood-opacity="0" result="BackgroundImageFix"/>
<feBlend mode="normal" in="SourceGraphic" in2="BackgroundImageFix" result="shape"/>
<feGaussianBlur stdDeviation="1.34884" result="effect1_foregroundBlur_0_5836"/>
</filter>
<filter id="filter4_f_0_5836" x="30.8504" y="41.3306" width="29.3363" height="7.66407" filterUnits="userSpaceOnUse" color-interpolation-filters="sRGB">
<feFlood flood-opacity="0" result="BackgroundImageFix"/>
<feBlend mode="normal" in="SourceGraphic" in2="BackgroundImageFix" result="shape"/>
<feGaussianBlur stdDeviation="0.674419" result="effect1_foregroundBlur_0_5836"/>
</filter>
</defs>
</svg>
