<svg width="24" height="24" viewBox="0 0 24 24" fill="none" xmlns="http://www.w3.org/2000/svg">
<path d="M6 8.4986C6 8.22323 6.22104 8 6.49371 8H13.5063C13.7789 8 14 8.22323 14 8.4986C14 8.77398 13.7789 8.99721 13.5063 8.99721H6.49371C6.22104 8.99721 6 8.77398 6 8.4986ZM6.49371 10.6708C6.22104 10.6708 6 10.894 6 11.1694C6 11.4448 6.22104 11.668 6.49371 11.668H13.5063C13.7789 11.668 14 11.4448 14 11.1694C14 10.894 13.7789 10.6708 13.5063 10.6708H6.49371ZM6 13.84C6 13.5647 6.22104 13.3414 6.49371 13.3414H13.5063C13.7789 13.3414 14 13.5647 14 13.84C14 14.1155 13.7789 14.3386 13.5063 14.3386H6.49371C6.22104 14.3386 6 14.1155 6 13.84ZM6.49371 16.0028C6.22104 16.0028 6 16.2261 6 16.5014C6 16.7768 6.22104 17 6.49371 17H13.5063C13.7789 17 14 16.7768 14 16.5014C14 16.2261 13.7789 16.0028 13.5063 16.0028H6.49371Z" fill="#BDBDBD"/>
<path d="M7.99769 1.01108H8.35245C8.38389 1.00461 8.41643 1.0012 8.44977 1.0012C8.4831 1.0012 8.51565 1.00461 8.54708 1.01108H15.4422C16.3005 1.01108 17 1.718 17 2.58365V17.4274C17 18.293 16.3005 19 15.4422 19H5.55786C4.69955 19 4 18.293 4 17.4274V4.88886C4 4.86778 4.00131 4.84699 4.0039 4.82662C4.01446 4.57343 4.11365 4.31859 4.32086 4.10936L7.09154 1.31185C7.35219 1.05495 7.68601 0.9664 7.99769 1.01108ZM5.00489 4.79889L7.76868 2.00826C7.79005 1.98771 7.80966 1.97996 7.82708 1.97703C7.84737 1.97362 7.87168 1.97591 7.89571 1.98595C7.91962 1.99594 7.93725 2.0111 7.9481 2.02664C7.9564 2.03853 7.96465 2.05586 7.9663 2.08408V3.68571C7.9663 3.69157 7.96639 3.6974 7.9666 3.7032V4.58072C7.9666 4.80892 7.77979 4.99696 7.55475 4.99696H5.08367C5.05357 4.99696 5.03514 4.98873 5.02184 4.97919C5.00629 4.96808 4.99095 4.94981 4.98091 4.92537C4.97087 4.90093 4.96892 4.87701 4.97221 4.85778C4.97502 4.84128 4.98252 4.82148 5.00487 4.79891L5.00489 4.79889ZM8.93325 1.98661V2.0672C8.93346 2.07633 8.93355 2.08549 8.93355 2.09469V4.5807C8.93355 5.34691 8.31458 5.97247 7.55477 5.97247L4.96697 5.97253V17.4274C4.96697 17.755 5.23437 18.0245 5.55788 18.0245H15.4422C15.7657 18.0245 16.0331 17.755 16.0331 17.4274V2.58365C16.0331 2.25601 15.7657 1.98661 15.4422 1.98661H8.93325Z" fill="#BDBDBD"/>
<path d="M17.7976 3.00002C17.5305 3.00002 17.3141 3.22401 17.3141 3.50032C17.3141 3.77663 17.5305 4.00062 17.7976 4.00062H18.4421C18.7657 4.00062 19.033 4.27695 19.033 4.61301V21.387C19.033 21.7231 18.7657 21.9994 18.4421 21.9994H8.55784C8.23433 21.9994 7.96693 21.723 7.96693 21.387V20.7286C7.96693 20.4523 7.75048 20.2283 7.48346 20.2283C7.21645 20.2283 7 20.4523 7 20.7286V21.387C7 22.2749 7.69955 23 8.55786 23H18.4422C19.3005 23 20 22.275 20 21.387V4.61301C20 3.72511 19.3005 3 18.4422 3H17.7976L17.7976 3.00002Z" fill="#BDBDBD"/>
</svg>
