<svg width="500" height="500" viewBox="0 0 500 500" fill="none" xmlns="http://www.w3.org/2000/svg">
<path d="M102.7 400.3L252.7 250.3L402.7 100.3" stroke="url(#paint0_linear_61_41)" stroke-width="4" stroke-miterlimit="10" stroke-linecap="round"/>
<path d="M402.7 400.3L252.7 250.3L102.7 100.3" stroke="url(#paint1_linear_61_41)" stroke-width="4" stroke-miterlimit="10" stroke-linecap="round"/>
<path opacity="0.7" d="M252.7 480.3C379.726 480.3 482.7 377.325 482.7 250.3C482.7 123.275 379.726 20.3 252.7 20.3C125.675 20.3 22.7002 123.275 22.7002 250.3C22.7002 377.325 125.675 480.3 252.7 480.3Z" stroke="#6ADDE2" stroke-width="7" stroke-miterlimit="10"/>
<path d="M252.7 480.3C379.726 480.3 482.7 377.325 482.7 250.3C482.7 123.275 379.726 20.3 252.7 20.3C125.675 20.3 22.7002 123.275 22.7002 250.3C22.7002 377.325 125.675 480.3 252.7 480.3Z" stroke="url(#paint2_linear_61_41)" stroke-width="3" stroke-miterlimit="10"/>
<defs>
<linearGradient id="paint0_linear_61_41" x1="100.667" y1="250.333" x2="404.667" y2="250.333" gradientUnits="userSpaceOnUse">
<stop offset="0.00558659" stop-color="#00D7E7"/>
<stop offset="0.4494" stop-color="#02D5E9"/>
<stop offset="0.7107" stop-color="#08CCEF"/>
<stop offset="0.924" stop-color="#12BEFA"/>
<stop offset="1" stop-color="#17B7FF"/>
</linearGradient>
<linearGradient id="paint1_linear_61_41" x1="100.667" y1="250.333" x2="404.667" y2="250.333" gradientUnits="userSpaceOnUse">
<stop offset="0.00558659" stop-color="#00D7E7"/>
<stop offset="0.4494" stop-color="#02D5E9"/>
<stop offset="0.7107" stop-color="#08CCEF"/>
<stop offset="0.924" stop-color="#12BEFA"/>
<stop offset="1" stop-color="#17B7FF"/>
</linearGradient>
<linearGradient id="paint2_linear_61_41" x1="21.1669" y1="250.333" x2="484.167" y2="250.333" gradientUnits="userSpaceOnUse">
<stop offset="0.00558659" stop-color="#00D7E7"/>
<stop offset="0.407" stop-color="#01D5E8"/>
<stop offset="0.6432" stop-color="#06CCED"/>
<stop offset="0.8361" stop-color="#0DBEF4"/>
<stop offset="1" stop-color="#17ABFE"/>
</linearGradient>
</defs>
</svg>
