<svg width="132" height="26" viewBox="0 0 132 26" fill="none" xmlns="http://www.w3.org/2000/svg">
<path d="M102.772 12.7493C104.983 11.5913 105.752 9.78889 105.031 7.74708C104.729 6.93282 104.174 6.23261 103.446 5.7452C102.718 5.2578 101.853 5.0078 100.973 5.03047C98.1217 5.03047 95.2703 5.03047 92.4189 5C91.8972 5 91.9768 5.26121 91.9768 5.57466V17.5338C91.9768 18.5482 91.9768 19.5582 91.9768 20.5813C91.9768 20.8991 92.0608 21.0167 92.4189 21.0167C95.5134 20.9557 98.5814 21.1342 101.663 20.9122C102.615 20.8706 103.523 20.5051 104.233 19.878C104.942 19.2508 105.409 18.4009 105.553 17.4729C105.823 15.2308 104.859 13.5286 102.772 12.7493ZM95.5002 8.35222C95.5002 8.10407 95.5311 7.97346 95.8361 7.98217C97.2287 7.98217 98.6256 7.98217 100.018 7.98217C100.457 8.0131 100.866 8.20984 101.16 8.53121C101.455 8.85258 101.611 9.27366 101.598 9.70629C101.584 10.1389 101.401 10.5495 101.087 10.8522C100.772 11.1549 100.352 11.3261 99.9121 11.33C99.2622 11.33 98.5858 11.33 97.9492 11.33C97.3127 11.33 96.5567 11.33 95.8538 11.33C95.5842 11.33 95.4913 11.2691 95.5002 10.9905C95.5149 10.1198 95.5149 9.24035 95.5002 8.35222ZM101.866 16.8199C101.757 17.1482 101.543 17.4331 101.256 17.6323C100.97 17.8315 100.625 17.9344 100.275 17.9257C99.5363 17.9561 96.6672 17.9257 95.9732 17.9561C95.5532 17.9823 95.4825 17.8342 95.4913 17.4729C95.5178 16.5586 95.5134 15.6531 95.4913 14.7476C95.4913 14.4602 95.5134 14.3122 95.8848 14.3122C97.211 14.3122 98.5903 14.3122 99.943 14.3122C101.446 14.3645 102.33 15.5399 101.866 16.8199Z" fill="white"/>
<path d="M41.5113 7.77736C40.5697 5.94887 38.8898 5.20442 36.8873 5.16524C34.4558 5.10864 32.0244 5.16524 29.6019 5.13477C29.067 5.13477 28.9918 5.30455 29.0007 5.75732C29.0007 8.21707 29.0007 10.6725 29.0007 13.1322C29.0007 15.592 29.0007 18.1301 29.0007 20.629C29.0007 20.9904 29.0625 21.1427 29.4781 21.1297C30.318 21.0948 31.1668 21.0948 32.0156 21.1297C32.4356 21.1297 32.5461 21.0078 32.5417 20.6029C32.5417 19.0966 32.5417 17.5859 32.5417 16.0796C32.5417 15.5833 32.6212 15.4091 33.1738 15.4265C34.5 15.4744 35.8263 15.4875 37.1525 15.4265C37.9579 15.4333 38.7523 15.2417 39.4634 14.8692C40.1744 14.4966 40.7797 13.9549 41.224 13.2933C41.788 12.4912 42.1137 11.55 42.1645 10.5756C42.2152 9.60118 41.989 8.63214 41.5113 7.77736ZM36.9005 12.3225C35.5433 12.5532 34.1641 12.3834 32.7936 12.4182C32.5461 12.4182 32.5372 12.2746 32.5372 12.0917C32.5372 10.8945 32.5372 9.69727 32.5372 8.50005C32.5372 8.23013 32.6743 8.21271 32.8865 8.21271H34.7299C35.3621 8.21271 35.9943 8.17789 36.6264 8.21271C37.1241 8.25675 37.5895 8.47413 37.9391 8.82579C38.2886 9.17745 38.4994 9.64033 38.5335 10.1313C38.5676 10.6222 38.4228 11.1091 38.1251 11.5043C37.8274 11.8995 37.3963 12.1773 36.9094 12.2876L36.9005 12.3225Z" fill="white"/>
<path d="M79.3526 15.9055C79.3526 13.3674 79.3791 11.0208 79.3526 8.67425C79.3526 8.06911 79.4985 7.88626 80.1129 7.94286C80.7664 7.98857 81.4223 7.98857 82.0758 7.94286C82.5178 7.91673 82.6372 8.04299 82.6372 8.4827C82.6151 11.1906 82.6372 13.8985 82.6372 16.6064C82.6372 17.9473 82.6372 19.2925 82.6372 20.6334C82.6372 21.0122 82.5267 21.1689 82.1377 21.1167C81.9697 21.0949 80.0024 21.3082 79.388 21.0122C78.7735 20.7161 78.411 19.9151 77.938 19.3317C76.4025 17.4423 74.867 15.5557 73.3315 13.6721C73.2343 13.5502 73.1238 13.437 72.916 13.2063V15.1828C72.916 16.9808 72.916 18.7788 72.916 20.5768C72.916 21.0122 72.801 21.1558 72.3501 21.1341C71.5898 21.0992 70.8294 21.1341 70.069 21.1341C69.7507 21.1341 69.627 21.0731 69.627 20.7292C69.627 16.5962 69.627 12.4633 69.627 8.33032C69.627 8.01251 69.7331 7.95156 70.0248 7.95592C70.8736 7.95592 71.718 7.98639 72.5623 7.95592C72.9469 7.95592 73.0663 8.20407 73.2431 8.41739L78.8796 15.3482C78.9812 15.4788 79.105 15.6181 79.3526 15.9055Z" fill="white"/>
<path d="M123.587 13.4805C124.497 13.4805 125.408 13.4805 126.314 13.4805C126.677 13.4805 126.845 13.5371 126.84 13.9463C126.818 15.4353 126.84 16.9242 126.84 18.4131C126.849 18.5038 126.838 18.5951 126.808 18.6814C126.778 18.7676 126.731 18.8467 126.668 18.9137C123.242 22.4619 116.942 21.8654 114.573 17.9908C112.203 14.1161 113.95 8.413 119.692 7.6163C122.345 7.25931 124.555 7.94281 126.323 9.96286C126.602 10.285 126.575 10.4287 126.186 10.6202C125.55 10.9381 124.944 11.3125 124.334 11.6738C124.091 11.8131 123.949 11.8654 123.706 11.6041C123.184 11.0126 122.484 10.6013 121.707 10.4305C120.931 10.2597 120.119 10.3384 119.391 10.6551C118.666 10.9421 118.046 11.4391 117.614 12.0804C117.181 12.7216 116.956 13.477 116.969 14.2467C116.969 16.4235 118.127 17.969 120.183 18.3739C120.721 18.4867 121.278 18.4856 121.816 18.3708C122.354 18.2559 122.861 18.03 123.304 17.7078C123.534 17.5424 123.715 16.4017 123.538 16.2276C123.361 16.0535 123.264 16.1623 123.123 16.1623C122.384 16.1623 121.642 16.1623 120.912 16.1623C120.545 16.1623 120.377 16.1101 120.404 15.6965C120.44 15.1165 120.44 14.535 120.404 13.955C120.404 13.585 120.479 13.45 120.89 13.4631C121.77 13.5023 122.681 13.4805 123.587 13.4805Z" fill="white"/>
<path d="M68.7018 20.9293C66.96 16.7238 65.2094 12.5226 63.4809 8.30403C63.4458 8.18743 63.3681 8.08775 63.2628 8.02424C63.1575 7.96072 63.032 7.93788 62.9106 7.96011C61.916 7.96011 60.9213 7.99058 59.9266 7.96011C59.7447 7.93176 59.5585 7.97141 59.4048 8.0713C59.251 8.17118 59.1407 8.32407 59.0955 8.49994C57.6367 12.0655 56.1513 15.6223 54.6748 19.1835C54.3677 19.8097 54.1205 20.4626 53.9365 21.1339H56.1469C57.566 21.1339 57.5659 21.1339 58.0876 19.7974C58.1497 19.669 58.2029 19.5367 58.2467 19.4012C58.3263 19.0616 58.5164 18.9659 58.8789 18.9659C59.9797 18.992 63.6533 18.7308 64.1529 19.0878C64.5949 19.4012 64.6789 20.1718 64.9176 20.7377C64.9369 20.7751 64.9518 20.8146 64.9618 20.8553C64.9939 20.9517 65.0592 21.034 65.1464 21.0881C65.2335 21.1421 65.3371 21.1645 65.4393 21.1513C66.5135 21.1513 67.5966 21.1513 68.693 21.1513C68.7047 21.0779 68.7076 21.0034 68.7018 20.9293ZM59.374 16.1883C60.0195 14.5557 60.6516 12.9667 61.3192 11.2819C61.9867 12.9623 62.6189 14.5644 63.2687 16.1883H59.374Z" fill="white"/>
<path d="M44.1177 14.5082C44.1177 12.5012 44.1177 10.4985 44.1177 8.49592C44.1177 8.06056 44.2238 7.92125 44.6747 7.94737C45.4351 7.9822 46.1955 7.9822 46.9558 7.94737C47.3714 7.94737 47.4333 8.07798 47.4288 8.43932C47.4288 11.539 47.4288 14.6344 47.4288 17.7341C47.4288 18.1695 47.5084 18.3262 48.0035 18.3175C49.6304 18.2827 51.2572 18.3175 52.8663 18.2957C53.2554 18.2957 53.3836 18.3959 53.3659 18.779C53.3349 19.4189 53.3438 20.0589 53.3659 20.6989C53.3659 21.0254 53.2598 21.1342 52.9238 21.1342C50.1343 21.1342 47.3448 21.1342 44.5554 21.1342C44.1531 21.1342 44.1133 20.9688 44.1133 20.651C44.1221 18.5961 44.1177 16.5761 44.1177 14.5082Z" fill="white"/>
<path d="M111.246 14.5823C111.246 16.585 111.246 18.5876 111.246 20.5902C111.246 21.0256 111.118 21.1475 110.68 21.1257C109.92 21.0909 109.159 21.1257 108.399 21.1257C108.076 21.1257 107.957 21.043 107.957 20.6904C107.957 16.5864 107.957 12.4796 107.957 8.36984C107.957 7.98237 108.121 7.93448 108.448 7.93448C109.208 7.93448 109.968 7.9606 110.729 7.93448C111.144 7.91271 111.25 8.03897 111.246 8.43949C111.237 10.4813 111.246 12.5405 111.246 14.5823Z" fill="white"/>
<g filter="url(#filter0_f_1_3722)">
<path d="M7.25 6.13878L20 13.5L7.25 20.8612L7.25 6.13878Z" stroke="url(#paint0_linear_1_3722)"/>
<path d="M7.25 6.13878L20 13.5L7.25 20.8612L7.25 6.13878Z" stroke="url(#paint1_linear_1_3722)"/>
<path d="M7.25 6.13878L20 13.5L7.25 20.8612L7.25 6.13878Z" stroke="url(#paint2_linear_1_3722)"/>
<path d="M7.25 6.13878L20 13.5L7.25 20.8612L7.25 6.13878Z" stroke="url(#paint3_linear_1_3722)"/>
<path d="M7.25 6.13878L20 13.5L7.25 20.8612L7.25 6.13878Z" stroke="url(#paint4_linear_1_3722)"/>
</g>
<g filter="url(#filter1_f_1_3722)">
<path d="M7.25 6.13878L20 13.5L7.25 20.8612L7.25 6.13878Z" stroke="url(#paint5_linear_1_3722)"/>
</g>
<g filter="url(#filter2_f_1_3722)">
<path d="M7.25 6.13878L20 13.5L7.25 20.8612L7.25 6.13878Z" stroke="url(#paint6_linear_1_3722)"/>
<path d="M7.25 6.13878L20 13.5L7.25 20.8612L7.25 6.13878Z" stroke="url(#paint7_linear_1_3722)"/>
<path d="M7.25 6.13878L20 13.5L7.25 20.8612L7.25 6.13878Z" stroke="url(#paint8_linear_1_3722)"/>
<path d="M7.25 6.13878L20 13.5L7.25 20.8612L7.25 6.13878Z" stroke="url(#paint9_linear_1_3722)"/>
<path d="M7.25 6.13878L20 13.5L7.25 20.8612L7.25 6.13878Z" stroke="url(#paint10_linear_1_3722)"/>
</g>
<g filter="url(#filter3_f_1_3722)">
<path d="M7.25 6.13878L20 13.5L7.25 20.8612L7.25 6.13878Z" stroke="url(#paint11_linear_1_3722)"/>
<path d="M7.25 6.13878L20 13.5L7.25 20.8612L7.25 6.13878Z" stroke="url(#paint12_linear_1_3722)"/>
<path d="M7.25 6.13878L20 13.5L7.25 20.8612L7.25 6.13878Z" stroke="url(#paint13_linear_1_3722)"/>
<path d="M7.25 6.13878L20 13.5L7.25 20.8612L7.25 6.13878Z" stroke="url(#paint14_linear_1_3722)"/>
<path d="M7.25 6.13878L20 13.5L7.25 20.8612L7.25 6.13878Z" stroke="url(#paint15_linear_1_3722)"/>
</g>
<g filter="url(#filter4_f_1_3722)">
<path d="M7.25 6.13878L20 13.5L7.25 20.8612L7.25 6.13878Z" stroke="url(#paint16_linear_1_3722)"/>
<path d="M7.25 6.13878L20 13.5L7.25 20.8612L7.25 6.13878Z" stroke="url(#paint17_linear_1_3722)"/>
<path d="M7.25 6.13878L20 13.5L7.25 20.8612L7.25 6.13878Z" stroke="url(#paint18_linear_1_3722)"/>
<path d="M7.25 6.13878L20 13.5L7.25 20.8612L7.25 6.13878Z" stroke="url(#paint19_linear_1_3722)"/>
<path d="M7.25 6.13878L20 13.5L7.25 20.8612L7.25 6.13878Z" stroke="url(#paint20_linear_1_3722)"/>
</g>
<g filter="url(#filter5_f_1_3722)">
<path d="M7.25 6.13878L20 13.5L7.25 20.8612L7.25 6.13878Z" stroke="url(#paint21_linear_1_3722)"/>
<path d="M7.25 6.13878L20 13.5L7.25 20.8612L7.25 6.13878Z" stroke="url(#paint22_linear_1_3722)"/>
<path d="M7.25 6.13878L20 13.5L7.25 20.8612L7.25 6.13878Z" stroke="url(#paint23_linear_1_3722)"/>
<path d="M7.25 6.13878L20 13.5L7.25 20.8612L7.25 6.13878Z" stroke="url(#paint24_linear_1_3722)"/>
<path d="M7.25 6.13878L20 13.5L7.25 20.8612L7.25 6.13878Z" stroke="url(#paint25_linear_1_3722)"/>
</g>
<path d="M7.5 6.5718L19.5 13.5L7.5 20.4282L7.5 6.5718Z" stroke="url(#paint26_linear_1_3722)" stroke-width="1.5"/>
<defs>
<filter id="filter0_f_1_3722" x="4.75" y="3.27295" width="18.25" height="20.4541" filterUnits="userSpaceOnUse" color-interpolation-filters="sRGB">
<feFlood flood-opacity="0" result="BackgroundImageFix"/>
<feBlend mode="normal" in="SourceGraphic" in2="BackgroundImageFix" result="shape"/>
<feGaussianBlur stdDeviation="1" result="effect1_foregroundBlur_1_3722"/>
</filter>
<filter id="filter1_f_1_3722" x="3.75" y="2.27295" width="20.25" height="22.4541" filterUnits="userSpaceOnUse" color-interpolation-filters="sRGB">
<feFlood flood-opacity="0" result="BackgroundImageFix"/>
<feBlend mode="normal" in="SourceGraphic" in2="BackgroundImageFix" result="shape"/>
<feGaussianBlur stdDeviation="1.5" result="effect1_foregroundBlur_1_3722"/>
</filter>
<filter id="filter2_f_1_3722" x="5.25" y="3.77295" width="17.25" height="19.4541" filterUnits="userSpaceOnUse" color-interpolation-filters="sRGB">
<feFlood flood-opacity="0" result="BackgroundImageFix"/>
<feBlend mode="normal" in="SourceGraphic" in2="BackgroundImageFix" result="shape"/>
<feGaussianBlur stdDeviation="0.75" result="effect1_foregroundBlur_1_3722"/>
</filter>
<filter id="filter3_f_1_3722" x="5.25" y="3.77295" width="17.25" height="19.4541" filterUnits="userSpaceOnUse" color-interpolation-filters="sRGB">
<feFlood flood-opacity="0" result="BackgroundImageFix"/>
<feBlend mode="normal" in="SourceGraphic" in2="BackgroundImageFix" result="shape"/>
<feGaussianBlur stdDeviation="0.75" result="effect1_foregroundBlur_1_3722"/>
</filter>
<filter id="filter4_f_1_3722" x="4.75" y="3.27295" width="18.25" height="20.4541" filterUnits="userSpaceOnUse" color-interpolation-filters="sRGB">
<feFlood flood-opacity="0" result="BackgroundImageFix"/>
<feBlend mode="normal" in="SourceGraphic" in2="BackgroundImageFix" result="shape"/>
<feGaussianBlur stdDeviation="1" result="effect1_foregroundBlur_1_3722"/>
</filter>
<filter id="filter5_f_1_3722" x="5.25" y="3.77295" width="17.25" height="19.4541" filterUnits="userSpaceOnUse" color-interpolation-filters="sRGB">
<feFlood flood-opacity="0" result="BackgroundImageFix"/>
<feBlend mode="normal" in="SourceGraphic" in2="BackgroundImageFix" result="shape"/>
<feGaussianBlur stdDeviation="0.75" result="effect1_foregroundBlur_1_3722"/>
</filter>
<linearGradient id="paint0_linear_1_3722" x1="7" y1="13.5" x2="21" y2="13.5" gradientUnits="userSpaceOnUse">
<stop stop-color="#8CB1FD"/>
<stop offset="1" stop-color="#14CFF6"/>
</linearGradient>
<linearGradient id="paint1_linear_1_3722" x1="7" y1="13.5" x2="21" y2="13.5" gradientUnits="userSpaceOnUse">
<stop stop-color="#8CB1FD"/>
<stop offset="1" stop-color="#14CFF6"/>
</linearGradient>
<linearGradient id="paint2_linear_1_3722" x1="7" y1="13.5" x2="21" y2="13.5" gradientUnits="userSpaceOnUse">
<stop stop-color="#8CB1FD"/>
<stop offset="1" stop-color="#14CFF6"/>
</linearGradient>
<linearGradient id="paint3_linear_1_3722" x1="7" y1="13.5" x2="21" y2="13.5" gradientUnits="userSpaceOnUse">
<stop stop-color="#8CB1FD"/>
<stop offset="1" stop-color="#14CFF6"/>
</linearGradient>
<linearGradient id="paint4_linear_1_3722" x1="7" y1="13.5" x2="21" y2="13.5" gradientUnits="userSpaceOnUse">
<stop stop-color="#8CB1FD"/>
<stop offset="1" stop-color="#14CFF6"/>
</linearGradient>
<linearGradient id="paint5_linear_1_3722" x1="7" y1="13.5" x2="21" y2="13.5" gradientUnits="userSpaceOnUse">
<stop stop-color="#8CB1FD"/>
<stop offset="1" stop-color="#14CFF6"/>
</linearGradient>
<linearGradient id="paint6_linear_1_3722" x1="7" y1="13.5" x2="21" y2="13.5" gradientUnits="userSpaceOnUse">
<stop stop-color="#8CB1FD"/>
<stop offset="1" stop-color="#14CFF6"/>
</linearGradient>
<linearGradient id="paint7_linear_1_3722" x1="7" y1="13.5" x2="21" y2="13.5" gradientUnits="userSpaceOnUse">
<stop stop-color="#8CB1FD"/>
<stop offset="1" stop-color="#14CFF6"/>
</linearGradient>
<linearGradient id="paint8_linear_1_3722" x1="7" y1="13.5" x2="21" y2="13.5" gradientUnits="userSpaceOnUse">
<stop stop-color="#8CB1FD"/>
<stop offset="1" stop-color="#14CFF6"/>
</linearGradient>
<linearGradient id="paint9_linear_1_3722" x1="7" y1="13.5" x2="21" y2="13.5" gradientUnits="userSpaceOnUse">
<stop stop-color="#8CB1FD"/>
<stop offset="1" stop-color="#14CFF6"/>
</linearGradient>
<linearGradient id="paint10_linear_1_3722" x1="7" y1="13.5" x2="21" y2="13.5" gradientUnits="userSpaceOnUse">
<stop stop-color="#8CB1FD"/>
<stop offset="1" stop-color="#14CFF6"/>
</linearGradient>
<linearGradient id="paint11_linear_1_3722" x1="7" y1="13.5" x2="21" y2="13.5" gradientUnits="userSpaceOnUse">
<stop stop-color="#8CB1FD"/>
<stop offset="1" stop-color="#14CFF6"/>
</linearGradient>
<linearGradient id="paint12_linear_1_3722" x1="7" y1="13.5" x2="21" y2="13.5" gradientUnits="userSpaceOnUse">
<stop stop-color="#8CB1FD"/>
<stop offset="1" stop-color="#14CFF6"/>
</linearGradient>
<linearGradient id="paint13_linear_1_3722" x1="7" y1="13.5" x2="21" y2="13.5" gradientUnits="userSpaceOnUse">
<stop stop-color="#8CB1FD"/>
<stop offset="1" stop-color="#14CFF6"/>
</linearGradient>
<linearGradient id="paint14_linear_1_3722" x1="7" y1="13.5" x2="21" y2="13.5" gradientUnits="userSpaceOnUse">
<stop stop-color="#8CB1FD"/>
<stop offset="1" stop-color="#14CFF6"/>
</linearGradient>
<linearGradient id="paint15_linear_1_3722" x1="7" y1="13.5" x2="21" y2="13.5" gradientUnits="userSpaceOnUse">
<stop stop-color="#8CB1FD"/>
<stop offset="1" stop-color="#14CFF6"/>
</linearGradient>
<linearGradient id="paint16_linear_1_3722" x1="7" y1="13.5" x2="21" y2="13.5" gradientUnits="userSpaceOnUse">
<stop stop-color="#8CB1FD"/>
<stop offset="1" stop-color="#14CFF6"/>
</linearGradient>
<linearGradient id="paint17_linear_1_3722" x1="7" y1="13.5" x2="21" y2="13.5" gradientUnits="userSpaceOnUse">
<stop stop-color="#8CB1FD"/>
<stop offset="1" stop-color="#14CFF6"/>
</linearGradient>
<linearGradient id="paint18_linear_1_3722" x1="7" y1="13.5" x2="21" y2="13.5" gradientUnits="userSpaceOnUse">
<stop stop-color="#8CB1FD"/>
<stop offset="1" stop-color="#14CFF6"/>
</linearGradient>
<linearGradient id="paint19_linear_1_3722" x1="7" y1="13.5" x2="21" y2="13.5" gradientUnits="userSpaceOnUse">
<stop stop-color="#8CB1FD"/>
<stop offset="1" stop-color="#14CFF6"/>
</linearGradient>
<linearGradient id="paint20_linear_1_3722" x1="7" y1="13.5" x2="21" y2="13.5" gradientUnits="userSpaceOnUse">
<stop stop-color="#8CB1FD"/>
<stop offset="1" stop-color="#14CFF6"/>
</linearGradient>
<linearGradient id="paint21_linear_1_3722" x1="7" y1="13.5" x2="21" y2="13.5" gradientUnits="userSpaceOnUse">
<stop stop-color="#8CB1FD"/>
<stop offset="1" stop-color="#14CFF6"/>
</linearGradient>
<linearGradient id="paint22_linear_1_3722" x1="7" y1="13.5" x2="21" y2="13.5" gradientUnits="userSpaceOnUse">
<stop stop-color="#8CB1FD"/>
<stop offset="1" stop-color="#14CFF6"/>
</linearGradient>
<linearGradient id="paint23_linear_1_3722" x1="7" y1="13.5" x2="21" y2="13.5" gradientUnits="userSpaceOnUse">
<stop stop-color="#8CB1FD"/>
<stop offset="1" stop-color="#14CFF6"/>
</linearGradient>
<linearGradient id="paint24_linear_1_3722" x1="7" y1="13.5" x2="21" y2="13.5" gradientUnits="userSpaceOnUse">
<stop stop-color="#8CB1FD"/>
<stop offset="1" stop-color="#14CFF6"/>
</linearGradient>
<linearGradient id="paint25_linear_1_3722" x1="7" y1="13.5" x2="21" y2="13.5" gradientUnits="userSpaceOnUse">
<stop stop-color="#8CB1FD"/>
<stop offset="1" stop-color="#14CFF6"/>
</linearGradient>
<linearGradient id="paint26_linear_1_3722" x1="7" y1="13.5" x2="21" y2="13.5" gradientUnits="userSpaceOnUse">
<stop stop-color="#D8F9FF"/>
<stop offset="1" stop-color="#2AFFFF"/>
</linearGradient>
</defs>
</svg>
