<svg width="132" height="26" viewBox="0 0 132 26" fill="none" xmlns="http://www.w3.org/2000/svg">
<g clip-path="url(#clip0_206_301)">
<g filter="url(#filter0_f_206_301)">
<path d="M14.3687 13.0255L8.89108 9.91592C8.80258 9.86672 8.70258 9.84082 8.60078 9.84082C8.49908 9.84082 8.39908 9.86672 8.31058 9.91592C8.22298 9.96612 8.15038 10.0379 8.09978 10.1243C8.04928 10.2106 8.02258 10.3085 8.02248 10.4081V16.6315C8.02158 16.7308 8.04778 16.8284 8.09848 16.9142C8.14918 17 8.22238 17.0709 8.31058 17.1193C8.39988 17.169 8.50038 17.1959 8.60308 17.1977C8.70408 17.1949 8.80298 17.168 8.89108 17.1193L14.3687 14.0098C14.4562 13.9606 14.5289 13.8896 14.5795 13.804C14.6301 13.7183 14.6568 13.621 14.6568 13.522C14.6565 13.4218 14.6299 13.3234 14.5794 13.2364C14.5289 13.1494 14.4563 13.0767 14.3687 13.0255ZM14.1028 13.5568L8.62078 16.6664L8.54988 16.6315V10.3863L8.62078 10.3471L14.1028 13.461V13.5568Z" fill="#23FCFD"/>
</g>
<g filter="url(#filter1_f_206_301)">
<path d="M19.74 12.6293L6.53346 5.1341C6.37766 5.0462 6.20126 5 6.02156 5C5.84196 5 5.66556 5.0462 5.50976 5.1341C5.35366 5.2216 5.22416 5.3485 5.13456 5.5016C5.04496 5.6547 4.99856 5.8285 5.00006 6.0051V20.9955C4.99806 21.1722 5.04426 21.3462 5.13396 21.4994C5.22356 21.6526 5.35336 21.7794 5.50976 21.8665C5.66426 21.9579 5.84126 22.0062 6.02156 22.0062C6.20196 22.0062 6.37896 21.9579 6.53346 21.8665L19.74 14.3714C19.8967 14.2845 20.0267 14.1578 20.1164 14.0046C20.2061 13.8513 20.2521 13.6771 20.2496 13.5003C20.2503 13.3239 20.2035 13.1504 20.114 12.9975C20.0245 12.8445 19.8955 12.7175 19.74 12.6293ZM19.4741 13.9097L6.26756 21.4093C6.19296 21.4521 6.10806 21.4747 6.02156 21.4747C5.93516 21.4747 5.85026 21.4521 5.77566 21.4093C5.69856 21.3657 5.63526 21.3019 5.59296 21.2249C5.55076 21.148 5.53106 21.061 5.53636 20.9737V6.0008C5.53156 5.9136 5.55146 5.8268 5.59366 5.75C5.63586 5.6731 5.69886 5.6092 5.77566 5.5653C5.85226 5.5257 5.93736 5.5048 6.02386 5.5043C6.10876 5.506 6.19216 5.5269 6.26756 5.5653L19.4741 13.0648C19.5522 13.108 19.6167 13.1715 19.6605 13.2483C19.7042 13.3251 19.7256 13.4123 19.7223 13.5003C19.7199 13.582 19.6957 13.6616 19.6521 13.7311C19.6086 13.8007 19.5472 13.8578 19.4741 13.8966V13.9097Z" fill="#23FCFD"/>
</g>
<g filter="url(#filter2_f_206_301)">
<path d="M17.0368 12.8163L7.7303 7.5292C7.6088 7.4608 7.4713 7.4248 7.3314 7.4248C7.1915 7.4248 7.054 7.4608 6.9325 7.5292C6.8109 7.5977 6.7099 7.6966 6.6398 7.816C6.5698 7.9353 6.5332 8.0708 6.5337 8.2086V18.7872C6.533 18.9244 6.5696 19.0593 6.6397 19.178C6.7099 19.2967 6.8109 19.3948 6.9325 19.4622C7.0541 19.5345 7.1937 19.5722 7.3358 19.5711C7.475 19.5709 7.6114 19.5332 7.7303 19.4622L17.0368 14.1751C17.1584 14.1072 17.2596 14.0091 17.3303 13.8906C17.4011 13.7721 17.439 13.6374 17.4401 13.5C17.4396 13.3614 17.4021 13.2252 17.3314 13.1053C17.2606 12.9853 17.159 12.8856 17.0368 12.8163ZM16.7754 13.7222L7.4688 19.0093C7.4292 19.0346 7.383 19.0481 7.3358 19.0481C7.2886 19.0481 7.2424 19.0346 7.2029 19.0093C7.1628 18.9871 7.1294 18.9548 7.106 18.9158C7.0827 18.8768 7.0702 18.8324 7.0699 18.7872V8.2086C7.0703 8.1628 7.0828 8.1178 7.1061 8.0781C7.1294 8.0385 7.1627 8.0054 7.2029 7.9821C7.2433 7.9592 7.2892 7.9471 7.3358 7.9471C7.3825 7.9471 7.4284 7.9592 7.4688 7.9821L16.7754 13.2692C16.8156 13.2931 16.8488 13.327 16.8713 13.3676C16.8939 13.4081 16.9051 13.4538 16.9039 13.5C16.9045 13.545 16.8929 13.5892 16.8703 13.6283C16.8477 13.6673 16.8149 13.6997 16.7754 13.7222Z" fill="#23FCFD"/>
</g>
<g filter="url(#filter3_f_206_301)">
<path d="M14.3687 13.0255L8.89108 9.91592C8.80258 9.86672 8.70258 9.84082 8.60078 9.84082C8.49908 9.84082 8.39908 9.86672 8.31058 9.91592C8.22298 9.96612 8.15038 10.0379 8.09978 10.1243C8.04928 10.2106 8.02258 10.3085 8.02248 10.4081V16.6315C8.02158 16.7308 8.04778 16.8284 8.09848 16.9142C8.14918 17 8.22238 17.0709 8.31058 17.1193C8.39988 17.169 8.50038 17.1959 8.60308 17.1977C8.70408 17.1949 8.80298 17.168 8.89108 17.1193L14.3687 14.0098C14.4562 13.9606 14.5289 13.8896 14.5795 13.804C14.6301 13.7183 14.6568 13.621 14.6568 13.522C14.6565 13.4218 14.6299 13.3234 14.5794 13.2364C14.5289 13.1494 14.4563 13.0767 14.3687 13.0255ZM14.1028 13.5568L8.62078 16.6664L8.54988 16.6315V10.3863L8.62078 10.3471L14.1028 13.461V13.5568Z" fill="#23FCFD"/>
</g>
<path d="M19.74 12.6293L6.53346 5.1341C6.37766 5.0462 6.20126 5 6.02156 5C5.84196 5 5.66556 5.0462 5.50976 5.1341C5.35366 5.2216 5.22416 5.3485 5.13456 5.5016C5.04496 5.6547 4.99856 5.8285 5.00006 6.0051V20.9955C4.99806 21.1722 5.04426 21.3462 5.13396 21.4994C5.22356 21.6526 5.35336 21.7794 5.50976 21.8665C5.66426 21.9579 5.84126 22.0062 6.02156 22.0062C6.20196 22.0062 6.37896 21.9579 6.53346 21.8665L19.74 14.3714C19.8967 14.2845 20.0267 14.1578 20.1164 14.0046C20.2061 13.8513 20.2521 13.6771 20.2496 13.5003C20.2503 13.3239 20.2035 13.1504 20.114 12.9975C20.0245 12.8445 19.8955 12.7175 19.74 12.6293ZM19.4741 13.9097L6.26756 21.4093C6.19296 21.4521 6.10806 21.4747 6.02156 21.4747C5.93516 21.4747 5.85026 21.4521 5.77566 21.4093C5.69856 21.3657 5.63526 21.3019 5.59296 21.2249C5.55076 21.148 5.53106 21.061 5.53636 20.9737V6.0008C5.53156 5.9136 5.55146 5.8268 5.59366 5.75C5.63586 5.6731 5.69886 5.6092 5.77566 5.5653C5.85226 5.5257 5.93736 5.5048 6.02386 5.5043C6.10876 5.506 6.19216 5.5269 6.26756 5.5653L19.4741 13.0648C19.5522 13.108 19.6167 13.1715 19.6605 13.2483C19.7042 13.3251 19.7256 13.4123 19.7223 13.5003C19.7199 13.582 19.6957 13.6616 19.6521 13.7311C19.6086 13.8007 19.5472 13.8578 19.4741 13.8966V13.9097Z" fill="#23FCFD"/>
<g filter="url(#filter4_f_206_301)">
<path d="M19.74 12.6293L6.53346 5.1341C6.37766 5.0462 6.20126 5 6.02156 5C5.84196 5 5.66556 5.0462 5.50976 5.1341C5.35366 5.2216 5.22416 5.3485 5.13456 5.5016C5.04496 5.6547 4.99856 5.8285 5.00006 6.0051V20.9955C4.99806 21.1722 5.04426 21.3462 5.13396 21.4994C5.22356 21.6526 5.35336 21.7794 5.50976 21.8665C5.66426 21.9579 5.84126 22.0062 6.02156 22.0062C6.20196 22.0062 6.37896 21.9579 6.53346 21.8665L19.74 14.3714C19.8967 14.2845 20.0267 14.1578 20.1164 14.0046C20.2061 13.8513 20.2521 13.6771 20.2496 13.5003C20.2503 13.3239 20.2035 13.1504 20.114 12.9975C20.0245 12.8445 19.8955 12.7175 19.74 12.6293ZM19.4741 13.9097L6.26756 21.4093C6.19296 21.4521 6.10806 21.4747 6.02156 21.4747C5.93516 21.4747 5.85026 21.4521 5.77566 21.4093C5.69856 21.3657 5.63526 21.3019 5.59296 21.2249C5.55076 21.148 5.53106 21.061 5.53636 20.9737V6.0008C5.53156 5.9136 5.55146 5.8268 5.59366 5.75C5.63586 5.6731 5.69886 5.6092 5.77566 5.5653C5.85226 5.5257 5.93736 5.5048 6.02386 5.5043C6.10876 5.506 6.19216 5.5269 6.26756 5.5653L19.4741 13.0648C19.5522 13.108 19.6167 13.1715 19.6605 13.2483C19.7042 13.3251 19.7256 13.4123 19.7223 13.5003C19.7199 13.582 19.6957 13.6616 19.6521 13.7311C19.6086 13.8007 19.5472 13.8578 19.4741 13.8966V13.9097Z" fill="#23FCFD"/>
</g>
<path d="M17.0368 12.8163L7.7303 7.5292C7.6088 7.4608 7.4713 7.4248 7.3314 7.4248C7.1915 7.4248 7.054 7.4608 6.9325 7.5292C6.8109 7.5977 6.7099 7.6966 6.6398 7.816C6.5698 7.9353 6.5332 8.0708 6.5337 8.2086V18.7872C6.533 18.9244 6.5696 19.0593 6.6397 19.178C6.7099 19.2967 6.8109 19.3948 6.9325 19.4622C7.0541 19.5345 7.1937 19.5722 7.3358 19.5711C7.475 19.5709 7.6114 19.5332 7.7303 19.4622L17.0368 14.1751C17.1584 14.1072 17.2596 14.0091 17.3303 13.8906C17.4011 13.7721 17.439 13.6374 17.4401 13.5C17.4396 13.3614 17.4021 13.2252 17.3314 13.1053C17.2606 12.9853 17.159 12.8856 17.0368 12.8163ZM16.7754 13.7222L7.4688 19.0093C7.4292 19.0346 7.383 19.0481 7.3358 19.0481C7.2886 19.0481 7.2424 19.0346 7.2029 19.0093C7.1628 18.9871 7.1294 18.9548 7.106 18.9158C7.0827 18.8768 7.0702 18.8324 7.0699 18.7872V8.2086C7.0703 8.1628 7.0828 8.1178 7.1061 8.0781C7.1294 8.0385 7.1627 8.0054 7.2029 7.9821C7.2433 7.9592 7.2892 7.9471 7.3358 7.9471C7.3825 7.9471 7.4284 7.9592 7.4688 7.9821L16.7754 13.2692C16.8156 13.2931 16.8488 13.327 16.8713 13.3676C16.8939 13.4081 16.9051 13.4538 16.9039 13.5C16.9045 13.545 16.8929 13.5892 16.8703 13.6283C16.8477 13.6673 16.8149 13.6997 16.7754 13.7222Z" fill="#23FCFD"/>
<path d="M14.3687 13.0255L8.89108 9.91592C8.80258 9.86672 8.70258 9.84082 8.60078 9.84082C8.49908 9.84082 8.39908 9.86672 8.31058 9.91592C8.22298 9.96612 8.15038 10.0379 8.09978 10.1243C8.04928 10.2106 8.02258 10.3085 8.02248 10.4081V16.6315C8.02158 16.7308 8.04778 16.8284 8.09848 16.9142C8.14918 17 8.22238 17.0709 8.31058 17.1193C8.39988 17.169 8.50038 17.1959 8.60308 17.1977C8.70408 17.1949 8.80298 17.168 8.89108 17.1193L14.3687 14.0098C14.4562 13.9606 14.5289 13.8896 14.5795 13.804C14.6301 13.7183 14.6568 13.621 14.6568 13.522C14.6565 13.4218 14.6299 13.3234 14.5794 13.2364C14.5289 13.1494 14.4563 13.0767 14.3687 13.0255ZM14.1028 13.5568L8.62078 16.6664L8.54988 16.6315V10.3863L8.62078 10.3471L14.1028 13.461V13.5568Z" fill="#23FCFD"/>
<path d="M106.397 13.113C108.716 11.9006 109.523 10.0137 108.767 7.87603C108.449 7.02355 107.868 6.29047 107.104 5.78018C106.34 5.2699 105.432 5.00817 104.509 5.0319C101.517 5.0319 98.5264 5.03191 95.5348 5C94.9875 5 95.071 5.27347 95.071 5.60164V18.1222C95.071 19.1842 95.071 20.2416 95.071 21.3127C95.071 21.6454 95.1592 21.7685 95.5348 21.7685C98.7815 21.7047 102 21.8916 105.232 21.6591C106.232 21.6156 107.185 21.2329 107.929 20.5764C108.673 19.9198 109.163 19.0299 109.314 18.0584C109.597 15.711 108.586 13.9289 106.397 13.113ZM98.7675 8.50958C98.7675 8.24978 98.8 8.11304 99.12 8.12216C100.581 8.12216 102.046 8.12216 103.507 8.12216C103.967 8.15454 104.396 8.36052 104.705 8.69697C105.014 9.03343 105.179 9.47427 105.164 9.92721C105.15 10.3801 104.958 10.81 104.628 11.1269C104.299 11.4438 103.857 11.623 103.396 11.6272C102.714 11.6272 102.004 11.6272 101.337 11.6272C100.669 11.6272 99.8765 11.6272 99.1386 11.6272C98.8557 11.6272 98.7583 11.5634 98.7675 11.2716C98.783 10.3601 98.783 9.43939 98.7675 8.50958ZM105.446 17.3747C105.331 17.7184 105.107 18.0167 104.806 18.2253C104.505 18.4338 104.144 18.5415 103.776 18.5324C103.002 18.5643 99.9915 18.5324 99.2638 18.5643C98.8232 18.5916 98.749 18.4367 98.7583 18.0584C98.7861 17.1012 98.7815 16.1532 98.7583 15.2051C98.7583 14.9043 98.7815 14.7493 99.1711 14.7493C100.562 14.7493 102.009 14.7493 103.428 14.7493C105.005 14.804 105.933 16.0346 105.446 17.3747Z" fill="white"/>
<path d="M42.1264 7.90726C41.1385 5.99294 39.376 5.21354 37.275 5.17252C34.7241 5.11327 32.1732 5.17252 29.6315 5.14062C29.0703 5.14062 28.9915 5.31838 29.0007 5.7924C29.0007 8.36761 29.0007 10.9382 29.0007 13.5135C29.0007 16.0887 29.0007 18.7459 29.0007 21.3622C29.0007 21.7405 29.0657 21.9 29.5017 21.8863C30.3829 21.8499 31.2734 21.8499 32.1639 21.8863C32.6045 21.8863 32.7205 21.7587 32.7158 21.3348C32.7158 19.7578 32.7158 18.1762 32.7158 16.5992C32.7158 16.0796 32.7993 15.8972 33.379 15.9155C34.7705 15.9656 36.1619 15.9793 37.5533 15.9155C38.3983 15.9226 39.2317 15.722 39.9777 15.3319C40.7238 14.9419 41.3587 14.3748 41.8249 13.6821C42.4167 12.8423 42.7583 11.857 42.8116 10.8368C42.8649 9.81669 42.6276 8.80216 42.1264 7.90726ZM37.2889 12.6657C35.865 12.9073 34.418 12.7295 32.9802 12.766C32.7204 12.766 32.7112 12.6156 32.7112 12.4241C32.7112 11.1707 32.7112 9.91729 32.7112 8.66387C32.7112 8.38128 32.855 8.36305 33.0776 8.36305H35.0116C35.6749 8.36305 36.3381 8.32658 37.0013 8.36305C37.5235 8.40915 38.0118 8.63673 38.3785 9.0049C38.7453 9.37306 38.9664 9.85769 39.0021 10.3717C39.0379 10.8857 38.886 11.3953 38.5737 11.8091C38.2613 12.2229 37.8091 12.5137 37.2982 12.6292L37.2889 12.6657Z" fill="white"/>
<path d="M81.8253 16.4174C81.8253 13.7601 81.8531 11.3034 81.8253 8.84674C81.8253 8.21319 81.9784 8.02176 82.6231 8.08101C83.3086 8.12887 83.9968 8.12887 84.6823 8.08101C85.1461 8.05366 85.2714 8.18584 85.2714 8.64619C85.2482 11.4812 85.2714 14.3162 85.2714 17.1512C85.2714 18.555 85.2714 19.9634 85.2714 21.3673C85.2714 21.7638 85.1554 21.9279 84.7473 21.8732C84.571 21.8504 82.5071 22.0737 81.8624 21.7638C81.2177 21.4539 80.8374 20.6152 80.3412 20.0045C78.7302 18.0263 77.1193 16.0512 75.5083 14.0792C75.4063 13.9516 75.2903 13.8331 75.0723 13.5915V15.6608C75.0723 17.5432 75.0723 19.4256 75.0723 21.308C75.0723 21.7638 74.9518 21.9142 74.4787 21.8914C73.6809 21.855 72.8832 21.8914 72.0854 21.8914C71.7515 21.8914 71.6216 21.8276 71.6216 21.4675C71.6216 17.1406 71.6216 12.8136 71.6216 8.48666C71.6216 8.15394 71.733 8.09012 72.0391 8.09468C72.9296 8.09468 73.8154 8.12659 74.7013 8.09468C75.1048 8.09468 75.23 8.35448 75.4156 8.57782L81.3291 15.834C81.4357 15.9707 81.5656 16.1166 81.8253 16.4174Z" fill="white"/>
<path d="M128.235 13.8787C129.191 13.8787 130.146 13.8787 131.097 13.8787C131.477 13.8787 131.653 13.9379 131.649 14.3664C131.626 15.9252 131.649 17.484 131.649 19.0428C131.657 19.1377 131.646 19.2334 131.615 19.3236C131.584 19.4139 131.533 19.4968 131.468 19.5669C127.873 23.2816 121.264 22.6572 118.778 18.6006C116.292 14.5441 118.124 8.57329 124.149 7.7392C126.932 7.36545 129.251 8.08104 131.106 10.1959C131.398 10.5332 131.37 10.6836 130.962 10.8841C130.294 11.2169 129.659 11.6088 129.019 11.9871C128.764 12.133 128.615 12.1877 128.36 11.9142C127.813 11.2949 127.078 10.8643 126.263 10.6854C125.449 10.5066 124.597 10.589 123.834 10.9206C123.073 11.2211 122.422 11.7414 121.969 12.4128C121.515 13.0841 121.279 13.875 121.292 14.6809C121.292 16.9598 122.507 18.5779 124.664 19.0017C125.229 19.1198 125.813 19.1187 126.377 18.9985C126.942 18.8783 127.474 18.6417 127.938 18.3044C128.179 18.1312 128.37 16.937 128.184 16.7547C127.999 16.5724 127.897 16.6863 127.748 16.6863C126.974 16.6863 126.194 16.6863 125.429 16.6863C125.044 16.6863 124.868 16.6316 124.896 16.1986C124.933 15.5915 124.933 14.9826 124.896 14.3755C124.896 13.9881 124.975 13.8468 125.406 13.8604C126.329 13.9015 127.284 13.8787 128.235 13.8787Z" fill="white"/>
<path d="M70.6542 21.6776C68.8268 17.2747 66.9901 12.8763 65.1767 8.45976C65.1399 8.33768 65.0584 8.23332 64.9479 8.16683C64.8374 8.10033 64.7057 8.07642 64.5784 8.09969C63.5348 8.09969 62.4912 8.13159 61.4477 8.09969C61.2568 8.07001 61.0615 8.11153 60.9002 8.2161C60.7388 8.32067 60.6231 8.48074 60.5757 8.66486C59.0452 12.3978 57.4868 16.1216 55.9377 19.8499C55.6155 20.5054 55.3562 21.189 55.1631 21.8919H57.4822C58.971 21.8919 58.971 21.8919 59.5183 20.4926C59.5835 20.3582 59.6393 20.2197 59.6852 20.0778C59.7687 19.7223 59.9682 19.622 60.3485 19.622C61.5033 19.6494 65.3575 19.3759 65.8816 19.7497C66.3454 20.0778 66.4336 20.8846 66.684 21.4771C66.7043 21.5162 66.7198 21.5575 66.7304 21.6002C66.7641 21.7011 66.8325 21.7873 66.924 21.8439C67.0155 21.9005 67.1242 21.9239 67.2313 21.9101C68.3584 21.9101 69.4947 21.9101 70.6449 21.9101C70.6572 21.8332 70.6603 21.7552 70.6542 21.6776ZM60.8679 16.7141C61.5451 15.0049 62.2083 13.3412 62.9087 11.5773C63.609 13.3367 64.2722 15.014 64.954 16.7141H60.8679Z" fill="white"/>
<path d="M44.8591 14.9539C44.8591 12.8528 44.8591 10.7561 44.8591 8.65951C44.8591 8.20372 44.9704 8.05786 45.4435 8.08521C46.2412 8.12167 47.039 8.12167 47.8367 8.08521C48.2727 8.08521 48.3376 8.22195 48.333 8.60025C48.333 11.8455 48.333 15.0861 48.333 18.3313C48.333 18.7871 48.4165 18.9512 48.9359 18.9421C50.6427 18.9056 52.3495 18.9421 54.0378 18.9193C54.4459 18.9193 54.5804 19.0241 54.5619 19.4252C54.5294 20.0952 54.5387 20.7653 54.5619 21.4353C54.5619 21.7771 54.4505 21.8911 54.0981 21.8911C51.1715 21.8911 48.2449 21.8911 45.3183 21.8911C44.8962 21.8911 44.8545 21.7179 44.8545 21.3851C44.8637 19.2338 44.8591 17.1189 44.8591 14.9539Z" fill="white"/>
<path d="M115.288 15.0317C115.288 17.1283 115.288 19.225 115.288 21.3216C115.288 21.7774 115.153 21.905 114.694 21.8822C113.896 21.8457 113.099 21.8822 112.301 21.8822C111.962 21.8822 111.837 21.7956 111.837 21.4264C111.837 17.1298 111.837 12.8302 111.837 8.52759C111.837 8.12194 112.009 8.0718 112.352 8.0718C113.15 8.0718 113.947 8.09915 114.745 8.0718C115.181 8.04901 115.292 8.18119 115.288 8.60052C115.278 10.7382 115.288 12.894 115.288 15.0317Z" fill="white"/>
</g>
<defs>
<filter id="filter0_f_206_301" x="-5.05298" y="-3.23462" width="32.7852" height="33.5078" filterUnits="userSpaceOnUse" color-interpolation-filters="sRGB">
<feFlood flood-opacity="0" result="BackgroundImageFix"/>
<feBlend mode="normal" in="SourceGraphic" in2="BackgroundImageFix" result="shape"/>
<feGaussianBlur stdDeviation="6.53772" result="effect1_foregroundBlur_206_301"/>
</filter>
<filter id="filter1_f_206_301" x="2.38492" y="2.38492" width="20.4797" height="22.2365" filterUnits="userSpaceOnUse" color-interpolation-filters="sRGB">
<feFlood flood-opacity="0" result="BackgroundImageFix"/>
<feBlend mode="normal" in="SourceGraphic" in2="BackgroundImageFix" result="shape"/>
<feGaussianBlur stdDeviation="1.30754" result="effect1_foregroundBlur_206_301"/>
</filter>
<filter id="filter2_f_206_301" x="3.91861" y="4.80972" width="16.1364" height="17.3766" filterUnits="userSpaceOnUse" color-interpolation-filters="sRGB">
<feFlood flood-opacity="0" result="BackgroundImageFix"/>
<feBlend mode="normal" in="SourceGraphic" in2="BackgroundImageFix" result="shape"/>
<feGaussianBlur stdDeviation="1.30754" result="effect1_foregroundBlur_206_301"/>
</filter>
<filter id="filter3_f_206_301" x="5.40738" y="7.22574" width="11.8644" height="12.5871" filterUnits="userSpaceOnUse" color-interpolation-filters="sRGB">
<feFlood flood-opacity="0" result="BackgroundImageFix"/>
<feBlend mode="normal" in="SourceGraphic" in2="BackgroundImageFix" result="shape"/>
<feGaussianBlur stdDeviation="1.30754" result="effect1_foregroundBlur_206_301"/>
</filter>
<filter id="filter4_f_206_301" x="-8.07544" y="-8.07544" width="41.4004" height="43.1572" filterUnits="userSpaceOnUse" color-interpolation-filters="sRGB">
<feFlood flood-opacity="0" result="BackgroundImageFix"/>
<feBlend mode="normal" in="SourceGraphic" in2="BackgroundImageFix" result="shape"/>
<feGaussianBlur stdDeviation="6.53772" result="effect1_foregroundBlur_206_301"/>
</filter>
<clipPath id="clip0_206_301">
<rect width="132" height="26" fill="white"/>
</clipPath>
</defs>
</svg>
