<svg width="132" height="26" viewBox="0 0 132 26" fill="none" xmlns="http://www.w3.org/2000/svg">
<g filter="url(#filter0_f_1_3691)">
<path d="M6.07895 4.47649L20.8421 13L6.07895 21.5235L6.07895 4.47649Z" stroke="#23FCFD" stroke-opacity="0.4" stroke-width="1.15789"/>
</g>
<g filter="url(#filter1_f_1_3691)">
<path d="M6.07895 4.47649L20.8421 13L6.07895 21.5235L6.07895 4.47649Z" stroke="#23FCFD" stroke-opacity="0.3" stroke-width="1.15789"/>
</g>
<path d="M6.7 5.55218L19.6 13L6.7 20.4478L6.7 5.55218Z" stroke="#23FCFD" stroke-width="2.4"/>
<path d="M6.7 5.55218L19.6 13L6.7 20.4478L6.7 5.55218Z" stroke="#23FCFD" stroke-width="2.4"/>
<path d="M102.956 12.7521C105.172 11.5937 105.943 9.79065 105.22 7.74809C104.917 6.93353 104.362 6.23306 103.632 5.74548C102.902 5.25789 102.034 5.0078 101.152 5.03048C98.2937 5.03048 95.4353 5.03049 92.5768 5C92.0539 5 92.1336 5.2613 92.1336 5.57487V17.5384C92.1336 18.5532 92.1336 19.5636 92.1336 20.587C92.1336 20.9049 92.2178 21.0225 92.5768 21.0225C95.679 20.9616 98.7546 21.1401 101.843 20.918C102.798 20.8764 103.709 20.5108 104.42 19.8834C105.131 19.2561 105.599 18.4058 105.743 17.4775C106.014 15.2346 105.048 13.5317 102.956 12.7521ZM95.6657 8.35345C95.6657 8.10521 95.6967 7.97455 96.0025 7.98326C97.3985 7.98326 98.7989 7.98326 100.195 7.98326C100.634 8.0142 101.045 8.21102 101.34 8.53251C101.635 8.85399 101.792 9.27523 101.778 9.70801C101.765 10.1408 101.581 10.5516 101.266 10.8544C100.951 11.1571 100.529 11.3284 100.089 11.3324C99.4371 11.3324 98.759 11.3324 98.1209 11.3324C97.4827 11.3324 96.7249 11.3324 96.0202 11.3324C95.7499 11.3324 95.6568 11.2714 95.6657 10.9927C95.6805 10.1216 95.6805 9.2419 95.6657 8.35345ZM102.047 16.8242C101.938 17.1527 101.723 17.4377 101.436 17.637C101.149 17.8362 100.804 17.9391 100.452 17.9304C99.7119 17.9609 96.8357 17.9304 96.1399 17.9609C95.7189 17.987 95.648 17.8389 95.6568 17.4775C95.6834 16.5629 95.679 15.657 95.6568 14.7511C95.6568 14.4637 95.679 14.3156 96.0513 14.3156C97.3808 14.3156 98.7635 14.3156 100.12 14.3156C101.626 14.3679 102.513 15.5438 102.047 16.8242Z" fill="white"/>
<path d="M41.5424 7.77833C40.5984 5.94917 38.9144 5.20444 36.9068 5.16525C34.4694 5.10863 32.0319 5.16525 29.6034 5.13477C29.0671 5.13477 28.9918 5.30461 29.0007 5.75755C29.0007 8.2182 29.0007 10.6745 29.0007 13.1351C29.0007 15.5958 29.0007 18.1348 29.0007 20.6347C29.0007 20.9962 29.0627 21.1486 29.4793 21.1355C30.3213 21.1007 31.1722 21.1007 32.0231 21.1355C32.4441 21.1355 32.5549 21.0136 32.5505 20.6086C32.5505 19.1017 32.5505 17.5904 32.5505 16.0836C32.5505 15.5871 32.6302 15.4129 33.1842 15.4303C34.5137 15.4782 35.8432 15.4913 37.1727 15.4303C37.9801 15.4371 38.7765 15.2454 39.4893 14.8727C40.2022 14.5 40.8089 13.9581 41.2543 13.2963C41.8197 12.4938 42.1462 11.5523 42.1971 10.5776C42.248 9.60282 42.0213 8.63342 41.5424 7.77833ZM36.9201 12.3251C35.5596 12.5559 34.1769 12.3861 32.8031 12.4209C32.5549 12.4209 32.546 12.2772 32.546 12.0943C32.546 10.8966 32.546 9.69894 32.546 8.50128C32.546 8.23126 32.6834 8.21384 32.8961 8.21384H34.7441C35.3779 8.21384 36.0116 8.179 36.6453 8.21384C37.1443 8.25789 37.6109 8.47535 37.9613 8.82714C38.3117 9.17893 38.523 9.64198 38.5571 10.1331C38.5913 10.6242 38.4461 11.1113 38.1477 11.5066C37.8493 11.902 37.4171 12.1799 36.929 12.2902L36.9201 12.3251Z" fill="white"/>
<path d="M79.4771 15.9094C79.4771 13.3703 79.5037 11.0229 79.4771 8.6755C79.4771 8.07014 79.6233 7.88722 80.2394 7.94384C80.8944 7.98957 81.552 7.98957 82.207 7.94384C82.6502 7.9177 82.7699 8.04401 82.7699 8.48387C82.7477 11.1928 82.7699 13.9017 82.7699 16.6106C82.7699 17.9519 82.7699 19.2977 82.7699 20.6391C82.7699 21.0179 82.6591 21.1747 82.2691 21.1225C82.1007 21.1007 80.1286 21.3141 79.5126 21.0179C78.8966 20.7218 78.5332 19.9205 78.059 19.3369C76.5197 17.4467 74.9804 15.5595 73.4411 13.6752C73.3436 13.5532 73.2328 13.44 73.0245 13.2092V15.1864C73.0245 16.9851 73.0245 18.7838 73.0245 20.5824C73.0245 21.0179 72.9093 21.1617 72.4573 21.1399C71.695 21.105 70.9328 21.1399 70.1705 21.1399C69.8514 21.1399 69.7274 21.0789 69.7274 20.7349C69.7274 16.6004 69.7274 12.4659 69.7274 8.33144C69.7274 8.01352 69.8337 7.95255 70.1262 7.9569C70.9771 7.9569 71.8236 7.98739 72.67 7.9569C73.0556 7.9569 73.1752 8.20514 73.3525 8.41854L79.0029 15.3519C79.1048 15.4826 79.2289 15.6219 79.4771 15.9094Z" fill="white"/>
<path d="M123.822 13.4837C124.734 13.4837 125.647 13.4837 126.556 13.4837C126.919 13.4837 127.088 13.5403 127.083 13.9497C127.061 15.4391 127.083 16.9286 127.083 18.418C127.092 18.5087 127.081 18.6002 127.051 18.6864C127.021 18.7727 126.973 18.8518 126.91 18.9189C123.476 22.4683 117.161 21.8717 114.785 17.9956C112.41 14.1195 114.16 8.4143 119.917 7.61731C122.576 7.26019 124.792 7.94394 126.565 9.96472C126.844 10.287 126.817 10.4307 126.427 10.6224C125.789 10.9403 125.182 11.3148 124.571 11.6763C124.327 11.8157 124.185 11.8679 123.941 11.6066C123.418 11.0149 122.716 10.6034 121.938 10.4325C121.159 10.2616 120.345 10.3404 119.616 10.6572C118.889 10.9443 118.267 11.4415 117.834 12.083C117.4 12.7245 117.175 13.4802 117.187 14.2502C117.187 16.4277 118.348 17.9738 120.409 18.3788C120.949 18.4917 121.507 18.4906 122.046 18.3757C122.586 18.2609 123.094 18.0348 123.538 17.7125C123.768 17.547 123.95 16.406 123.773 16.2318C123.596 16.0576 123.498 16.1664 123.356 16.1664C122.616 16.1664 121.872 16.1664 121.14 16.1664C120.773 16.1664 120.604 16.1142 120.631 15.7004C120.667 15.1203 120.667 14.5385 120.631 13.9584C120.631 13.5882 120.706 13.4532 121.118 13.4663C122 13.5055 122.913 13.4837 123.822 13.4837Z" fill="white"/>
<path d="M68.801 20.935C67.0549 16.728 65.3 12.5253 63.5672 8.30514C63.532 8.18849 63.4541 8.08878 63.3486 8.02524C63.243 7.9617 63.1172 7.93885 62.9955 7.96109C61.9984 7.96109 61.0012 7.99157 60.0041 7.96109C59.8217 7.93273 59.6351 7.9724 59.481 8.07232C59.3268 8.17224 59.2162 8.32518 59.1709 8.50112C57.7085 12.068 56.2194 15.6261 54.7392 19.1886C54.4314 19.815 54.1836 20.4682 53.9991 21.1397H56.215C57.6376 21.1397 57.6376 21.1397 58.1605 19.8027C58.2228 19.6743 58.2761 19.5419 58.3201 19.4064C58.3998 19.0667 58.5904 18.9709 58.9538 18.9709C60.0573 18.997 63.74 18.7357 64.2408 19.0928C64.684 19.4064 64.7682 20.1772 65.0075 20.7434C65.0268 20.7808 65.0417 20.8202 65.0518 20.861C65.084 20.9574 65.1494 21.0398 65.2368 21.0939C65.3242 21.1479 65.428 21.1703 65.5304 21.1571C66.6073 21.1571 67.6931 21.1571 68.7922 21.1571C68.8039 21.0837 68.8069 21.0092 68.801 20.935ZM59.4501 16.1923C60.0972 14.5591 60.7309 12.9695 61.4001 11.284C62.0693 12.9651 62.703 14.5678 63.3545 16.1923H59.4501Z" fill="white"/>
<path d="M44.1561 14.5115C44.1561 12.5038 44.1561 10.5005 44.1561 8.4971C44.1561 8.06158 44.2625 7.92221 44.7145 7.94835C45.4768 7.98319 46.239 7.98319 47.0013 7.94835C47.4178 7.94835 47.4799 8.079 47.4754 8.44048C47.4754 11.5413 47.4754 14.6378 47.4754 17.7387C47.4754 18.1742 47.5552 18.331 48.0516 18.3223C49.6824 18.2874 51.3133 18.3223 52.9264 18.3005C53.3164 18.3005 53.445 18.4007 53.4272 18.7839C53.3962 19.4241 53.4051 20.0643 53.4272 20.7045C53.4272 21.0312 53.3209 21.14 52.9841 21.14C50.1877 21.14 47.3912 21.14 44.5948 21.14C44.1916 21.14 44.1517 20.9746 44.1517 20.6566C44.1605 18.601 44.1561 16.5802 44.1561 14.5115Z" fill="white"/>
<path d="M111.451 14.5857C111.451 16.5891 111.451 18.5925 111.451 20.5958C111.451 21.0313 111.322 21.1533 110.884 21.1315C110.121 21.0967 109.359 21.1315 108.597 21.1315C108.273 21.1315 108.154 21.0488 108.154 20.696C108.154 16.5906 108.154 12.4822 108.154 8.37097C108.154 7.98337 108.318 7.93546 108.646 7.93546C109.408 7.93546 110.17 7.96159 110.932 7.93546C111.349 7.91368 111.455 8.03998 111.451 8.44066C111.442 10.4832 111.451 12.5432 111.451 14.5857Z" fill="white"/>
<defs>
<filter id="filter0_f_1_3691" x="3.18421" y="1.15784" width="21.1316" height="23.6843" filterUnits="userSpaceOnUse" color-interpolation-filters="sRGB">
<feFlood flood-opacity="0" result="BackgroundImageFix"/>
<feBlend mode="normal" in="SourceGraphic" in2="BackgroundImageFix" result="shape"/>
<feGaussianBlur stdDeviation="1.15789" result="effect1_foregroundBlur_1_3691"/>
</filter>
<filter id="filter1_f_1_3691" x="3.18421" y="1.15784" width="21.1316" height="23.6843" filterUnits="userSpaceOnUse" color-interpolation-filters="sRGB">
<feFlood flood-opacity="0" result="BackgroundImageFix"/>
<feBlend mode="normal" in="SourceGraphic" in2="BackgroundImageFix" result="shape"/>
<feGaussianBlur stdDeviation="1.15789" result="effect1_foregroundBlur_1_3691"/>
</filter>
</defs>
</svg>
