<svg width="68" height="68" viewBox="0 0 68 68" fill="none" xmlns="http://www.w3.org/2000/svg">
<path opacity="0.7" d="M55.9469 54.0786L43.2525 41.2602C45.9708 38.002 47.6069 33.7988 47.6069 29.2096C47.6069 18.8543 39.287 10.458 28.9693 10.458C18.6515 10.458 10.2871 18.8529 10.2871 29.2081C10.2871 39.5634 18.6515 47.9582 28.9693 47.9582C33.6796 47.9582 37.9695 46.2038 41.2446 43.3186L53.9161 56.1154C54.4759 56.6772 55.3858 56.6772 55.9455 56.1154C56.5052 55.5536 56.5067 54.6404 55.9455 54.0772L55.9469 54.0786ZM28.9449 45.0298C20.2647 45.0298 13.1575 37.8983 13.1575 29.1851C13.1575 20.4719 20.2647 13.3403 28.9449 13.3403C37.625 13.3403 44.7322 20.4733 44.7322 29.1851C44.7322 37.8968 37.6265 45.0298 28.9449 45.0298ZM36.1209 27.7446H30.3801V21.9829C30.3801 21.1878 29.7371 20.5425 28.9449 20.5425C28.1526 20.5425 27.5097 21.1878 27.5097 21.9829V27.7446H21.7688C20.9766 27.7446 20.3336 28.39 20.3336 29.1851C20.3336 29.9802 20.9766 30.6255 21.7688 30.6255H27.5097V36.3872C27.5097 37.1824 28.1526 37.8277 28.9449 37.8277C29.7371 37.8277 30.3801 37.1824 30.3801 36.3872V30.6255H36.1209C36.9132 30.6255 37.5561 29.9802 37.5561 29.1851C37.5561 28.39 36.9132 27.7446 36.1209 27.7446Z" fill="#D5D5D5" fill-opacity="0.7"/>
</svg>
