<svg width="187" height="204" viewBox="0 0 187 204" fill="none" xmlns="http://www.w3.org/2000/svg">
<g filter="url(#filter0_f_23_6004)">
<path d="M167.677 90.8879L21.7608 4.70119C19.8572 3.58651 17.7013 3 15.5073 3C13.3132 3 11.1573 3.58651 9.2537 4.70119C7.34643 5.8179 5.76291 7.43106 4.6644 9.37653C3.56589 11.322 2.99163 13.5302 3.00014 15.7762V188.221C2.98956 190.458 3.56358 192.657 4.66292 194.591C5.76226 196.526 7.34708 198.125 9.2537 199.225C11.1597 200.404 13.3488 201.018 15.5768 201C17.758 200.996 19.8966 200.382 21.7608 199.225L167.677 113.038C169.582 111.931 171.169 110.331 172.279 108.4C173.389 106.469 173.982 104.273 174 102.034C173.992 99.7733 173.405 97.5542 172.295 95.5984C171.185 93.6425 169.593 92.0182 167.677 90.8879ZM163.577 105.655L17.6612 191.841C17.041 192.254 16.3168 192.473 15.5768 192.473C14.8367 192.473 14.1125 192.254 13.4922 191.841C12.8635 191.479 12.3397 190.953 11.9736 190.317C11.6076 189.682 11.4124 188.958 11.4077 188.221V15.7762C11.4141 15.0295 11.6095 14.297 11.9747 13.6502C12.34 13.0033 12.8627 12.464 13.4922 12.0845C14.126 11.7107 14.8449 11.5138 15.5768 11.5138C16.3086 11.5138 17.0275 11.7107 17.6612 12.0845L163.577 98.2712C164.209 98.6603 164.728 99.2136 165.082 99.8746C165.436 100.536 165.612 101.281 165.592 102.034C165.602 102.766 165.42 103.487 165.066 104.124C164.712 104.76 164.198 105.289 163.577 105.655Z" fill="#23FCFD"/>
</g>
<g filter="url(#filter1_f_23_6004)">
<path d="M124.397 94.5131L36.8787 44.215C35.4641 43.4186 33.8663 43 32.2408 43C30.6154 43 29.0176 43.4186 27.6029 44.215C26.204 45.0267 25.0432 46.1886 24.2357 47.5852C23.4282 48.9817 23.0023 50.5642 23.0004 52.1754V152.842C22.9856 154.447 23.4052 156.026 24.215 157.414C25.0247 158.803 26.1949 159.948 27.6029 160.732C29.0302 161.535 30.6366 161.971 32.2763 162C33.8909 161.954 35.4703 161.519 36.8787 160.732L124.397 110.434C125.796 109.639 126.958 108.491 127.766 107.105C128.574 105.72 129 104.146 129 102.544C128.996 100.924 128.57 99.332 127.764 97.9245C126.957 96.5169 125.797 95.3415 124.397 94.5131ZM120.149 103.107L32.5594 153.406L31.4265 152.842V51.8231L32.5594 51.1891L120.149 101.558V103.107Z" fill="#23FCFD"/>
</g>
<g filter="url(#filter2_f_23_6004)">
<path d="M177.677 90.8879L31.7608 4.70119C29.8572 3.58651 27.7013 3 25.5073 3C23.3132 3 21.1573 3.58651 19.2537 4.70119C17.3464 5.8179 15.7629 7.43106 14.6644 9.37653C13.5659 11.322 12.9916 13.5302 13.0001 15.7762V188.221C12.9896 190.458 13.5636 192.657 14.6629 194.591C15.7623 196.526 17.3471 198.125 19.2537 199.225C21.1597 200.404 23.3488 201.018 25.5768 201C27.758 200.996 29.8966 200.382 31.7608 199.225L177.677 113.038C179.582 111.931 181.169 110.331 182.279 108.4C183.389 106.469 183.982 104.273 184 102.034C183.992 99.7733 183.405 97.5542 182.295 95.5984C181.185 93.6425 179.593 92.0182 177.677 90.8879ZM173.577 105.655L27.6612 191.841C27.041 192.254 26.3168 192.473 25.5768 192.473C24.8367 192.473 24.1125 192.254 23.4922 191.841C22.8635 191.479 22.3397 190.953 21.9736 190.317C21.6076 189.682 21.4124 188.958 21.4077 188.221V15.7762C21.4141 15.0295 21.6095 14.297 21.9747 13.6502C22.34 13.0033 22.8627 12.464 23.4922 12.0845C24.126 11.7107 24.8449 11.5138 25.5768 11.5138C26.3086 11.5138 27.0275 11.7107 27.6612 12.0845L173.577 98.2712C174.209 98.6603 174.728 99.2136 175.082 99.8746C175.436 100.536 175.612 101.281 175.592 102.034C175.602 102.766 175.42 103.487 175.066 104.124C174.712 104.76 174.198 105.289 173.577 105.655Z" fill="#23FCFD" fill-opacity="0.3"/>
</g>
<g filter="url(#filter3_f_23_6004)">
<path d="M134.397 94.5131L46.8787 44.215C45.4641 43.4186 43.8663 43 42.2408 43C40.6154 43 39.0176 43.4186 37.6029 44.215C36.204 45.0267 35.0432 46.1886 34.2357 47.5852C33.4282 48.9817 33.0023 50.5642 33.0004 52.1754V152.842C32.9856 154.447 33.4052 156.026 34.215 157.414C35.0247 158.803 36.1949 159.948 37.6029 160.732C39.0302 161.535 40.6366 161.971 42.2763 162C43.8909 161.954 45.4703 161.519 46.8787 160.732L134.397 110.434C135.796 109.639 136.958 108.491 137.766 107.105C138.574 105.72 139 104.146 139 102.544C138.996 100.924 138.57 99.332 137.764 97.9245C136.957 96.5169 135.797 95.3415 134.397 94.5131ZM130.149 103.107L42.5594 153.406L41.4265 152.842V51.8231L42.5594 51.1891L130.149 101.558V103.107Z" fill="#23FCFD" fill-opacity="0.3"/>
</g>
<path d="M167.677 90.8879L21.7608 4.70119C19.8572 3.58651 17.7013 3 15.5073 3C13.3132 3 11.1573 3.58651 9.2537 4.70119C7.34643 5.8179 5.76291 7.43106 4.6644 9.37653C3.56589 11.322 2.99163 13.5302 3.00014 15.7762V188.221C2.98956 190.458 3.56358 192.657 4.66292 194.591C5.76226 196.526 7.34708 198.125 9.2537 199.225C11.1597 200.404 13.3488 201.018 15.5768 201C17.758 200.996 19.8966 200.382 21.7608 199.225L167.677 113.038C169.582 111.931 171.169 110.331 172.279 108.4C173.389 106.469 173.982 104.273 174 102.034C173.992 99.7733 173.405 97.5542 172.295 95.5984C171.185 93.6425 169.593 92.0182 167.677 90.8879ZM163.577 105.655L17.6612 191.841C17.041 192.254 16.3168 192.473 15.5768 192.473C14.8367 192.473 14.1125 192.254 13.4922 191.841C12.8635 191.479 12.3397 190.953 11.9736 190.317C11.6076 189.682 11.4124 188.958 11.4077 188.221V15.7762C11.4141 15.0295 11.6095 14.297 11.9747 13.6502C12.34 13.0033 12.8627 12.464 13.4922 12.0845C14.126 11.7107 14.8449 11.5138 15.5768 11.5138C16.3086 11.5138 17.0275 11.7107 17.6612 12.0845L163.577 98.2712C164.209 98.6603 164.728 99.2136 165.082 99.8746C165.436 100.536 165.612 101.281 165.592 102.034C165.602 102.766 165.42 103.487 165.066 104.124C164.712 104.76 164.198 105.289 163.577 105.655Z" fill="#23FCFD"/>
<path d="M177.677 90.8879L31.7608 4.70119C29.8572 3.58651 27.7013 3 25.5073 3C23.3132 3 21.1573 3.58651 19.2537 4.70119C17.3464 5.8179 15.7629 7.43106 14.6644 9.37653C13.5659 11.322 12.9916 13.5302 13.0001 15.7762V188.221C12.9896 190.458 13.5636 192.657 14.6629 194.591C15.7623 196.526 17.3471 198.125 19.2537 199.225C21.1597 200.404 23.3488 201.018 25.5768 201C27.758 200.996 29.8966 200.382 31.7608 199.225L177.677 113.038C179.582 111.931 181.169 110.331 182.279 108.4C183.389 106.469 183.982 104.273 184 102.034C183.992 99.7733 183.405 97.5542 182.295 95.5984C181.185 93.6425 179.593 92.0182 177.677 90.8879ZM173.577 105.655L27.6612 191.841C27.041 192.254 26.3168 192.473 25.5768 192.473C24.8367 192.473 24.1125 192.254 23.4922 191.841C22.8635 191.479 22.3397 190.953 21.9736 190.317C21.6076 189.682 21.4124 188.958 21.4077 188.221V15.7762C21.4141 15.0295 21.6095 14.297 21.9747 13.6502C22.34 13.0033 22.8627 12.464 23.4922 12.0845C24.126 11.7107 24.8449 11.5138 25.5768 11.5138C26.3086 11.5138 27.0275 11.7107 27.6612 12.0845L173.577 98.2712C174.209 98.6603 174.728 99.2136 175.082 99.8746C175.436 100.536 175.612 101.281 175.592 102.034C175.602 102.766 175.42 103.487 175.066 104.124C174.712 104.76 174.198 105.289 173.577 105.655Z" fill="#23FCFD" fill-opacity="0.15"/>
<path d="M124.397 94.5131L36.8787 44.215C35.4641 43.4186 33.8663 43 32.2408 43C30.6154 43 29.0176 43.4186 27.6029 44.215C26.204 45.0267 25.0432 46.1886 24.2357 47.5852C23.4282 48.9817 23.0023 50.5642 23.0004 52.1754V152.842C22.9856 154.447 23.4052 156.026 24.215 157.414C25.0247 158.803 26.1949 159.948 27.6029 160.732C29.0302 161.535 30.6366 161.971 32.2763 162C33.8909 161.954 35.4703 161.519 36.8787 160.732L124.397 110.434C125.796 109.639 126.958 108.491 127.766 107.105C128.574 105.72 129 104.146 129 102.544C128.996 100.924 128.57 99.332 127.764 97.9245C126.957 96.5169 125.797 95.3415 124.397 94.5131ZM120.149 103.107L32.5594 153.406L31.4265 152.842V51.8231L32.5594 51.1891L120.149 101.558V103.107Z" fill="#23FCFD"/>
<path d="M134.397 94.5131L46.8787 44.215C45.4641 43.4186 43.8663 43 42.2408 43C40.6154 43 39.0176 43.4186 37.6029 44.215C36.204 45.0267 35.0432 46.1886 34.2357 47.5852C33.4282 48.9817 33.0023 50.5642 33.0004 52.1754V152.842C32.9856 154.447 33.4052 156.026 34.215 157.414C35.0247 158.803 36.1949 159.948 37.6029 160.732C39.0302 161.535 40.6366 161.971 42.2763 162C43.8909 161.954 45.4703 161.519 46.8787 160.732L134.397 110.434C135.796 109.639 136.958 108.491 137.766 107.105C138.574 105.72 139 104.146 139 102.544C138.996 100.924 138.57 99.332 137.764 97.9245C136.957 96.5169 135.797 95.3415 134.397 94.5131ZM130.149 103.107L42.5594 153.406L41.4265 152.842V51.8231L42.5594 51.1891L130.149 101.558V103.107Z" fill="#23FCFD" fill-opacity="0.15"/>
<defs>
<filter id="filter0_f_23_6004" x="0.120301" y="0.120301" width="176.759" height="203.759" filterUnits="userSpaceOnUse" color-interpolation-filters="sRGB">
<feFlood flood-opacity="0" result="BackgroundImageFix"/>
<feBlend mode="normal" in="SourceGraphic" in2="BackgroundImageFix" result="shape"/>
<feGaussianBlur stdDeviation="1.43985" result="effect1_foregroundBlur_23_6004"/>
</filter>
<filter id="filter1_f_23_6004" x="20.1203" y="40.1203" width="111.759" height="124.759" filterUnits="userSpaceOnUse" color-interpolation-filters="sRGB">
<feFlood flood-opacity="0" result="BackgroundImageFix"/>
<feBlend mode="normal" in="SourceGraphic" in2="BackgroundImageFix" result="shape"/>
<feGaussianBlur stdDeviation="1.43985" result="effect1_foregroundBlur_23_6004"/>
</filter>
<filter id="filter2_f_23_6004" x="10.1203" y="0.120301" width="176.759" height="203.759" filterUnits="userSpaceOnUse" color-interpolation-filters="sRGB">
<feFlood flood-opacity="0" result="BackgroundImageFix"/>
<feBlend mode="normal" in="SourceGraphic" in2="BackgroundImageFix" result="shape"/>
<feGaussianBlur stdDeviation="1.43985" result="effect1_foregroundBlur_23_6004"/>
</filter>
<filter id="filter3_f_23_6004" x="30.1203" y="40.1203" width="111.759" height="124.759" filterUnits="userSpaceOnUse" color-interpolation-filters="sRGB">
<feFlood flood-opacity="0" result="BackgroundImageFix"/>
<feBlend mode="normal" in="SourceGraphic" in2="BackgroundImageFix" result="shape"/>
<feGaussianBlur stdDeviation="1.43985" result="effect1_foregroundBlur_23_6004"/>
</filter>
</defs>
</svg>
