<svg width="20" height="31" viewBox="0 0 20 31" fill="none" xmlns="http://www.w3.org/2000/svg">
<path d="M9.07545 20.5725C9.58606 21.0831 10.4139 21.0831 10.9245 20.5725L19.2455 12.2516C19.7561 11.7409 19.7561 10.9131 19.2455 10.4025C18.7349 9.89185 17.907 9.89185 17.3964 10.4025L10 17.7988L2.60363 10.4025C2.09302 9.89184 1.26515 9.89184 0.75454 10.4025C0.243926 10.9131 0.243926 11.7409 0.754539 12.2515L9.07545 20.5725ZM8.69249 18.3521L8.69249 19.6479L11.3075 19.6479L11.3075 18.3521L8.69249 18.3521Z" fill="url(#paint0_linear_60_3)"/>
<path d="M9.07545 11.2204C9.58606 11.731 10.4139 11.731 10.9245 11.2204L19.2455 2.8995C19.7561 2.38889 19.7561 1.56102 19.2455 1.05041C18.7349 0.539798 17.907 0.539797 17.3964 1.05041L10 8.44678L2.60363 1.0504C2.09302 0.539788 1.26515 0.539788 0.75454 1.0504C0.243926 1.56101 0.243926 2.38888 0.754538 2.89949L9.07545 11.2204ZM8.69249 9L8.69249 10.2959L11.3075 10.2959L11.3075 9L8.69249 9Z" fill="url(#paint1_linear_60_3)"/>
<path d="M9.07545 29.9245C9.58606 30.4351 10.4139 30.4351 10.9245 29.9245L19.2455 21.6036C19.7561 21.093 19.7561 20.2651 19.2455 19.7545C18.7349 19.2439 17.907 19.2439 17.3964 19.7545L10 27.1509L2.60363 19.7545C2.09302 19.2439 1.26515 19.2439 0.75454 19.7545C0.243926 20.2651 0.243926 21.093 0.754539 21.6036L9.07545 29.9245ZM8.69249 27.7041L8.69249 29L11.3075 29L11.3075 27.7041L8.69249 27.7041Z" fill="url(#paint2_linear_60_3)"/>
<defs>
<linearGradient id="paint0_linear_60_3" x1="-4" y1="7.35205" x2="22.5" y2="22.8521" gradientUnits="userSpaceOnUse">
<stop stop-color="#0075FF"/>
<stop offset="1" stop-color="#0075FF"/>
</linearGradient>
<linearGradient id="paint1_linear_60_3" x1="-4" y1="-2" x2="22.5" y2="13.5" gradientUnits="userSpaceOnUse">
<stop stop-color="#00EDFF"/>
<stop offset="1" stop-color="#00C2FF"/>
</linearGradient>
<linearGradient id="paint2_linear_60_3" x1="-4" y1="16.7041" x2="13" y2="32.5" gradientUnits="userSpaceOnUse">
<stop offset="1" stop-color="#0029FF"/>
</linearGradient>
</defs>
</svg>
