<svg width="16" height="25" viewBox="0 0 16 25" fill="none" xmlns="http://www.w3.org/2000/svg">
<path d="M8.37166 0.292894C7.98113 -0.0976309 7.34797 -0.0976313 6.95744 0.292893L0.59348 6.65685C0.202956 7.04737 0.202955 7.68054 0.59348 8.07106C0.984004 8.46159 1.61717 8.46159 2.00769 8.07106L7.66455 2.41421L13.3214 8.07107C13.7119 8.4616 14.3451 8.4616 14.7356 8.07107C15.1261 7.68055 15.1261 7.04738 14.7356 6.65686L8.37166 0.292894ZM8.66455 2L8.66455 1L6.66455 0.999999L6.66455 2L8.66455 2Z" fill="#00EDFF"/>
<path d="M8.37166 8.29289C7.98113 7.90237 7.34797 7.90237 6.95744 8.29289L0.59348 14.6569C0.202956 15.0474 0.202955 15.6805 0.59348 16.0711C0.984004 16.4616 1.61717 16.4616 2.00769 16.0711L7.66455 10.4142L13.3214 16.0711C13.7119 16.4616 14.3451 16.4616 14.7356 16.0711C15.1261 15.6805 15.1261 15.0474 14.7356 14.6569L8.37166 8.29289ZM8.66455 10L8.66455 9L6.66455 9L6.66455 10L8.66455 10Z" fill="#00EDFF"/>
<path d="M8.37166 16.2929C7.98113 15.9024 7.34797 15.9024 6.95744 16.2929L0.59348 22.6569C0.202956 23.0474 0.202955 23.6805 0.59348 24.0711C0.984004 24.4616 1.61717 24.4616 2.00769 24.0711L7.66455 18.4142L13.3214 24.0711C13.7119 24.4616 14.3451 24.4616 14.7356 24.0711C15.1261 23.6805 15.1261 23.0474 14.7356 22.6569L8.37166 16.2929ZM8.66455 18L8.66455 17L6.66455 17L6.66455 18L8.66455 18Z" fill="#00EDFF"/>
</svg>
