<svg width="15" height="27" viewBox="0 0 15 27" fill="none" xmlns="http://www.w3.org/2000/svg">
<path d="M6.76683 25.7136C7.15735 26.1041 7.79052 26.1041 8.18104 25.7136L14.545 19.3496C14.9355 18.9591 14.9355 18.3259 14.545 17.9354C14.1545 17.5449 13.5213 17.5449 13.1308 17.9354L7.47394 23.5923L1.81709 17.9354C1.42656 17.5449 0.793398 17.5449 0.402873 17.9354C0.0123489 18.3259 0.0123486 18.9591 0.402873 19.3496L6.76683 25.7136ZM6.47394 23.9473L6.47394 25.0065L8.47394 25.0065L8.47394 23.9473L6.47394 23.9473Z" fill="#353535"/>
<path d="M6.76701 17.2399C7.15754 17.6305 7.7907 17.6305 8.18123 17.24L14.5452 10.876C14.9357 10.4855 14.9357 9.8523 14.5452 9.46178C14.1547 9.07126 13.5215 9.07125 13.131 9.46178L7.47412 15.1186L1.81727 9.46177C1.42675 9.07125 0.793581 9.07125 0.403057 9.46177C0.012532 9.8523 0.0125317 10.4855 0.403056 10.876L6.76701 17.2399ZM6.47412 15.4736L6.47412 16.5328L8.47412 16.5328L8.47412 15.4736L6.47412 15.4736Z" fill="#353535"/>
<path d="M6.76701 8.76632C7.15754 9.15684 7.7907 9.15684 8.18123 8.76632L14.5452 2.40236C14.9357 2.01184 14.9357 1.37867 14.5452 0.988147C14.1547 0.597622 13.5215 0.597622 13.131 0.988146L7.47412 6.645L1.81727 0.988139C1.42675 0.597615 0.793581 0.597614 0.403057 0.988138C0.012532 1.37866 0.0125317 2.01183 0.403056 2.40235L6.76701 8.76632ZM6.47412 7L6.47412 8.05921L8.47412 8.05921L8.47412 7L6.47412 7Z" fill="#353535"/>
</svg>
