<svg width="210" height="29" viewBox="0 0 210 29" fill="none" xmlns="http://www.w3.org/2000/svg">
<g clip-path="url(#clip0_0_7624)">
<g filter="url(#filter0_f_0_7624)">
<path d="M16.479 13.6275L6.57118 8.13273C6.41103 8.04573 6.23014 8 6.04613 8C5.86212 8 5.68124 8.04573 5.52108 8.13273C5.36272 8.2214 5.2313 8.34833 5.13989 8.5009C5.04848 8.65346 5.00027 8.82635 5.00004 9.00235V19.9996C4.99838 20.1749 5.04587 20.3474 5.13754 20.4991C5.22921 20.6507 5.36169 20.7759 5.52108 20.8615C5.68266 20.9492 5.86452 20.9969 6.05014 21C6.23294 20.995 6.41173 20.9474 6.57118 20.8615L16.479 15.3667C16.6372 15.2799 16.7688 15.1544 16.8603 15.0031C16.9518 14.8517 17 14.6798 17 14.5048C16.9996 14.3278 16.9513 14.1539 16.86 14.0002C16.7687 13.8464 16.6374 13.718 16.479 13.6275ZM15.998 14.5664L6.0822 20.0611L5.95395 19.9996V8.96387L6.0822 8.89461L15.998 14.3971V14.5664Z" fill="#23FCFD"/>
</g>
<g filter="url(#filter1_f_0_7624)">
<path d="M26.0975 13.0099L2.71499 0.228705C2.43919 0.0788574 2.12673 0 1.80872 0C1.49072 0 1.17826 0.0788574 0.902458 0.228705C0.626081 0.37796 0.396762 0.594283 0.238149 0.855372C0.0795352 1.11646 -0.00263366 1.41287 0.00011204 1.71403V27.2765C-0.00345831 27.5778 0.0783624 27.8745 0.237059 28.1357C0.395756 28.3969 0.625529 28.6131 0.902458 28.7618C1.17607 28.9176 1.48938 29 1.80872 29C2.12807 29 2.44137 28.9176 2.71499 28.7618L26.0975 15.9806C26.375 15.8325 26.6052 15.6165 26.764 15.3551C26.9228 15.0937 27.0042 14.7967 26.9998 14.4952C27.001 14.1944 26.9181 13.8986 26.7596 13.6378C26.6012 13.3769 26.3728 13.1604 26.0975 13.0099ZM25.6267 15.1934L2.2442 27.982C2.11207 28.0551 1.96177 28.0936 1.80872 28.0936C1.65568 28.0936 1.50538 28.0551 1.37324 27.982C1.23667 27.9077 1.12468 27.7989 1.04984 27.6677C0.974992 27.5365 0.940257 27.3882 0.949535 27.2393V1.7066C0.941158 1.5579 0.976279 1.40989 1.05103 1.27886C1.12579 1.14784 1.23728 1.03886 1.37324 0.963934C1.50882 0.896507 1.6595 0.860852 1.81265 0.859961C1.96302 0.862843 2.11068 0.898417 2.2442 0.963934L25.6267 13.7526C25.765 13.8262 25.8791 13.9345 25.9567 14.0655C26.0342 14.1965 26.072 14.3452 26.0661 14.4952C26.0618 14.6345 26.019 14.7702 25.9419 14.8888C25.8648 15.0074 25.7561 15.1047 25.6267 15.1711V15.1934Z" fill="#23FCFD"/>
</g>
<g filter="url(#filter2_f_0_7624)">
<path d="M21.2974 13.3214L5.08454 4.18043C4.87302 4.06221 4.63348 4 4.3897 4C4.14591 4 3.90637 4.06221 3.69486 4.18043C3.48294 4.29887 3.30699 4.46996 3.18493 4.6763C3.06288 4.88264 2.99907 5.11684 3.00002 5.35506V23.6446C2.99884 23.8819 3.06262 24.1151 3.18477 24.3203C3.30692 24.5255 3.48301 24.6951 3.69486 24.8117C3.90663 24.9368 4.14987 25.0019 4.39742 25C4.63978 24.9995 4.8774 24.9344 5.08454 24.8117L21.2974 15.6707C21.5091 15.5533 21.6855 15.3836 21.8088 15.1788C21.9321 14.974 21.998 14.7411 22 14.5036C21.9992 14.2638 21.9338 14.0285 21.8106 13.821C21.6873 13.6136 21.5103 13.4413 21.2974 13.3214ZM20.8419 14.8876L4.62903 24.0286C4.56011 24.0724 4.47965 24.0957 4.39742 24.0957C4.31519 24.0957 4.23472 24.0724 4.1658 24.0286C4.09595 23.9902 4.03774 23.9344 3.99707 23.867C3.9564 23.7996 3.93471 23.7228 3.93419 23.6446V5.35506C3.9349 5.27585 3.95661 5.19817 3.99719 5.12957C4.03777 5.06096 4.09586 5.00376 4.1658 4.96351C4.23622 4.92386 4.3161 4.90298 4.39742 4.90298C4.47873 4.90298 4.55861 4.92386 4.62903 4.96351L20.8419 14.1045C20.9121 14.1458 20.9698 14.2045 21.0091 14.2746C21.0485 14.3447 21.068 14.4237 21.0658 14.5036C21.0669 14.5812 21.0467 14.6578 21.0073 14.7253C20.968 14.7927 20.9109 14.8488 20.8419 14.8876Z" fill="#23FCFD"/>
</g>
<g filter="url(#filter3_f_0_7624)">
<path d="M16.479 13.6275L6.57118 8.13273C6.41103 8.04573 6.23014 8 6.04613 8C5.86212 8 5.68124 8.04573 5.52108 8.13273C5.36272 8.2214 5.2313 8.34833 5.13989 8.5009C5.04848 8.65346 5.00027 8.82635 5.00004 9.00235V19.9996C4.99838 20.1749 5.04587 20.3474 5.13754 20.4991C5.22921 20.6507 5.36169 20.7759 5.52108 20.8615C5.68266 20.9492 5.86452 20.9969 6.05014 21C6.23294 20.995 6.41173 20.9474 6.57118 20.8615L16.479 15.3667C16.6372 15.2799 16.7688 15.1544 16.8603 15.0031C16.9518 14.8517 17 14.6798 17 14.5048C16.9996 14.3278 16.9513 14.1539 16.86 14.0002C16.7687 13.8464 16.6374 13.718 16.479 13.6275ZM15.998 14.5664L6.0822 20.0611L5.95395 19.9996V8.96387L6.0822 8.89461L15.998 14.3971V14.5664Z" fill="#23FCFD"/>
</g>
<path d="M26.0975 13.0099L2.71499 0.228705C2.43919 0.0788574 2.12673 0 1.80872 0C1.49072 0 1.17826 0.0788574 0.902458 0.228705C0.626081 0.37796 0.396762 0.594283 0.238149 0.855372C0.0795352 1.11646 -0.00263366 1.41287 0.00011204 1.71403V27.2765C-0.00345831 27.5778 0.0783624 27.8745 0.237059 28.1357C0.395756 28.3969 0.625529 28.6131 0.902458 28.7618C1.17607 28.9176 1.48938 29 1.80872 29C2.12807 29 2.44137 28.9176 2.71499 28.7618L26.0975 15.9806C26.375 15.8325 26.6052 15.6165 26.764 15.3551C26.9228 15.0937 27.0042 14.7967 26.9998 14.4952C27.001 14.1944 26.9181 13.8986 26.7596 13.6378C26.6012 13.3769 26.3728 13.1604 26.0975 13.0099ZM25.6267 15.1934L2.2442 27.982C2.11207 28.0551 1.96177 28.0936 1.80872 28.0936C1.65568 28.0936 1.50538 28.0551 1.37324 27.982C1.23667 27.9077 1.12468 27.7989 1.04984 27.6677C0.974992 27.5365 0.940257 27.3882 0.949535 27.2393V1.7066C0.941158 1.5579 0.976279 1.40989 1.05103 1.27886C1.12579 1.14784 1.23728 1.03886 1.37324 0.963934C1.50882 0.896507 1.6595 0.860852 1.81265 0.859961C1.96302 0.862843 2.11068 0.898417 2.2442 0.963934L25.6267 13.7526C25.765 13.8262 25.8791 13.9345 25.9567 14.0655C26.0342 14.1965 26.072 14.3452 26.0661 14.4952C26.0618 14.6345 26.019 14.7702 25.9419 14.8888C25.8648 15.0074 25.7561 15.1047 25.6267 15.1711V15.1934Z" fill="#23FCFD"/>
<g filter="url(#filter4_f_0_7624)">
<path d="M26.0975 13.0099L2.71499 0.228705C2.43919 0.0788574 2.12673 0 1.80872 0C1.49072 0 1.17826 0.0788574 0.902458 0.228705C0.626081 0.37796 0.396762 0.594283 0.238149 0.855372C0.0795352 1.11646 -0.00263366 1.41287 0.00011204 1.71403V27.2765C-0.00345831 27.5778 0.0783624 27.8745 0.237059 28.1357C0.395756 28.3969 0.625529 28.6131 0.902458 28.7618C1.17607 28.9176 1.48938 29 1.80872 29C2.12807 29 2.44137 28.9176 2.71499 28.7618L26.0975 15.9806C26.375 15.8325 26.6052 15.6165 26.764 15.3551C26.9228 15.0937 27.0042 14.7967 26.9998 14.4952C27.001 14.1944 26.9181 13.8986 26.7596 13.6378C26.6012 13.3769 26.3728 13.1604 26.0975 13.0099ZM25.6267 15.1934L2.2442 27.982C2.11207 28.0551 1.96177 28.0936 1.80872 28.0936C1.65568 28.0936 1.50538 28.0551 1.37324 27.982C1.23667 27.9077 1.12468 27.7989 1.04984 27.6677C0.974992 27.5365 0.940257 27.3882 0.949535 27.2393V1.7066C0.941158 1.5579 0.976279 1.40989 1.05103 1.27886C1.12579 1.14784 1.23728 1.03886 1.37324 0.963934C1.50882 0.896507 1.6595 0.860852 1.81265 0.859961C1.96302 0.862843 2.11068 0.898417 2.2442 0.963934L25.6267 13.7526C25.765 13.8262 25.8791 13.9345 25.9567 14.0655C26.0342 14.1965 26.072 14.3452 26.0661 14.4952C26.0618 14.6345 26.019 14.7702 25.9419 14.8888C25.8648 15.0074 25.7561 15.1047 25.6267 15.1711V15.1934Z" fill="#23FCFD"/>
</g>
<path d="M21.2974 13.3214L5.08454 4.18043C4.87302 4.06221 4.63348 4 4.3897 4C4.14591 4 3.90637 4.06221 3.69486 4.18043C3.48294 4.29887 3.30699 4.46996 3.18493 4.6763C3.06288 4.88264 2.99907 5.11684 3.00002 5.35506V23.6446C2.99884 23.8819 3.06262 24.1151 3.18477 24.3203C3.30692 24.5255 3.48301 24.6951 3.69486 24.8117C3.90663 24.9368 4.14987 25.0019 4.39742 25C4.63978 24.9995 4.8774 24.9344 5.08454 24.8117L21.2974 15.6707C21.5091 15.5533 21.6855 15.3836 21.8088 15.1788C21.9321 14.974 21.998 14.7411 22 14.5036C21.9992 14.2638 21.9338 14.0285 21.8106 13.821C21.6873 13.6136 21.5103 13.4413 21.2974 13.3214ZM20.8419 14.8876L4.62903 24.0286C4.56011 24.0724 4.47965 24.0957 4.39742 24.0957C4.31519 24.0957 4.23472 24.0724 4.1658 24.0286C4.09595 23.9902 4.03774 23.9344 3.99707 23.867C3.9564 23.7996 3.93471 23.7228 3.93419 23.6446V5.35506C3.9349 5.27585 3.95661 5.19817 3.99719 5.12957C4.03777 5.06096 4.09586 5.00376 4.1658 4.96351C4.23622 4.92386 4.3161 4.90298 4.39742 4.90298C4.47873 4.90298 4.55861 4.92386 4.62903 4.96351L20.8419 14.1045C20.9121 14.1458 20.9698 14.2045 21.0091 14.2746C21.0485 14.3447 21.068 14.4237 21.0658 14.5036C21.0669 14.5812 21.0467 14.6578 21.0073 14.7253C20.968 14.7927 20.9109 14.8488 20.8419 14.8876Z" fill="#23FCFD"/>
<path d="M16.479 13.6275L6.57118 8.13273C6.41103 8.04573 6.23014 8 6.04613 8C5.86212 8 5.68124 8.04573 5.52108 8.13273C5.36272 8.2214 5.2313 8.34833 5.13989 8.5009C5.04848 8.65346 5.00027 8.82635 5.00004 9.00235V19.9996C4.99838 20.1749 5.04587 20.3474 5.13754 20.4991C5.22921 20.6507 5.36169 20.7759 5.52108 20.8615C5.68266 20.9492 5.86452 20.9969 6.05014 21C6.23294 20.995 6.41173 20.9474 6.57118 20.8615L16.479 15.3667C16.6372 15.2799 16.7688 15.1544 16.8603 15.0031C16.9518 14.8517 17 14.6798 17 14.5048C16.9996 14.3278 16.9513 14.1539 16.86 14.0002C16.7687 13.8464 16.6374 13.718 16.479 13.6275ZM15.998 14.5664L6.0822 20.0611L5.95395 19.9996V8.96387L6.0822 8.89461L15.998 14.3971V14.5664Z" fill="#23FCFD"/>
<path d="M168.024 14.0546C171.917 12.1037 173.272 9.06743 172.003 5.62777C171.47 4.25606 170.494 3.07647 169.211 2.25538C167.929 1.43429 166.405 1.01314 164.854 1.05133C159.832 1.05133 154.809 1.05134 149.786 1C148.867 1 149.008 1.44004 149.008 1.96809V22.1147C149.008 23.8235 149.008 25.525 149.008 27.2485C149.008 27.7839 149.156 27.9819 149.786 27.9819C155.237 27.8792 160.642 28.1799 166.069 27.8059C167.747 27.7359 169.347 27.1202 170.596 26.0637C171.846 25.0072 172.668 23.5753 172.922 22.012C173.397 18.235 171.699 15.3674 168.024 14.0546ZM155.214 6.6472C155.214 6.22916 155.268 6.00914 155.806 6.02381C158.259 6.02381 160.719 6.02381 163.172 6.02381C163.945 6.0759 164.666 6.40734 165.184 6.94873C165.703 7.49011 165.979 8.19947 165.955 8.92828C165.931 9.65709 165.608 10.3488 165.055 10.8587C164.501 11.3686 163.76 11.657 162.986 11.6637C161.841 11.6637 160.649 11.6637 159.528 11.6637C158.407 11.6637 157.075 11.6637 155.837 11.6637C155.362 11.6637 155.198 11.561 155.214 11.0916C155.24 9.62482 155.24 8.14334 155.214 6.6472ZM166.427 20.9119C166.235 21.465 165.858 21.945 165.353 22.2806C164.848 22.6162 164.242 22.7895 163.624 22.7747C162.324 22.8261 157.27 22.7747 156.047 22.8261C155.307 22.8701 155.183 22.6207 155.198 22.012C155.245 20.4719 155.237 18.9464 155.198 17.4209C155.198 16.9369 155.237 16.6875 155.891 16.6875C158.228 16.6875 160.657 16.6875 163.04 16.6875C165.688 16.7755 167.245 18.7557 166.427 20.9119Z" fill="white"/>
<path d="M60.8473 5.46058C59.2031 2.37418 56.2696 1.11757 52.7727 1.05143C48.527 0.955903 44.2813 1.05144 40.051 1C39.1169 1 38.9857 1.28659 39.0011 2.05084C39.0011 6.20279 39.0011 10.3474 39.0011 14.4993C39.0011 18.6513 39.0011 22.9355 39.0011 27.1536C39.0011 27.7635 39.1092 28.0207 39.8348 27.9987C41.3015 27.9399 42.7837 27.9399 44.2658 27.9987C44.9992 27.9987 45.1922 27.7929 45.1845 27.1095C45.1845 24.5669 45.1845 22.0169 45.1845 19.4743C45.1845 18.6366 45.3234 18.3427 46.2883 18.3721C48.6042 18.4529 50.92 18.4749 53.2359 18.3721C54.6423 18.3835 56.0294 18.0601 57.2711 17.4312C58.5128 16.8024 59.5696 15.888 60.3455 14.7712C61.3304 13.4173 61.8991 11.8286 61.9878 10.1839C62.0764 8.53911 61.6815 6.90342 60.8473 5.46058ZM52.7959 13.1325C50.426 13.522 48.0175 13.2354 45.6245 13.2942C45.1922 13.2942 45.1767 13.0517 45.1767 12.743C45.1767 10.7222 45.1767 8.70131 45.1767 6.68045C45.1767 6.22484 45.416 6.19544 45.7866 6.19544H49.0056C50.1095 6.19544 51.2134 6.13665 52.3173 6.19544C53.1863 6.26977 53.9991 6.6367 54.6094 7.23028C55.2198 7.82387 55.5878 8.6052 55.6474 9.43391C55.7069 10.2626 55.454 11.0844 54.9342 11.7515C54.4144 12.4187 53.6617 12.8875 52.8113 13.0737L52.7959 13.1325Z" fill="white"/>
<path d="M127.193 19.8517C127.193 15.4418 127.24 11.3648 127.193 7.28772C127.193 6.23631 127.451 5.91861 128.538 6.01694C129.693 6.09637 130.852 6.09637 132.007 6.01694C132.789 5.97156 133 6.19092 133 6.95489C132.961 11.6598 133 16.3647 133 21.0695C133 23.3993 133 25.7366 133 28.0663C133 28.7244 132.805 28.9967 132.117 28.906C131.82 28.8681 128.342 29.2388 127.256 28.7244C126.17 28.2101 125.529 26.8183 124.692 25.8047C121.978 22.5218 119.264 19.2441 116.549 15.9713C116.377 15.7595 116.182 15.5629 115.814 15.162V18.5961C115.814 21.72 115.814 24.844 115.814 27.968C115.814 28.7244 115.611 28.974 114.814 28.9362C113.47 28.8757 112.126 28.9362 110.782 28.9362C110.219 28.9362 110 28.8303 110 28.2327C110 21.0519 110 13.871 110 6.69015C110 6.13797 110.188 6.03207 110.703 6.03963C112.204 6.03963 113.697 6.09258 115.189 6.03963C115.869 6.03963 116.08 6.47078 116.393 6.84143L126.357 18.8835C126.537 19.1104 126.756 19.3525 127.193 19.8517Z" fill="white"/>
<path d="M204.367 14.9685C205.942 14.9685 207.518 14.9685 209.085 14.9685C209.712 14.9685 210.003 15.0632 209.995 15.7483C209.957 18.2409 209.995 20.7334 209.995 23.2259C210.01 23.3777 209.991 23.5307 209.939 23.6751C209.888 23.8194 209.805 23.9519 209.697 24.0641C203.771 30.0039 192.874 29.0054 188.775 22.519C184.676 16.0326 187.697 6.4851 197.63 5.15137C202.218 4.55374 206.042 5.69798 209.101 9.07967C209.582 9.61899 209.537 9.85951 208.864 10.1802C207.762 10.7122 206.715 11.339 205.659 11.9439C205.239 12.1771 204.994 12.2646 204.574 11.8273C203.671 10.837 202.459 10.1484 201.116 9.86248C199.773 9.57654 198.369 9.70831 197.11 10.2385C195.855 10.719 194.783 11.551 194.035 12.6245C193.287 13.698 192.898 14.9626 192.92 16.2512C192.92 19.8953 194.923 22.4826 198.479 23.1604C199.41 23.3491 200.373 23.3473 201.304 23.1551C202.235 22.9629 203.112 22.5846 203.878 22.0453C204.275 21.7683 204.589 19.8588 204.283 19.5673C203.977 19.2758 203.809 19.458 203.564 19.458C202.287 19.458 201.002 19.458 199.741 19.458C199.106 19.458 198.815 19.3705 198.861 18.6781C198.923 17.7073 198.923 16.7337 198.861 15.7629C198.861 15.1434 198.991 14.9175 199.702 14.9393C201.224 15.0049 202.799 14.9685 204.367 14.9685Z" fill="white"/>
<path d="M107.995 28.6068C104.928 21.2812 101.846 13.9631 98.8033 6.61466C98.7415 6.41154 98.6047 6.23791 98.4193 6.12728C98.2339 6.01664 98.013 5.97684 97.7993 6.01556C96.0481 6.01556 94.297 6.06865 92.5458 6.01556C92.2255 5.96618 91.8978 6.03526 91.6271 6.20925C91.3563 6.38324 91.1622 6.64956 91.0826 6.95591C88.5143 13.1668 85.8992 19.3625 83.2997 25.5658C82.7591 26.6565 82.324 27.7939 82 28.9633H85.8914C88.3898 28.9633 88.3898 28.9633 89.3081 26.6351C89.4176 26.4116 89.5112 26.181 89.5883 25.945C89.7284 25.3535 90.0631 25.1867 90.7013 25.1867C92.6392 25.2322 99.1068 24.7772 99.9863 25.399C100.765 25.945 100.912 27.2873 101.333 28.2732C101.367 28.3383 101.393 28.407 101.411 28.4779C101.467 28.6458 101.582 28.7892 101.735 28.8834C101.889 28.9775 102.071 29.0165 102.251 28.9936C104.142 28.9936 106.049 28.9936 107.979 28.9936C108 28.8657 108.005 28.7359 107.995 28.6068ZM91.573 20.3484C92.7093 17.5046 93.8222 14.7366 94.9974 11.8018C96.1726 14.729 97.2856 17.5197 98.4297 20.3484H91.573Z" fill="white"/>
<path d="M65.0077 17.4457C65.0077 13.946 65.0077 10.4539 65.0077 6.96183C65.0077 6.20267 65.1911 5.95974 65.9707 6.00529C67.2853 6.06602 68.6 6.06602 69.9146 6.00529C70.6331 6.00529 70.7401 6.23304 70.7324 6.86313C70.7324 12.2683 70.7324 17.6659 70.7324 23.071C70.7324 23.8302 70.87 24.1035 71.726 24.0883C74.5387 24.0276 77.3514 24.0883 80.1336 24.0503C80.8062 24.0503 81.0278 24.2249 80.9973 24.893C80.9438 26.0089 80.959 27.1249 80.9973 28.2408C80.9973 28.8102 80.8138 29 80.2329 29C75.4101 29 70.5872 29 65.7643 29C65.0688 29 65 28.7115 65 28.1573C65.0153 24.5741 65.0077 21.0517 65.0077 17.4457Z" fill="white"/>
<path d="M183 17.591C183 21.0815 183 24.572 183 28.0625C183 28.8213 182.766 29.0337 181.968 28.9958C180.581 28.9351 179.193 28.9958 177.806 28.9958C177.218 28.9958 177 28.8516 177 28.237C177 21.084 177 13.926 177 6.7629C177 6.08757 177.298 6.0041 177.895 6.0041C179.282 6.0041 180.669 6.04963 182.056 6.0041C182.814 5.96616 183.008 6.18622 183 6.88431C182.984 10.4431 183 14.0322 183 17.591Z" fill="white"/>
</g>
<defs>
<filter id="filter0_f_0_7624" x="-6.42734" y="-3.42734" width="34.8547" height="35.8547" filterUnits="userSpaceOnUse" color-interpolation-filters="sRGB">
<feFlood flood-opacity="0" result="BackgroundImageFix"/>
<feBlend mode="normal" in="SourceGraphic" in2="BackgroundImageFix" result="shape"/>
<feGaussianBlur stdDeviation="5.71367" result="effect1_foregroundBlur_0_7624"/>
</filter>
<filter id="filter1_f_0_7624" x="-2.28547" y="-2.28547" width="31.5709" height="33.5709" filterUnits="userSpaceOnUse" color-interpolation-filters="sRGB">
<feFlood flood-opacity="0" result="BackgroundImageFix"/>
<feBlend mode="normal" in="SourceGraphic" in2="BackgroundImageFix" result="shape"/>
<feGaussianBlur stdDeviation="1.14273" result="effect1_foregroundBlur_0_7624"/>
</filter>
<filter id="filter2_f_0_7624" x="0.714531" y="1.71453" width="23.5709" height="25.5709" filterUnits="userSpaceOnUse" color-interpolation-filters="sRGB">
<feFlood flood-opacity="0" result="BackgroundImageFix"/>
<feBlend mode="normal" in="SourceGraphic" in2="BackgroundImageFix" result="shape"/>
<feGaussianBlur stdDeviation="1.14273" result="effect1_foregroundBlur_0_7624"/>
</filter>
<filter id="filter3_f_0_7624" x="2.71453" y="5.71453" width="16.5709" height="17.5709" filterUnits="userSpaceOnUse" color-interpolation-filters="sRGB">
<feFlood flood-opacity="0" result="BackgroundImageFix"/>
<feBlend mode="normal" in="SourceGraphic" in2="BackgroundImageFix" result="shape"/>
<feGaussianBlur stdDeviation="1.14273" result="effect1_foregroundBlur_0_7624"/>
</filter>
<filter id="filter4_f_0_7624" x="-11.4273" y="-11.4273" width="49.8547" height="51.8547" filterUnits="userSpaceOnUse" color-interpolation-filters="sRGB">
<feFlood flood-opacity="0" result="BackgroundImageFix"/>
<feBlend mode="normal" in="SourceGraphic" in2="BackgroundImageFix" result="shape"/>
<feGaussianBlur stdDeviation="5.71367" result="effect1_foregroundBlur_0_7624"/>
</filter>
<clipPath id="clip0_0_7624">
<rect width="210" height="29" fill="white"/>
</clipPath>
</defs>
</svg>
