<svg width="105" height="115" viewBox="0 0 105 115" fill="none" xmlns="http://www.w3.org/2000/svg">
<g clip-path="url(#clip0_242_2)">
<g filter="url(#filter0_f_242_2)">
<path d="M94.1503 51.0334L12.2187 2.63978C11.1498 2.01389 9.93931 1.68457 8.70739 1.68457C7.47541 1.68457 6.26487 2.01389 5.19601 2.63978C4.12508 3.26681 3.23594 4.1726 2.61913 5.26497C2.00232 6.35735 1.67987 7.59725 1.68465 8.85837V105.686C1.67871 106.942 2.00102 108.176 2.6183 109.262C3.23557 110.349 4.12545 111.247 5.19601 111.864C6.26622 112.526 7.4954 112.871 8.74641 112.861C9.97115 112.859 11.172 112.514 12.2187 111.864L94.1503 63.4706C95.2199 62.849 96.111 61.9506 96.7343 60.8664C97.3575 59.7821 97.6905 58.5491 97.7006 57.2919C97.6961 56.0225 97.3665 54.7765 96.7433 53.6783C96.12 52.5801 95.2261 51.6681 94.1503 51.0334ZM91.8481 59.3251L9.9168 107.718C9.56856 107.95 9.16192 108.073 8.74641 108.073C8.33085 108.073 7.92421 107.95 7.57591 107.718C7.2229 107.515 6.92879 107.22 6.72323 106.863C6.51772 106.506 6.40811 106.099 6.40547 105.686V8.85837C6.40907 8.4391 6.51878 8.02781 6.72384 7.66463C6.92896 7.3014 7.22245 6.99858 7.57591 6.78549C7.93179 6.57561 8.33545 6.46505 8.74641 6.46505C9.15732 6.46505 9.56098 6.57561 9.9168 6.78549L91.8481 55.1791C92.203 55.3976 92.4944 55.7083 92.6932 56.0794C92.892 56.4508 92.9908 56.8691 92.9795 57.2919C92.9852 57.7029 92.883 58.1078 92.6842 58.4654C92.4854 58.8225 92.1968 59.1196 91.8481 59.3251Z" fill="#23FCFD"/>
</g>
<g filter="url(#filter1_f_242_2)">
<path d="M69.8482 53.0688L20.7069 24.8265C19.9126 24.3793 19.0154 24.1443 18.1027 24.1443C17.1901 24.1443 16.2929 24.3793 15.4986 24.8265C14.7131 25.2823 14.0613 25.9347 13.6079 26.7189C13.1545 27.503 12.9153 28.3916 12.9143 29.2962V85.8203C12.906 86.7215 13.1416 87.6081 13.5963 88.3874C14.0509 89.1674 14.708 89.8103 15.4986 90.2505C16.3 90.7014 17.202 90.9462 18.1227 90.9625C19.0293 90.9366 19.9161 90.6924 20.7069 90.2505L69.8482 62.0083C70.6337 61.5619 71.2862 60.9173 71.7399 60.1391C72.1936 59.3614 72.4328 58.4776 72.4328 57.5781C72.4305 56.6685 72.1913 55.7746 71.7388 54.9842C71.2856 54.1939 70.6343 53.5339 69.8482 53.0688ZM67.463 57.8942L18.2816 86.137L17.6455 85.8203V29.0984L18.2816 28.7424L67.463 57.0244V57.8942Z" fill="#23FCFD"/>
</g>
<g filter="url(#filter2_f_242_2)">
<path d="M99.7655 51.0334L17.834 2.63978C16.7651 2.01389 15.5546 1.68457 14.3226 1.68457C13.0907 1.68457 11.8801 2.01389 10.8113 2.63978C9.74032 3.26681 8.85119 4.1726 8.23438 5.26497C7.61758 6.35735 7.29511 7.59725 7.29988 8.85837V105.686C7.29399 106.942 7.61629 108.176 8.23354 109.262C8.85085 110.349 9.74071 111.247 10.8113 111.864C11.8815 112.526 13.1107 112.871 14.3617 112.861C15.5864 112.859 16.7872 112.514 17.834 111.864L99.7655 63.4706C100.835 62.849 101.726 61.9506 102.35 60.8664C102.973 59.7821 103.306 58.5491 103.316 57.2919C103.311 56.0225 102.982 54.7765 102.359 53.6783C101.735 52.5801 100.841 51.6681 99.7655 51.0334ZM97.4634 59.3251L15.5321 107.718C15.1838 107.95 14.7772 108.073 14.3617 108.073C13.9461 108.073 13.5395 107.95 13.1912 107.718C12.8382 107.515 12.544 107.22 12.3385 106.863C12.133 106.506 12.0234 106.099 12.0207 105.686V8.85837C12.0243 8.4391 12.134 8.02781 12.3391 7.66463C12.5442 7.3014 12.8377 6.99858 13.1912 6.78549C13.547 6.57561 13.9507 6.46505 14.3617 6.46505C14.7726 6.46505 15.1762 6.57561 15.5321 6.78549L97.4634 55.1791C97.8183 55.3976 98.1097 55.7083 98.3084 56.0794C98.5072 56.4508 98.606 56.8691 98.5948 57.2919C98.6004 57.7029 98.4982 58.1078 98.2995 58.4654C98.1007 58.8225 97.8121 59.1196 97.4634 59.3251Z" fill="#23FCFD" fill-opacity="0.3"/>
</g>
<g filter="url(#filter3_f_242_2)">
<path d="M75.4634 53.0688L26.3221 24.8265C25.5278 24.3793 24.6307 24.1443 23.718 24.1443C22.8053 24.1443 21.9082 24.3793 21.1138 24.8265C20.3283 25.2823 19.6765 25.9347 19.2231 26.7189C18.7697 27.503 18.5306 28.3916 18.5295 29.2962V85.8203C18.5212 86.7215 18.7568 87.6081 19.2115 88.3874C19.6661 89.1674 20.3232 89.8103 21.1138 90.2505C21.9152 90.7014 22.8172 90.9462 23.7379 90.9625C24.6445 90.9366 25.5313 90.6924 26.3221 90.2505L75.4634 62.0083C76.249 61.5619 76.9014 60.9173 77.3551 60.1391C77.8088 59.3614 78.048 58.4776 78.048 57.5781C78.0458 56.6685 77.8066 55.7746 77.354 54.9842C76.9009 54.1939 76.2495 53.5339 75.4634 53.0688ZM73.0782 57.8942L23.8969 86.137L23.2607 85.8203V29.0984L23.8969 28.7424L73.0782 57.0244V57.8942Z" fill="#23FCFD" fill-opacity="0.3"/>
</g>
<path d="M94.1503 51.0334L12.2187 2.63978C11.1498 2.01389 9.93931 1.68457 8.70739 1.68457C7.47541 1.68457 6.26487 2.01389 5.19601 2.63978C4.12508 3.26681 3.23594 4.1726 2.61913 5.26497C2.00232 6.35735 1.67987 7.59725 1.68465 8.85837V105.686C1.67871 106.942 2.00102 108.176 2.6183 109.262C3.23557 110.349 4.12545 111.247 5.19601 111.864C6.26622 112.526 7.4954 112.871 8.74641 112.861C9.97115 112.859 11.172 112.514 12.2187 111.864L94.1503 63.4706C95.2199 62.849 96.111 61.9506 96.7343 60.8664C97.3575 59.7821 97.6905 58.5491 97.7006 57.2919C97.6961 56.0225 97.3665 54.7765 96.7433 53.6783C96.12 52.5801 95.2261 51.6681 94.1503 51.0334ZM91.8481 59.3251L9.9168 107.718C9.56856 107.95 9.16192 108.073 8.74641 108.073C8.33085 108.073 7.92421 107.95 7.57591 107.718C7.2229 107.515 6.92879 107.22 6.72323 106.863C6.51772 106.506 6.40811 106.099 6.40547 105.686V8.85837C6.40907 8.4391 6.51878 8.02781 6.72384 7.66463C6.92896 7.3014 7.22245 6.99858 7.57591 6.78549C7.93179 6.57561 8.33545 6.46505 8.74641 6.46505C9.15732 6.46505 9.56098 6.57561 9.9168 6.78549L91.8481 55.1791C92.203 55.3976 92.4944 55.7083 92.6932 56.0794C92.892 56.4508 92.9908 56.8691 92.9795 57.2919C92.9852 57.7029 92.883 58.1078 92.6842 58.4654C92.4854 58.8225 92.1968 59.1196 91.8481 59.3251Z" fill="#23FCFD"/>
<path d="M99.7655 51.0334L17.834 2.63978C16.7651 2.01389 15.5546 1.68457 14.3226 1.68457C13.0907 1.68457 11.8801 2.01389 10.8113 2.63978C9.74032 3.26681 8.85119 4.1726 8.23438 5.26497C7.61758 6.35735 7.29511 7.59725 7.29988 8.85837V105.686C7.29399 106.942 7.61629 108.176 8.23354 109.262C8.85085 110.349 9.74071 111.247 10.8113 111.864C11.8815 112.526 13.1107 112.871 14.3617 112.861C15.5864 112.859 16.7872 112.514 17.834 111.864L99.7655 63.4706C100.835 62.849 101.726 61.9506 102.35 60.8664C102.973 59.7821 103.306 58.5491 103.316 57.2919C103.311 56.0225 102.982 54.7765 102.359 53.6783C101.735 52.5801 100.841 51.6681 99.7655 51.0334ZM97.4634 59.3251L15.5321 107.718C15.1838 107.95 14.7772 108.073 14.3617 108.073C13.9461 108.073 13.5395 107.95 13.1912 107.718C12.8382 107.515 12.544 107.22 12.3385 106.863C12.133 106.506 12.0234 106.099 12.0207 105.686V8.85837C12.0243 8.4391 12.134 8.02781 12.3391 7.66463C12.5442 7.3014 12.8377 6.99858 13.1912 6.78549C13.547 6.57561 13.9507 6.46505 14.3617 6.46505C14.7726 6.46505 15.1762 6.57561 15.5321 6.78549L97.4634 55.1791C97.8183 55.3976 98.1097 55.7083 98.3084 56.0794C98.5072 56.4508 98.606 56.8691 98.5948 57.2919C98.6004 57.7029 98.4982 58.1078 98.2995 58.4654C98.1007 58.8225 97.8121 59.1196 97.4634 59.3251Z" fill="#23FCFD" fill-opacity="0.15"/>
<path d="M69.8482 53.0688L20.7069 24.8265C19.9126 24.3793 19.0154 24.1443 18.1027 24.1443C17.1901 24.1443 16.2929 24.3793 15.4986 24.8265C14.7131 25.2823 14.0613 25.9347 13.6079 26.7189C13.1545 27.503 12.9153 28.3916 12.9143 29.2962V85.8203C12.906 86.7215 13.1416 87.6081 13.5963 88.3874C14.0509 89.1674 14.708 89.8103 15.4986 90.2505C16.3 90.7014 17.202 90.9462 18.1227 90.9625C19.0293 90.9366 19.9161 90.6924 20.7069 90.2505L69.8482 62.0083C70.6337 61.5619 71.2862 60.9173 71.7399 60.1391C72.1936 59.3614 72.4328 58.4776 72.4328 57.5781C72.4305 56.6685 72.1913 55.7746 71.7388 54.9842C71.2856 54.1939 70.6343 53.5339 69.8482 53.0688ZM67.463 57.8942L18.2816 86.137L17.6455 85.8203V29.0984L18.2816 28.7424L67.463 57.0244V57.8942Z" fill="#23FCFD"/>
<path d="M75.4634 53.0688L26.3221 24.8265C25.5278 24.3793 24.6307 24.1443 23.718 24.1443C22.8053 24.1443 21.9082 24.3793 21.1138 24.8265C20.3283 25.2823 19.6765 25.9347 19.2231 26.7189C18.7697 27.503 18.5306 28.3916 18.5295 29.2962V85.8203C18.5212 86.7215 18.7568 87.6081 19.2115 88.3874C19.6661 89.1674 20.3232 89.8103 21.1138 90.2505C21.9152 90.7014 22.8172 90.9462 23.7379 90.9625C24.6445 90.9366 25.5313 90.6924 26.3221 90.2505L75.4634 62.0083C76.249 61.5619 76.9014 60.9173 77.3551 60.1391C77.8088 59.3614 78.048 58.4776 78.048 57.5781C78.0458 56.6685 77.8066 55.7746 77.354 54.9842C76.9009 54.1939 76.2495 53.5339 75.4634 53.0688ZM73.0782 57.8942L23.8969 86.137L23.2607 85.8203V29.0984L23.8969 28.7424L73.0782 57.0244V57.8942Z" fill="#23FCFD" fill-opacity="0.15"/>
</g>
<defs>
<filter id="filter0_f_242_2" x="-1.19513" y="-1.19513" width="101.775" height="116.936" filterUnits="userSpaceOnUse" color-interpolation-filters="sRGB">
<feFlood flood-opacity="0" result="BackgroundImageFix"/>
<feBlend mode="normal" in="SourceGraphic" in2="BackgroundImageFix" result="shape"/>
<feGaussianBlur stdDeviation="1.43985" result="effect1_foregroundBlur_242_2"/>
</filter>
<filter id="filter1_f_242_2" x="10.0344" y="21.2646" width="65.278" height="72.5775" filterUnits="userSpaceOnUse" color-interpolation-filters="sRGB">
<feFlood flood-opacity="0" result="BackgroundImageFix"/>
<feBlend mode="normal" in="SourceGraphic" in2="BackgroundImageFix" result="shape"/>
<feGaussianBlur stdDeviation="1.43985" result="effect1_foregroundBlur_242_2"/>
</filter>
<filter id="filter2_f_242_2" x="4.4201" y="-1.19513" width="101.775" height="116.936" filterUnits="userSpaceOnUse" color-interpolation-filters="sRGB">
<feFlood flood-opacity="0" result="BackgroundImageFix"/>
<feBlend mode="normal" in="SourceGraphic" in2="BackgroundImageFix" result="shape"/>
<feGaussianBlur stdDeviation="1.43985" result="effect1_foregroundBlur_242_2"/>
</filter>
<filter id="filter3_f_242_2" x="15.6496" y="21.2646" width="65.278" height="72.5775" filterUnits="userSpaceOnUse" color-interpolation-filters="sRGB">
<feFlood flood-opacity="0" result="BackgroundImageFix"/>
<feBlend mode="normal" in="SourceGraphic" in2="BackgroundImageFix" result="shape"/>
<feGaussianBlur stdDeviation="1.43985" result="effect1_foregroundBlur_242_2"/>
</filter>
<clipPath id="clip0_242_2">
<rect width="105" height="114.545" fill="white"/>
</clipPath>
</defs>
</svg>
