<svg width="196" height="216" viewBox="0 0 196 216" fill="none" xmlns="http://www.w3.org/2000/svg">
<g filter="url(#filter0_f_862_417)">
<path d="M178.362 98.2142L29.2791 14.1766C27.5207 13.1913 25.5285 12.6729 23.5009 12.6729C21.4733 12.6729 19.4811 13.1913 17.7227 14.1766C15.9605 15.158 14.4984 16.5803 13.4871 18.297C12.4759 20.0137 11.952 21.9626 11.9695 23.9427V192.018C11.9467 193.999 12.4684 195.95 13.4802 197.668C14.492 199.385 15.957 200.807 17.7227 201.784C19.4672 202.809 21.4648 203.35 23.5009 203.35C25.537 203.35 27.5346 202.809 29.2791 201.784L178.362 117.746C180.131 116.773 181.599 115.352 182.612 113.634C183.624 111.915 184.143 109.962 184.115 107.98C184.123 106.002 183.594 104.057 182.584 102.342C181.574 100.627 180.117 99.2033 178.362 98.2142ZM175.36 112.57L26.2774 196.657C25.4349 197.137 24.4767 197.391 23.5009 197.391C22.5251 197.391 21.5668 197.137 20.7243 196.657C19.8536 196.168 19.1395 195.453 18.6623 194.59C18.1851 193.728 17.9637 192.752 18.0228 191.774V23.8939C17.9694 22.9162 18.1933 21.943 18.67 21.0815C19.1466 20.22 19.8575 19.5035 20.7243 19.0108C21.5887 18.5675 22.5495 18.333 23.5259 18.3272C24.4846 18.3461 25.4261 18.58 26.2774 19.0108L175.36 103.097C176.242 103.581 176.97 104.293 177.464 105.155C177.959 106.016 178.2 106.994 178.162 107.98C178.135 108.896 177.862 109.788 177.37 110.568C176.878 111.348 176.185 111.988 175.36 112.424V112.57Z" fill="#23FCFD"/>
</g>
<g filter="url(#filter1_f_862_417)">
<path d="M180.187 97.7244L28.37 11.7575C26.5793 10.7496 24.5506 10.2192 22.4858 10.2192C20.4211 10.2192 18.3923 10.7496 16.6016 11.7575C14.8072 12.7614 13.3183 14.2164 12.2884 15.9725C11.2586 17.7286 10.7251 19.7222 10.7429 21.7479V193.682C10.7197 195.708 11.251 197.704 12.2814 199.461C13.3117 201.218 14.8036 202.672 16.6016 203.672C18.3782 204.72 20.4124 205.274 22.4858 205.274C24.5593 205.274 26.5935 204.72 28.37 203.672L180.187 117.705C181.989 116.709 183.484 115.256 184.515 113.498C185.546 111.74 186.075 109.742 186.046 107.715C186.053 105.691 185.515 103.702 184.487 101.947C183.458 100.193 181.975 98.7362 180.187 97.7244ZM177.131 112.41L25.3133 198.427C24.4554 198.919 23.4795 199.178 22.4858 199.178C21.4921 199.178 20.5163 198.919 19.6584 198.427C18.7716 197.927 18.0445 197.195 17.5585 196.313C17.0726 195.431 16.8471 194.433 16.9073 193.432V21.6979C16.8529 20.6977 17.081 19.7022 17.5663 18.8209C18.0517 17.9396 18.7756 17.2067 19.6584 16.7027C20.5386 16.2492 21.517 16.0094 22.5113 16.0034C23.4876 16.0227 24.4464 16.262 25.3133 16.7027L177.131 102.72C178.029 103.215 178.77 103.943 179.273 104.824C179.776 105.705 180.022 106.705 179.984 107.715C179.956 108.651 179.678 109.564 179.177 110.362C178.677 111.16 177.971 111.814 177.131 112.26V112.41Z" fill="#23FCFD"/>
</g>
<g filter="url(#filter2_f_862_417)">
<path d="M146.792 100.262L43.6292 40.1595C42.2834 39.3821 40.7591 38.9731 39.2079 38.9731C37.6567 38.9731 36.1325 39.3821 34.7866 40.1595C33.4382 40.9382 32.3186 42.0632 31.542 43.4199C30.7653 44.7765 30.3593 46.3165 30.3653 47.8828V168.138C30.3579 169.698 30.7637 171.232 31.5409 172.581C32.3182 173.93 33.4386 175.045 34.7866 175.812C36.1342 176.634 37.6819 177.063 39.2571 177.05C40.7992 177.047 42.3112 176.619 43.6292 175.812L146.792 115.709C148.139 114.937 149.261 113.821 150.046 112.475C150.831 111.128 151.25 109.597 151.263 108.035C151.258 106.459 150.842 104.911 150.057 103.547C149.273 102.183 148.147 101.051 146.792 100.262ZM143.894 110.56L40.7308 170.663C40.2922 170.951 39.7803 171.104 39.2571 171.104C38.7338 171.104 38.2218 170.951 37.7833 170.663C37.3388 170.41 36.9684 170.044 36.7096 169.6C36.4508 169.157 36.3128 168.653 36.3095 168.138V47.8828C36.314 47.362 36.4521 46.8512 36.7104 46.4001C36.9686 45.949 37.3382 45.5729 37.7833 45.3083C38.2314 45.0476 38.7397 44.9103 39.2571 44.9103C39.7744 44.9103 40.2827 45.0476 40.7308 45.3083L143.894 105.411C144.341 105.683 144.708 106.068 144.958 106.529C145.208 106.99 145.333 107.51 145.319 108.035C145.325 108.546 145.197 109.049 144.946 109.493C144.696 109.936 144.333 110.305 143.894 110.56Z" fill="#23FCFD"/>
</g>
<g filter="url(#filter3_f_862_417)">
<path d="M116.476 102.451L54.6315 67.4342C53.6318 66.8798 52.5028 66.5884 51.3542 66.5884C50.2055 66.5884 49.0765 66.8798 48.0768 67.4342C47.0883 67.9993 46.268 68.8082 45.6974 69.7805C45.1268 70.7528 44.8259 71.8545 44.8245 72.9761V143.059C44.8141 144.176 45.1105 145.276 45.6828 146.242C46.255 147.208 47.0819 148.006 48.0768 148.552C49.0854 149.111 50.2206 149.414 51.3792 149.434C52.5202 149.402 53.6362 149.099 54.6315 148.552L116.476 113.535C117.464 112.981 118.285 112.182 118.856 111.217C119.427 110.253 119.728 109.157 119.728 108.042C119.726 106.914 119.424 105.806 118.854 104.826C118.284 103.846 117.465 103.028 116.476 102.451ZM113.474 108.434L51.5793 143.451L50.7788 143.059V72.7309L51.5793 72.2895L113.474 107.355V108.434Z" fill="#23FCFD"/>
</g>
<g filter="url(#filter4_f_862_417)">
<path d="M187.651 98.2142L38.5682 14.1766C36.8097 13.1913 34.8175 12.6729 32.79 12.6729C30.7624 12.6729 28.7702 13.1913 27.0117 14.1766C25.2496 15.158 23.7875 16.5803 22.7762 18.297C21.7649 20.0137 21.241 21.9626 21.2585 23.9427V192.018C21.2358 193.999 21.7574 195.95 22.7693 197.668C23.7811 199.385 25.2461 200.807 27.0117 201.784C28.7563 202.809 30.7539 203.35 32.79 203.35C34.826 203.35 36.8236 202.809 38.5682 201.784L187.651 117.746C189.42 116.773 190.888 115.352 191.901 113.634C192.913 111.915 193.433 109.962 193.404 107.98C193.412 106.002 192.883 104.057 191.873 102.342C190.863 100.627 189.406 99.2033 187.651 98.2142ZM184.65 112.57L35.5665 196.657C34.724 197.137 33.7658 197.391 32.79 197.391C31.8142 197.391 30.8559 197.137 30.0134 196.657C29.1426 196.168 28.4286 195.453 27.9514 194.59C27.4742 193.728 27.2527 192.752 27.3119 191.774V23.8939C27.2585 22.9162 27.4824 21.943 27.959 21.0815C28.4357 20.22 29.1465 19.5035 30.0134 19.0108C30.8778 18.5675 31.8385 18.333 32.815 18.3272C33.7737 18.3461 34.7152 18.58 35.5665 19.0108L184.65 103.097C185.531 103.581 186.259 104.293 186.753 105.155C187.248 106.016 187.489 106.994 187.451 107.98C187.424 108.896 187.151 109.788 186.659 110.568C186.168 111.348 185.475 111.988 184.65 112.424V112.57Z" fill="#23FCFD" fill-opacity="0.2"/>
</g>
<g filter="url(#filter5_f_862_417)">
<path d="M153.628 100.262L50.4651 40.1595C49.1193 39.3821 47.5951 38.9731 46.0439 38.9731C44.4926 38.9731 42.9684 39.3821 41.6226 40.1595C40.2741 40.9382 39.1546 42.0632 38.3779 43.4199C37.6013 44.7765 37.1953 46.3165 37.2013 47.8828V168.138C37.1938 169.698 37.5996 171.232 38.3769 172.581C39.1541 173.93 40.2746 175.045 41.6226 175.812C42.9701 176.634 44.5178 177.063 46.093 177.05C47.6351 177.047 49.1471 176.619 50.4651 175.812L153.628 115.709C154.975 114.937 156.097 113.821 156.882 112.475C157.667 111.128 158.086 109.597 158.099 108.035C158.093 106.459 157.678 104.911 156.893 103.547C156.109 102.183 154.983 101.051 153.628 100.262ZM150.73 110.56L47.5667 170.663C47.1282 170.951 46.6162 171.104 46.093 171.104C45.5698 171.104 45.0578 170.951 44.6192 170.663C44.1747 170.41 43.8044 170.044 43.5456 169.6C43.2868 169.157 43.1487 168.653 43.1454 168.138V47.8828C43.15 47.362 43.2881 46.8512 43.5463 46.4001C43.8046 45.949 44.1742 45.5729 44.6192 45.3083C45.0673 45.0476 45.5756 44.9103 46.093 44.9103C46.6104 44.9103 47.1186 45.0476 47.5667 45.3083L150.73 105.411C151.177 105.683 151.544 106.068 151.794 106.529C152.044 106.99 152.169 107.51 152.155 108.035C152.161 108.546 152.033 109.049 151.782 109.493C151.532 109.936 151.169 110.305 150.73 110.56Z" fill="#23FCFD" fill-opacity="0.3"/>
</g>
<g filter="url(#filter6_f_862_417)">
<path d="M123.306 102.451L61.4616 67.4342C60.4619 66.8798 59.3329 66.5884 58.1842 66.5884C57.0356 66.5884 55.9066 66.8798 54.9069 67.4342C53.9184 67.9993 53.0981 68.8082 52.5275 69.7805C51.9569 70.7528 51.656 71.8545 51.6546 72.9761V143.059C51.6442 144.176 51.9406 145.276 52.5128 146.242C53.0851 147.208 53.912 148.006 54.9069 148.552C55.9155 149.111 57.0507 149.414 58.2093 149.434C59.3503 149.402 60.4663 149.099 61.4616 148.552L123.306 113.535C124.294 112.981 125.115 112.182 125.686 111.217C126.257 110.253 126.558 109.157 126.558 108.042C126.556 106.914 126.255 105.806 125.685 104.826C125.114 103.846 124.295 103.028 123.306 102.451ZM120.304 108.434L58.4094 143.451L57.6088 143.059V72.7309L58.4094 72.2895L120.304 107.355V108.434Z" fill="#23FCFD" fill-opacity="0.3"/>
</g>
<path d="M178.362 98.2142L29.2791 14.1766C27.5207 13.1913 25.5285 12.6729 23.5009 12.6729C21.4733 12.6729 19.4811 13.1913 17.7227 14.1766C15.9605 15.158 14.4984 16.5803 13.4871 18.297C12.4759 20.0137 11.952 21.9626 11.9695 23.9427V192.018C11.9467 193.999 12.4684 195.95 13.4802 197.668C14.492 199.385 15.957 200.807 17.7227 201.784C19.4672 202.809 21.4648 203.35 23.5009 203.35C25.537 203.35 27.5346 202.809 29.2791 201.784L178.362 117.746C180.131 116.773 181.599 115.352 182.612 113.634C183.624 111.915 184.143 109.962 184.115 107.98C184.123 106.002 183.594 104.057 182.584 102.342C181.574 100.627 180.117 99.2033 178.362 98.2142ZM175.36 112.57L26.2774 196.657C25.4349 197.137 24.4767 197.391 23.5009 197.391C22.5251 197.391 21.5668 197.137 20.7243 196.657C19.8536 196.168 19.1395 195.453 18.6623 194.59C18.1851 193.728 17.9637 192.752 18.0228 191.774V23.8939C17.9694 22.9162 18.1933 21.943 18.67 21.0815C19.1466 20.22 19.8575 19.5035 20.7243 19.0108C21.5887 18.5675 22.5495 18.333 23.5259 18.3272C24.4846 18.3461 25.4261 18.58 26.2774 19.0108L175.36 103.097C176.242 103.581 176.97 104.293 177.464 105.155C177.959 106.016 178.2 106.994 178.162 107.98C178.135 108.896 177.862 109.788 177.37 110.568C176.878 111.348 176.185 111.988 175.36 112.424V112.57Z" fill="#23FCFD"/>
<path d="M181.518 98.2142L32.4354 14.1766C30.6769 13.1913 28.6847 12.6729 26.6571 12.6729C24.6296 12.6729 22.6374 13.1913 20.8789 14.1766C19.1168 15.158 17.6547 16.5803 16.6434 18.297C15.6321 20.0137 15.1082 21.9626 15.1257 23.9427V192.018C15.103 193.999 15.6246 195.95 16.6365 197.668C17.6483 199.385 19.1133 200.807 20.8789 201.784C22.6235 202.809 24.6211 203.35 26.6571 203.35C28.6932 203.35 30.6908 202.809 32.4354 201.784L181.518 117.746C183.288 116.773 184.755 115.352 185.768 113.634C186.78 111.915 187.3 109.962 187.272 107.98C187.279 106.002 186.75 104.057 185.74 102.342C184.73 100.627 183.274 99.2033 181.518 98.2142ZM178.517 112.57L29.4337 196.657C28.5912 197.137 27.6329 197.391 26.6571 197.391C25.6813 197.391 24.7231 197.137 23.8806 196.657C23.0098 196.168 22.2958 195.453 21.8186 194.59C21.3414 193.728 21.1199 192.752 21.1791 191.774V23.8939C21.1257 22.9162 21.3496 21.943 21.8262 21.0815C22.3029 20.22 23.0137 19.5035 23.8806 19.0108C24.745 18.5675 25.7057 18.333 26.6821 18.3272C27.6409 18.3461 28.5823 18.58 29.4337 19.0108L178.517 103.097C179.398 103.581 180.126 104.293 180.621 105.155C181.115 106.016 181.356 106.994 181.318 107.98C181.291 108.896 181.018 109.788 180.526 110.568C180.035 111.348 179.342 111.988 178.517 112.424V112.57Z" fill="#23FCFD" fill-opacity="0.3"/>
<path d="M146.792 100.262L43.6292 40.1595C42.2834 39.3821 40.7591 38.9731 39.2079 38.9731C37.6567 38.9731 36.1325 39.3821 34.7866 40.1595C33.4382 40.9382 32.3186 42.0632 31.542 43.4199C30.7653 44.7765 30.3593 46.3165 30.3653 47.8828V168.138C30.3579 169.698 30.7637 171.232 31.5409 172.581C32.3182 173.93 33.4386 175.045 34.7866 175.812C36.1342 176.634 37.6819 177.063 39.2571 177.05C40.7992 177.047 42.3112 176.619 43.6292 175.812L146.792 115.709C148.139 114.937 149.261 113.821 150.046 112.475C150.831 111.128 151.25 109.597 151.263 108.035C151.258 106.459 150.842 104.911 150.057 103.547C149.273 102.183 148.147 101.051 146.792 100.262ZM143.894 110.56L40.7308 170.663C40.2922 170.951 39.7803 171.104 39.2571 171.104C38.7338 171.104 38.2218 170.951 37.7833 170.663C37.3388 170.41 36.9684 170.044 36.7096 169.6C36.4508 169.157 36.3128 168.653 36.3095 168.138V47.8828C36.314 47.362 36.4521 46.8512 36.7104 46.4001C36.9686 45.949 37.3382 45.5729 37.7833 45.3083C38.2314 45.0476 38.7397 44.9103 39.2571 44.9103C39.7744 44.9103 40.2827 45.0476 40.7308 45.3083L143.894 105.411C144.341 105.683 144.708 106.068 144.958 106.529C145.208 106.99 145.333 107.51 145.319 108.035C145.325 108.546 145.197 109.049 144.946 109.493C144.696 109.936 144.333 110.305 143.894 110.56Z" fill="#23FCFD"/>
<path d="M153.628 100.262L50.4651 40.1595C49.1193 39.3821 47.5951 38.9731 46.0439 38.9731C44.4926 38.9731 42.9684 39.3821 41.6226 40.1595C40.2741 40.9382 39.1546 42.0632 38.3779 43.4199C37.6013 44.7765 37.1953 46.3165 37.2013 47.8828V168.138C37.1938 169.698 37.5996 171.232 38.3769 172.581C39.1541 173.93 40.2746 175.045 41.6226 175.812C42.9701 176.634 44.5178 177.063 46.093 177.05C47.6351 177.047 49.1471 176.619 50.4651 175.812L153.628 115.709C154.975 114.937 156.097 113.821 156.882 112.475C157.667 111.128 158.086 109.597 158.099 108.035C158.093 106.459 157.678 104.911 156.893 103.547C156.109 102.183 154.983 101.051 153.628 100.262ZM150.73 110.56L47.5667 170.663C47.1282 170.951 46.6162 171.104 46.093 171.104C45.5698 171.104 45.0578 170.951 44.6192 170.663C44.1747 170.41 43.8044 170.044 43.5456 169.6C43.2868 169.157 43.1487 168.653 43.1454 168.138V47.8828C43.15 47.362 43.2881 46.8512 43.5463 46.4001C43.8046 45.949 44.1742 45.5729 44.6192 45.3083C45.0673 45.0476 45.5756 44.9103 46.093 44.9103C46.6104 44.9103 47.1186 45.0476 47.5667 45.3083L150.73 105.411C151.177 105.683 151.544 106.068 151.794 106.529C152.044 106.99 152.169 107.51 152.155 108.035C152.161 108.546 152.033 109.049 151.782 109.493C151.532 109.936 151.169 110.305 150.73 110.56Z" fill="#23FCFD" fill-opacity="0.15"/>
<path d="M116.476 102.451L54.6315 67.4342C53.6318 66.8798 52.5028 66.5884 51.3542 66.5884C50.2055 66.5884 49.0765 66.8798 48.0768 67.4342C47.0883 67.9993 46.268 68.8082 45.6974 69.7805C45.1268 70.7528 44.8259 71.8545 44.8245 72.9761V143.059C44.8141 144.176 45.1105 145.276 45.6828 146.242C46.255 147.208 47.0819 148.006 48.0768 148.552C49.0854 149.111 50.2206 149.414 51.3792 149.434C52.5202 149.402 53.6362 149.099 54.6315 148.552L116.476 113.535C117.464 112.981 118.285 112.182 118.856 111.217C119.427 110.253 119.728 109.157 119.728 108.042C119.726 106.914 119.424 105.806 118.854 104.826C118.284 103.846 117.465 103.028 116.476 102.451ZM113.474 108.434L51.5793 143.451L50.7788 143.059V72.7309L51.5793 72.2895L113.474 107.355V108.434Z" fill="#23FCFD"/>
<path d="M123.306 102.451L61.4616 67.4342C60.4619 66.8798 59.3329 66.5884 58.1842 66.5884C57.0356 66.5884 55.9066 66.8798 54.9069 67.4342C53.9184 67.9993 53.0981 68.8082 52.5275 69.7805C51.9569 70.7528 51.656 71.8545 51.6546 72.9761V143.059C51.6442 144.176 51.9406 145.276 52.5128 146.242C53.0851 147.208 53.912 148.006 54.9069 148.552C55.9155 149.111 57.0507 149.414 58.2093 149.434C59.3503 149.402 60.4663 149.099 61.4616 148.552L123.306 113.535C124.294 112.981 125.115 112.182 125.686 111.217C126.257 110.253 126.558 109.157 126.558 108.042C126.556 106.914 126.255 105.806 125.685 104.826C125.114 103.846 124.295 103.028 123.306 102.451ZM120.304 108.434L58.4094 143.451L57.6088 143.059V72.7309L58.4094 72.2895L120.304 107.355V108.434Z" fill="#23FCFD" fill-opacity="0.15"/>
<defs>
<filter id="filter0_f_862_417" x="10.0033" y="10.7074" width="176.078" height="194.609" filterUnits="userSpaceOnUse" color-interpolation-filters="sRGB">
<feFlood flood-opacity="0" result="BackgroundImageFix"/>
<feBlend mode="normal" in="SourceGraphic" in2="BackgroundImageFix" result="shape"/>
<feGaussianBlur stdDeviation="0.982729" result="effect1_foregroundBlur_862_417"/>
</filter>
<filter id="filter1_f_862_417" x="0.914899" y="0.39195" width="194.959" height="214.71" filterUnits="userSpaceOnUse" color-interpolation-filters="sRGB">
<feFlood flood-opacity="0" result="BackgroundImageFix"/>
<feBlend mode="normal" in="SourceGraphic" in2="BackgroundImageFix" result="shape"/>
<feGaussianBlur stdDeviation="4.91364" result="effect1_foregroundBlur_862_417"/>
</filter>
<filter id="filter2_f_862_417" x="28.3998" y="37.0077" width="124.828" height="142.008" filterUnits="userSpaceOnUse" color-interpolation-filters="sRGB">
<feFlood flood-opacity="0" result="BackgroundImageFix"/>
<feBlend mode="normal" in="SourceGraphic" in2="BackgroundImageFix" result="shape"/>
<feGaussianBlur stdDeviation="0.982729" result="effect1_foregroundBlur_862_417"/>
</filter>
<filter id="filter3_f_862_417" x="42.8588" y="64.6229" width="78.8352" height="86.7771" filterUnits="userSpaceOnUse" color-interpolation-filters="sRGB">
<feFlood flood-opacity="0" result="BackgroundImageFix"/>
<feBlend mode="normal" in="SourceGraphic" in2="BackgroundImageFix" result="shape"/>
<feGaussianBlur stdDeviation="0.982729" result="effect1_foregroundBlur_862_417"/>
</filter>
<filter id="filter4_f_862_417" x="19.2924" y="10.7074" width="176.078" height="194.609" filterUnits="userSpaceOnUse" color-interpolation-filters="sRGB">
<feFlood flood-opacity="0" result="BackgroundImageFix"/>
<feBlend mode="normal" in="SourceGraphic" in2="BackgroundImageFix" result="shape"/>
<feGaussianBlur stdDeviation="0.982729" result="effect1_foregroundBlur_862_417"/>
</filter>
<filter id="filter5_f_862_417" x="35.2357" y="37.0077" width="124.828" height="142.008" filterUnits="userSpaceOnUse" color-interpolation-filters="sRGB">
<feFlood flood-opacity="0" result="BackgroundImageFix"/>
<feBlend mode="normal" in="SourceGraphic" in2="BackgroundImageFix" result="shape"/>
<feGaussianBlur stdDeviation="0.982729" result="effect1_foregroundBlur_862_417"/>
</filter>
<filter id="filter6_f_862_417" x="49.6888" y="64.6229" width="78.8352" height="86.7771" filterUnits="userSpaceOnUse" color-interpolation-filters="sRGB">
<feFlood flood-opacity="0" result="BackgroundImageFix"/>
<feBlend mode="normal" in="SourceGraphic" in2="BackgroundImageFix" result="shape"/>
<feGaussianBlur stdDeviation="0.982729" result="effect1_foregroundBlur_862_417"/>
</filter>
</defs>
</svg>
