<svg width="266" height="288" viewBox="0 0 266 288" fill="none" xmlns="http://www.w3.org/2000/svg">
<g filter="url(#filter0_f_0_10227)">
<path d="M240.212 131.949L38.4294 20.0031C36.0493 18.6907 33.3529 18 30.6086 18C27.8643 18 25.1679 18.6907 22.7879 20.0031C20.4028 21.3104 18.4239 23.2051 17.0551 25.4919C15.6864 27.7787 14.9773 30.3748 15.001 33.0125V256.904C14.9702 259.543 15.6762 262.142 17.0457 264.43C18.4152 266.718 20.3981 268.612 22.7879 269.914C25.1491 271.279 27.8528 272 30.6086 272C33.3644 272 36.0682 271.279 38.4294 269.914L240.212 157.968C242.606 156.671 244.593 154.779 245.963 152.489C247.333 150.2 248.037 147.599 247.999 144.958C248.008 142.323 247.293 139.732 245.926 137.448C244.558 135.163 242.587 133.267 240.212 131.949ZM236.149 151.073L34.3666 263.084C33.2263 263.724 31.9294 264.061 30.6086 264.061C29.2879 264.061 27.9909 263.724 26.8506 263.084C25.672 262.433 24.7056 261.48 24.0597 260.331C23.4138 259.182 23.1141 257.883 23.1941 256.579V32.9474C23.1218 31.645 23.4249 30.3487 24.07 29.2011C24.7151 28.0535 25.6773 27.099 26.8506 26.4427C28.0205 25.8522 29.3209 25.5399 30.6425 25.5321C31.9401 25.5573 33.2144 25.8689 34.3666 26.4427L236.149 138.454C237.342 139.098 238.327 140.047 238.996 141.194C239.665 142.342 239.992 143.644 239.941 144.958C239.904 146.178 239.535 147.366 238.869 148.405C238.204 149.444 237.265 150.297 236.149 150.878V151.073Z" fill="#23FCFD"/>
</g>
<g filter="url(#filter1_f_0_10227)">
<path d="M244.044 130.641L37.9321 16.0505C35.501 14.707 32.7468 14 29.9436 14C27.1404 14 24.3861 14.707 21.955 16.0505C19.5188 17.3886 17.4974 19.3281 16.0992 21.6689C14.7011 24.0097 13.9768 26.6671 14.001 29.3672V258.548C13.9695 261.249 14.6908 263.909 16.0896 266.251C17.4885 268.593 19.5139 270.532 21.955 271.864C24.3669 273.262 27.1286 274 29.9436 274C32.7585 274 35.5203 273.262 37.9321 271.864L244.044 157.274C246.49 155.947 248.52 154.01 249.92 151.666C251.319 149.323 252.037 146.66 251.998 143.957C252.008 141.26 251.278 138.608 249.881 136.27C248.485 133.931 246.471 131.989 244.044 130.641ZM239.895 150.216L33.7822 264.873C32.6175 265.528 31.2926 265.874 29.9436 265.874C28.5945 265.874 27.2697 265.528 26.1049 264.873C24.901 264.207 23.9139 263.231 23.2541 262.055C22.5944 260.879 22.2882 259.549 22.37 258.215V29.3005C22.2961 27.9673 22.6057 26.6404 23.2647 25.4657C23.9236 24.291 24.9064 23.3139 26.1049 22.6422C27.2999 22.0376 28.6282 21.718 29.9781 21.71C31.3036 21.7358 32.6052 22.0548 33.7822 22.6422L239.895 137.299C241.113 137.959 242.12 138.93 242.803 140.104C243.486 141.279 243.82 142.612 243.768 143.957C243.73 145.206 243.353 146.422 242.673 147.486C241.993 148.549 241.035 149.422 239.895 150.017V150.216Z" fill="#23FCFD"/>
</g>
<g filter="url(#filter2_f_0_10227)">
<path d="M197.936 133.674L57.9928 53.5809C56.1672 52.545 54.0995 52 51.9953 52C49.891 52 47.8234 52.545 45.9977 53.5809C44.1685 54.6187 42.6498 56.1178 41.5963 57.9257C40.5427 59.7336 39.992 61.7857 40.0001 63.8729V224.124C39.99 226.203 40.5405 228.247 41.5948 230.044C42.6492 231.842 44.1691 233.329 45.9977 234.35C47.8256 235.446 49.9252 236.017 52.0619 236C54.1539 235.996 56.2049 235.426 57.9928 234.35L197.936 154.258C199.763 153.229 201.285 151.742 202.349 149.948C203.414 148.153 203.983 146.113 204 144.032C203.993 141.931 203.429 139.869 202.365 138.051C201.301 136.233 199.774 134.724 197.936 133.674ZM194.004 147.396L54.0611 227.489C53.4662 227.872 52.7717 228.076 52.0619 228.076C51.3521 228.076 50.6576 227.872 50.0627 227.489C49.4597 227.152 48.9573 226.663 48.6063 226.073C48.2553 225.482 48.068 224.81 48.0635 224.124V63.8729C48.0697 63.1789 48.257 62.4983 48.6073 61.8971C48.9576 61.296 49.459 60.7948 50.0627 60.4422C50.6705 60.0948 51.3601 59.9119 52.0619 59.9119C52.7638 59.9119 53.4532 60.0948 54.0611 60.4422L194.004 140.535C194.61 140.896 195.108 141.411 195.447 142.025C195.787 142.639 195.956 143.332 195.937 144.032C195.946 144.712 195.771 145.382 195.432 145.974C195.092 146.565 194.599 147.056 194.004 147.396Z" fill="#23FCFD"/>
</g>
<g filter="url(#filter3_f_0_10227)">
<path d="M156.615 136.617L73.2241 90.1231C71.8761 89.3869 70.3537 89 68.8049 89C67.2561 89 65.7337 89.3869 64.3858 90.1231C63.0529 90.8734 61.9468 91.9474 61.1774 93.2384C60.408 94.5293 60.0022 95.9922 60.0004 97.4814V190.535C59.9863 192.018 60.3861 193.478 61.1576 194.761C61.9292 196.044 63.0442 197.104 64.3858 197.828C65.7457 198.57 67.2764 198.973 68.8387 199C70.3772 198.957 71.882 198.555 73.2241 197.828L156.615 151.334C157.947 150.599 159.054 149.538 159.824 148.257C160.594 146.976 161 145.521 161 144.041C160.996 142.543 160.59 141.072 159.822 139.771C159.053 138.469 157.948 137.383 156.615 136.617ZM152.567 144.562L69.1085 191.056L68.0291 190.535V97.1558L69.1085 96.5698L152.567 143.129V144.562Z" fill="#23FCFD"/>
</g>
<g filter="url(#filter4_f_0_10227)">
<path d="M253.212 131.949L51.4294 20.0031C49.0493 18.6907 46.3529 18 43.6086 18C40.8643 18 38.1679 18.6907 35.7879 20.0031C33.4028 21.3104 31.4239 23.2051 30.0551 25.4919C28.6864 27.7787 27.9773 30.3748 28.001 33.0125V256.904C27.9702 259.543 28.6762 262.142 30.0457 264.43C31.4152 266.718 33.3981 268.612 35.7879 269.914C38.1491 271.279 40.8528 272 43.6086 272C46.3644 272 49.0682 271.279 51.4294 269.914L253.212 157.968C255.606 156.671 257.593 154.779 258.963 152.489C260.333 150.2 261.037 147.599 260.999 144.958C261.008 142.323 260.293 139.732 258.926 137.448C257.558 135.163 255.587 133.267 253.212 131.949ZM249.149 151.073L47.3666 263.084C46.2263 263.724 44.9294 264.061 43.6086 264.061C42.2879 264.061 40.9909 263.724 39.8506 263.084C38.672 262.433 37.7056 261.48 37.0597 260.331C36.4138 259.182 36.1141 257.883 36.1941 256.579V32.9474C36.1218 31.645 36.4249 30.3487 37.07 29.2011C37.7151 28.0535 38.6773 27.099 39.8506 26.4427C41.0205 25.8522 42.3209 25.5399 43.6425 25.5321C44.9401 25.5573 46.2144 25.8689 47.3666 26.4427L249.149 138.454C250.342 139.098 251.327 140.047 251.996 141.194C252.665 142.342 252.992 143.644 252.941 144.958C252.904 146.178 252.535 147.366 251.869 148.405C251.204 149.444 250.265 150.297 249.149 150.878V151.073Z" fill="#23FCFD" fill-opacity="0.2"/>
</g>
<g filter="url(#filter5_f_0_10227)">
<path d="M207.936 133.674L67.9928 53.5809C66.1672 52.545 64.0995 52 61.9953 52C59.891 52 57.8234 52.545 55.9977 53.5809C54.1685 54.6187 52.6498 56.1178 51.5963 57.9257C50.5427 59.7336 49.992 61.7857 50.0001 63.8729V224.124C49.99 226.203 50.5405 228.247 51.5948 230.044C52.6492 231.842 54.1691 233.329 55.9977 234.35C57.8256 235.446 59.9252 236.017 62.0619 236C64.1539 235.996 66.2049 235.426 67.9928 234.35L207.936 154.258C209.763 153.229 211.285 151.742 212.349 149.948C213.414 148.153 213.983 146.113 214 144.032C213.993 141.931 213.429 139.869 212.365 138.051C211.301 136.233 209.774 134.724 207.936 133.674ZM204.004 147.396L64.0611 227.489C63.4662 227.872 62.7717 228.076 62.0619 228.076C61.3521 228.076 60.6576 227.872 60.0627 227.489C59.4597 227.152 58.9573 226.663 58.6063 226.073C58.2553 225.482 58.068 224.81 58.0635 224.124V63.8729C58.0697 63.1789 58.257 62.4983 58.6073 61.8971C58.9576 61.296 59.459 60.7948 60.0627 60.4422C60.6705 60.0948 61.3601 59.9119 62.0619 59.9119C62.7638 59.9119 63.4532 60.0948 64.0611 60.4422L204.004 140.535C204.61 140.896 205.108 141.411 205.447 142.025C205.787 142.639 205.956 143.332 205.937 144.032C205.946 144.712 205.771 145.382 205.432 145.974C205.092 146.565 204.599 147.056 204.004 147.396Z" fill="#23FCFD" fill-opacity="0.3"/>
</g>
<g filter="url(#filter6_f_0_10227)">
<path d="M165.615 136.617L82.2241 90.1231C80.8761 89.3869 79.3537 89 77.8049 89C76.2561 89 74.7337 89.3869 73.3858 90.1231C72.0529 90.8734 70.9468 91.9474 70.1774 93.2384C69.408 94.5293 69.0022 95.9922 69.0004 97.4814V190.535C68.9863 192.018 69.3861 193.478 70.1576 194.761C70.9292 196.044 72.0442 197.104 73.3858 197.828C74.7457 198.57 76.2764 198.973 77.8387 199C79.3772 198.957 80.882 198.555 82.2241 197.828L165.615 151.334C166.947 150.599 168.054 149.538 168.824 148.257C169.594 146.976 170 145.521 170 144.041C169.996 142.543 169.59 141.072 168.822 139.771C168.053 138.469 166.948 137.383 165.615 136.617ZM161.567 144.562L78.1085 191.056L77.0291 190.535V97.1558L78.1085 96.5698L161.567 143.129V144.562Z" fill="#23FCFD" fill-opacity="0.3"/>
</g>
<path d="M240.212 131.949L38.4294 20.0031C36.0493 18.6907 33.3529 18 30.6086 18C27.8643 18 25.1679 18.6907 22.7879 20.0031C20.4028 21.3104 18.4239 23.2051 17.0551 25.4919C15.6864 27.7787 14.9773 30.3748 15.001 33.0125V256.904C14.9702 259.543 15.6762 262.142 17.0457 264.43C18.4152 266.718 20.3981 268.612 22.7879 269.914C25.1491 271.279 27.8528 272 30.6086 272C33.3644 272 36.0682 271.279 38.4294 269.914L240.212 157.968C242.606 156.671 244.593 154.779 245.963 152.489C247.333 150.2 248.037 147.599 247.999 144.958C248.008 142.323 247.293 139.732 245.926 137.448C244.558 135.163 242.587 133.267 240.212 131.949ZM236.149 151.073L34.3666 263.084C33.2263 263.724 31.9294 264.061 30.6086 264.061C29.2879 264.061 27.9909 263.724 26.8506 263.084C25.672 262.433 24.7056 261.48 24.0597 260.331C23.4138 259.182 23.1141 257.883 23.1941 256.579V32.9474C23.1218 31.645 23.4249 30.3487 24.07 29.2011C24.7151 28.0535 25.6773 27.099 26.8506 26.4427C28.0205 25.8522 29.3209 25.5399 30.6425 25.5321C31.9401 25.5573 33.2144 25.8689 34.3666 26.4427L236.149 138.454C237.342 139.098 238.327 140.047 238.996 141.194C239.665 142.342 239.992 143.644 239.941 144.958C239.904 146.178 239.535 147.366 238.869 148.405C238.204 149.444 237.265 150.297 236.149 150.878V151.073Z" fill="#23FCFD"/>
<path d="M245.212 131.949L43.4294 20.0031C41.0493 18.6907 38.3529 18 35.6086 18C32.8643 18 30.1679 18.6907 27.7879 20.0031C25.4028 21.3104 23.4239 23.2051 22.0551 25.4919C20.6864 27.7787 19.9773 30.3748 20.001 33.0125V256.904C19.9702 259.543 20.6762 262.142 22.0457 264.43C23.4152 266.718 25.3981 268.612 27.7879 269.914C30.1491 271.279 32.8528 272 35.6086 272C38.3644 272 41.0682 271.279 43.4294 269.914L245.212 157.968C247.606 156.671 249.593 154.779 250.963 152.489C252.333 150.2 253.037 147.599 252.999 144.958C253.008 142.323 252.293 139.732 250.926 137.448C249.558 135.163 247.587 133.267 245.212 131.949ZM241.149 151.073L39.3666 263.084C38.2263 263.724 36.9294 264.061 35.6086 264.061C34.2879 264.061 32.9909 263.724 31.8506 263.084C30.672 262.433 29.7056 261.48 29.0597 260.331C28.4138 259.182 28.1141 257.883 28.1941 256.579V32.9474C28.1218 31.645 28.4249 30.3487 29.07 29.2011C29.7151 28.0535 30.6773 27.099 31.8506 26.4427C33.0205 25.8522 34.3209 25.5399 35.6425 25.5321C36.9401 25.5573 38.2144 25.8689 39.3666 26.4427L241.149 138.454C242.342 139.098 243.327 140.047 243.996 141.194C244.665 142.342 244.992 143.644 244.941 144.958C244.904 146.178 244.535 147.366 243.869 148.405C243.204 149.444 242.265 150.297 241.149 150.878V151.073Z" fill="#23FCFD" fill-opacity="0.3"/>
<path d="M197.936 133.674L57.9928 53.5809C56.1672 52.545 54.0995 52 51.9953 52C49.891 52 47.8234 52.545 45.9977 53.5809C44.1685 54.6187 42.6498 56.1178 41.5963 57.9257C40.5427 59.7336 39.992 61.7857 40.0001 63.8729V224.124C39.99 226.203 40.5405 228.247 41.5948 230.044C42.6492 231.842 44.1691 233.329 45.9977 234.35C47.8256 235.446 49.9252 236.017 52.0619 236C54.1539 235.996 56.2049 235.426 57.9928 234.35L197.936 154.258C199.763 153.229 201.285 151.742 202.349 149.948C203.414 148.153 203.983 146.113 204 144.032C203.993 141.931 203.429 139.869 202.365 138.051C201.301 136.233 199.774 134.724 197.936 133.674ZM194.004 147.396L54.0611 227.489C53.4662 227.872 52.7717 228.076 52.0619 228.076C51.3521 228.076 50.6576 227.872 50.0627 227.489C49.4597 227.152 48.9573 226.663 48.6063 226.073C48.2553 225.482 48.068 224.81 48.0635 224.124V63.8729C48.0697 63.1789 48.257 62.4983 48.6073 61.8971C48.9576 61.296 49.459 60.7948 50.0627 60.4422C50.6705 60.0948 51.3601 59.9119 52.0619 59.9119C52.7638 59.9119 53.4532 60.0948 54.0611 60.4422L194.004 140.535C194.61 140.896 195.108 141.411 195.447 142.025C195.787 142.639 195.956 143.332 195.937 144.032C195.946 144.712 195.771 145.382 195.432 145.974C195.092 146.565 194.599 147.056 194.004 147.396Z" fill="#23FCFD"/>
<path d="M207.936 133.674L67.9928 53.5809C66.1672 52.545 64.0995 52 61.9953 52C59.891 52 57.8234 52.545 55.9977 53.5809C54.1685 54.6187 52.6498 56.1178 51.5963 57.9257C50.5427 59.7336 49.992 61.7857 50.0001 63.8729V224.124C49.99 226.203 50.5405 228.247 51.5948 230.044C52.6492 231.842 54.1691 233.329 55.9977 234.35C57.8256 235.446 59.9252 236.017 62.0619 236C64.1539 235.996 66.2049 235.426 67.9928 234.35L207.936 154.258C209.763 153.229 211.285 151.742 212.349 149.948C213.414 148.153 213.983 146.113 214 144.032C213.993 141.931 213.429 139.869 212.365 138.051C211.301 136.233 209.774 134.724 207.936 133.674ZM204.004 147.396L64.0611 227.489C63.4662 227.872 62.7717 228.076 62.0619 228.076C61.3521 228.076 60.6576 227.872 60.0627 227.489C59.4597 227.152 58.9573 226.663 58.6063 226.073C58.2553 225.482 58.068 224.81 58.0635 224.124V63.8729C58.0697 63.1789 58.257 62.4983 58.6073 61.8971C58.9576 61.296 59.459 60.7948 60.0627 60.4422C60.6705 60.0948 61.3601 59.9119 62.0619 59.9119C62.7638 59.9119 63.4532 60.0948 64.0611 60.4422L204.004 140.535C204.61 140.896 205.108 141.411 205.447 142.025C205.787 142.639 205.956 143.332 205.937 144.032C205.946 144.712 205.771 145.382 205.432 145.974C205.092 146.565 204.599 147.056 204.004 147.396Z" fill="#23FCFD" fill-opacity="0.15"/>
<path d="M156.615 136.617L73.2241 90.1231C71.8761 89.3869 70.3537 89 68.8049 89C67.2561 89 65.7337 89.3869 64.3858 90.1231C63.0529 90.8734 61.9468 91.9474 61.1774 93.2384C60.408 94.5293 60.0022 95.9922 60.0004 97.4814V190.535C59.9863 192.018 60.3861 193.478 61.1576 194.761C61.9292 196.044 63.0442 197.104 64.3858 197.828C65.7457 198.57 67.2764 198.973 68.8387 199C70.3772 198.957 71.882 198.555 73.2241 197.828L156.615 151.334C157.947 150.599 159.054 149.538 159.824 148.257C160.594 146.976 161 145.521 161 144.041C160.996 142.543 160.59 141.072 159.822 139.771C159.053 138.469 157.948 137.383 156.615 136.617ZM152.567 144.562L69.1085 191.056L68.0291 190.535V97.1558L69.1085 96.5698L152.567 143.129V144.562Z" fill="#23FCFD"/>
<path d="M165.615 136.617L82.2241 90.1231C80.8761 89.3869 79.3537 89 77.8049 89C76.2561 89 74.7337 89.3869 73.3858 90.1231C72.0529 90.8734 70.9468 91.9474 70.1774 93.2384C69.408 94.5293 69.0022 95.9922 69.0004 97.4814V190.535C68.9863 192.018 69.3861 193.478 70.1576 194.761C70.9292 196.044 72.0442 197.104 73.3858 197.828C74.7457 198.57 76.2764 198.973 77.8387 199C79.3772 198.957 80.882 198.555 82.2241 197.828L165.615 151.334C166.947 150.599 168.054 149.538 168.824 148.257C169.594 146.976 170 145.521 170 144.041C169.996 142.543 169.59 141.072 168.822 139.771C168.053 138.469 166.948 137.383 165.615 136.617ZM161.567 144.562L78.1085 191.056L77.0291 190.535V97.1558L78.1085 96.5698L161.567 143.129V144.562Z" fill="#23FCFD" fill-opacity="0.15"/>
<defs>
<filter id="filter0_f_0_10227" x="12.385" y="15.385" width="238.23" height="259.23" filterUnits="userSpaceOnUse" color-interpolation-filters="sRGB">
<feFlood flood-opacity="0" result="BackgroundImageFix"/>
<feBlend mode="normal" in="SourceGraphic" in2="BackgroundImageFix" result="shape"/>
<feGaussianBlur stdDeviation="1.30751" result="effect1_foregroundBlur_0_10227"/>
</filter>
<filter id="filter1_f_0_10227" x="0.924939" y="0.924939" width="264.15" height="286.15" filterUnits="userSpaceOnUse" color-interpolation-filters="sRGB">
<feFlood flood-opacity="0" result="BackgroundImageFix"/>
<feBlend mode="normal" in="SourceGraphic" in2="BackgroundImageFix" result="shape"/>
<feGaussianBlur stdDeviation="6.53753" result="effect1_foregroundBlur_0_10227"/>
</filter>
<filter id="filter2_f_0_10227" x="37.385" y="49.385" width="169.23" height="189.23" filterUnits="userSpaceOnUse" color-interpolation-filters="sRGB">
<feFlood flood-opacity="0" result="BackgroundImageFix"/>
<feBlend mode="normal" in="SourceGraphic" in2="BackgroundImageFix" result="shape"/>
<feGaussianBlur stdDeviation="1.30751" result="effect1_foregroundBlur_0_10227"/>
</filter>
<filter id="filter3_f_0_10227" x="57.385" y="86.385" width="106.23" height="115.23" filterUnits="userSpaceOnUse" color-interpolation-filters="sRGB">
<feFlood flood-opacity="0" result="BackgroundImageFix"/>
<feBlend mode="normal" in="SourceGraphic" in2="BackgroundImageFix" result="shape"/>
<feGaussianBlur stdDeviation="1.30751" result="effect1_foregroundBlur_0_10227"/>
</filter>
<filter id="filter4_f_0_10227" x="25.385" y="15.385" width="238.23" height="259.23" filterUnits="userSpaceOnUse" color-interpolation-filters="sRGB">
<feFlood flood-opacity="0" result="BackgroundImageFix"/>
<feBlend mode="normal" in="SourceGraphic" in2="BackgroundImageFix" result="shape"/>
<feGaussianBlur stdDeviation="1.30751" result="effect1_foregroundBlur_0_10227"/>
</filter>
<filter id="filter5_f_0_10227" x="47.385" y="49.385" width="169.23" height="189.23" filterUnits="userSpaceOnUse" color-interpolation-filters="sRGB">
<feFlood flood-opacity="0" result="BackgroundImageFix"/>
<feBlend mode="normal" in="SourceGraphic" in2="BackgroundImageFix" result="shape"/>
<feGaussianBlur stdDeviation="1.30751" result="effect1_foregroundBlur_0_10227"/>
</filter>
<filter id="filter6_f_0_10227" x="66.385" y="86.385" width="106.23" height="115.23" filterUnits="userSpaceOnUse" color-interpolation-filters="sRGB">
<feFlood flood-opacity="0" result="BackgroundImageFix"/>
<feBlend mode="normal" in="SourceGraphic" in2="BackgroundImageFix" result="shape"/>
<feGaussianBlur stdDeviation="1.30751" result="effect1_foregroundBlur_0_10227"/>
</filter>
</defs>
</svg>
